<?xml version="1.0" encoding="utf-8"?>
<!-- Generator: Adobe Illustrator 24.2.1, SVG Export Plug-In . SVG Version: 6.00 Build 0)  -->
<svg version="1.1" xmlns="http://www.w3.org/2000/svg" xmlns:xlink="http://www.w3.org/1999/xlink" x="0px" y="0px"
	 viewBox="0 0 331.7 170.1" style="enable-background:new 0 0 331.7 170.1;" xml:space="preserve">
<style type="text/css">
	.st0{fill:#E6E6E6;}
	.st1{fill:#FFFFFF;}
	.st2{fill:#727171;}
	.st3{font-family:'RoundedMplus1c-Medium';}
	.st4{font-size:8.5039px;}
</style>
<g id="レイヤー_1">
	<g id="レイヤー_1_1_">
	</g>
	<path class="st0" d="M169.5,124.5c-0.6,0-1.2-0.1-2-0.2c-0.4-0.1-0.7-0.2-1.1-0.2c-0.2,0.1-0.6,0.2-0.9,0.2l-0.4,0.1
		c-0.9,0.1-1.8,0.2-2.9,0.1c-1.3-0.2-2.6-0.7-3.7-1.5c-1.2,0.2-2.7,0.2-3.9-0.2c-1-0.2-2-0.9-2.7-1.5c-0.2-0.2-0.4-0.4-0.6-0.5
		c-0.2,0-0.7,0-1-0.1c-0.9-0.2-2-0.5-2.7-0.9l-0.2-0.2c-0.6-0.4-1.5-1-2.1-2c-0.2-0.2-0.4-0.5-0.5-0.9c-0.2-0.1-0.6-0.1-0.9-0.2
		l-0.6-0.2c-0.6-0.2-1.5-0.7-2.3-1.6c-0.6-0.5-0.9-1-1.1-1.3l-0.2-0.2c-0.1-0.2-0.2-0.4-0.2-0.6l-0.1-0.2c-0.9-0.2-1.5-0.6-2.1-1.1
		c-0.2-0.2-0.6-0.5-0.9-0.9c-0.5,0-1,0-1.5-0.1c-0.4-0.1-0.9-0.2-1.2-0.4c-0.2,0.2-0.6,0.2-1,0.5c-0.7,0.2-1.5,0.4-2.3,0.4
		c-0.2,0.2-0.5,0.6-0.7,0.9l-0.2,0.2l-0.4,0.2c-0.1,0.1-0.4,0.2-0.6,0.2l-0.5,0.4c-1,0.6-2.2,0.9-3.6,0.9c-0.2,0-0.7,0-0.9-0.1
		c-0.2,0.2-0.5,0.4-0.7,0.5c-0.9,0.6-2,0.9-3.1,1.1s-2.1,0.1-3.1-0.1c-0.2-0.1-0.7-0.2-0.9-0.2c-0.2,0.1-0.4,0.2-0.6,0.2
		c-1,0.4-2.1,0.5-2.9,0.5c-1.5,0-2.7-0.4-3.9-1.1c-1.1,0.2-2.4,0.4-3.8,0.1c-0.7-0.1-1.3-0.2-2-0.6c-0.5-0.2-0.9-0.5-1.2-0.7
		l-0.2-0.2l-0.2-0.2c-0.1-0.1-0.2-0.2-0.4-0.4c-0.4,0-0.9,0-1.3-0.1c-1-0.1-2.1-0.5-2.9-0.9l-0.2-0.1c-1.2-0.7-2.1-1.6-2.8-2.7
		c-1.3-0.2-2.4-0.9-3.4-1.5c-0.9-0.6-1.6-1.5-2.1-2.4c-0.1-0.2-0.2-0.5-0.4-0.7c-0.2-0.1-0.4-0.2-0.6-0.2c-0.5-0.2-0.9-0.5-1.1-0.7
		l-0.6-0.5c-0.2-0.2-0.6-0.6-1-1.1c-0.5-0.9-0.9-1.6-1.2-2.6l-0.1-0.4c0-0.2-0.1-0.4-0.1-0.5c-0.2-0.2-0.5-0.2-0.7-0.5L81.5,97
		c-0.9-0.9-1.5-1.7-1.8-2.7l-0.1-0.2c-0.1-0.2-0.1-0.4-0.2-0.6c0-0.1-0.1-0.2-0.1-0.4L79,92.7v-1.3c0-0.1,0-0.1,0-0.2
		c-0.5-0.5-1-1.1-1.2-1.7l-0.1-0.1c-0.2-0.4-0.2-0.9-0.4-1.2c-0.4-0.1-0.9-0.2-1.1-0.6c-0.4-0.2-0.9-0.6-1.1-0.9
		c-0.4,0.1-0.9,0.1-1.3,0c-0.7-0.1-1.5-0.2-2.1-0.7h-0.1c-0.2,0.1-0.5,0.2-1,0.4c-0.7,0.2-1.5,0.2-2.1,0.2c-1.1,0-2.3-0.2-3.3-0.9
		c-0.4-0.2-0.7-0.2-1-0.5c-0.2,0.1-0.5,0.1-0.9,0.2c-0.9,0.2-2.1,0.1-3.3-0.2c-0.9-0.2-2-0.9-2.8-1.5c-0.2-0.2-0.5-0.4-0.7-0.6
		c-0.2,0-0.5,0-0.9,0c-1.1,0-2.2-0.4-3.3-1c-1.1-0.7-2.1-1.6-2.8-2.7c-1.5-0.2-2.7-0.9-3.9-2c-0.9-0.7-1.5-1.5-2.1-2.4
		c-0.2-0.4-0.4-0.9-0.6-1.2c-0.4-0.2-0.9-0.4-1-0.6L41.7,73c-0.4-0.2-1.5-1.1-2.1-2.2c-0.9-1.2-1.3-2.6-1.3-4c-1-0.9-2-2-2.6-3.3
		c-0.5-1.1-0.7-2.1-0.7-3.3c0-0.2,0-0.6,0.1-0.9c-0.2-0.2-0.4-0.5-0.6-0.9c-0.7-1-1.1-2.1-1.2-3.3c-0.1-0.9-0.2-2.1,0.2-3.3
		c0.1-0.2,0.1-0.5,0.2-0.7c-0.2-0.4-0.2-0.9-0.5-1.2L33,49.5c-0.1-0.9-0.2-1.8-0.1-3.1l0.1-0.2c0.1-0.5,0.2-1,0.4-1.3
		c0.1-0.4,0.2-0.9,0.9-1.5c-0.2-0.9-0.2-1.7-0.2-2.2v-0.4c0-0.4,0.1-0.7,0.2-1.1c-0.2-0.4-0.5-0.9-0.7-1.2L33.3,38
		c-0.1-0.4-0.2-0.9-0.2-1.2c-0.4-0.2-0.7-0.4-1.1-0.7L31.8,36c-0.5-0.5-1-1.2-1.3-1.8c-0.6-0.1-1.2-0.2-1.5-0.5
		c-0.2-0.2-0.6-0.4-0.9-0.6l-0.2-0.2c-1.2-0.9-1.8-1.8-2.3-2.6l-0.4-0.4c-0.1-0.2-0.2-0.7-0.2-1c-0.2-0.1-0.5-0.2-0.9-0.5
		c-0.9-0.6-1.7-1.5-2.3-2.3c-0.7-1-1.1-2.1-1.2-3.3c0-0.2-0.1-0.6-0.1-0.9c-0.2-0.2-0.4-0.2-0.6-0.5l-0.2-0.2
		c-0.6-0.9-1.1-1.6-1.5-2.6H18c-0.5-1.5-0.6-2.9-0.5-4.3c-0.2-0.2-0.4-0.5-0.5-0.7c-0.6-0.9-1-2.1-1.2-3.3c-0.1-1.1,0-2.2,0.1-3.2
		L16,6.7c0.1-0.2,0.2-0.7,0.4-1.1c-0.1-0.4-0.2-0.9-0.4-1.1c-0.2-1-0.2-2.1-0.2-3.4C16-0.2,16.3-1.3,17-2.2c0-0.4,0-0.6,0.4-1
		c-0.2-1.5-0.1-2.9,0.4-4.3c0.4-1.2,1.1-2.1,1.5-2.7c0.4-0.2,0.6-0.5,1-0.9c0-0.2,0-0.6,0.1-0.9c0.2-1.1,0.6-2.2,1.2-3.3
		c0.6-0.9,1.3-1.6,2.2-2.2c0.2-0.2,0.5-0.4,0.9-0.5c0.2-0.5,0.4-1,0.7-1.5c0.6-0.9,1.3-1.7,2.1-2.3l0.4-0.2c0.2-0.2,0.9-0.6,1.5-0.9
		h0.1c0.2-0.1,0.5-0.2,1-0.2c0.2-0.6,0.9-1.3,1.3-1.8l0.4-0.2c0.2-0.2,0.5-0.4,0.9-0.5c0.1-0.5,0.2-1.1,0.4-1.6s0.4-0.9,0.7-1.2
		c-0.2-0.6-0.4-1-0.4-1.3V-30c0-0.7,0.1-1.3,0.2-1.8V-32c0-0.1,0-0.1,0-0.2c-0.2-0.4-0.5-0.9-0.6-1c-0.2-0.6-0.4-1.2-0.5-1.6
		c0-0.1,0-0.1,0-0.2c-0.4-1.5-0.1-2.8,0.1-3.8c0.1-0.4,0.2-0.9,0.5-1.2c-0.1-0.2-0.2-0.4-0.2-0.6v-0.1c-0.2-1-0.4-2.1-0.2-3.3
		l0.1-0.4c0.2-0.9,0.5-1.8,1.2-2.8l0.1-0.2c0.1-0.2,0.2-0.2,0.4-0.5c0-0.2-0.1-0.6-0.1-0.9c0-1.1,0.2-2.1,0.6-3.2
		c0.6-1.3,1.5-2.4,2.4-3.3c0.1-1.5,0.5-2.8,1.5-4c0.6-1,1.3-1.8,2.3-2.4c0.4-0.2,0.7-0.4,1.1-0.6c0.1-0.4,0.2-0.7,0.4-1l0.2-0.2
		c0.5-0.7,1-1.5,2-2.3c1.1-0.9,2.4-1.6,3.8-1.8c0.7-1.1,1.7-2.1,2.9-2.7l0.1-0.4c0.9-0.4,1.8-0.7,2.7-0.9h0.5c0.2,0,0.2,0,0.5,0
		c0.2-0.2,0.5-0.5,0.7-0.7c0.9-0.7,1.8-1.2,2.8-1.5c1.2-0.2,2.3-0.4,3.3-0.2c0.2,0,0.5,0.1,0.9,0.2c0.2-0.2,0.6-0.2,0.9-0.5
		c1.1-0.5,2.2-0.9,3.4-0.9c0.6,0,1.3,0,2.1,0.2h0.7c0.2,0.1,0.4,0.2,0.6,0.2c0.7-0.4,1.5-0.6,2.1-0.7c0.5-0.1,0.9,0,1.3,0
		c0.2-0.2,0.6-0.6,1-0.9s0.9-0.5,1.2-0.7c0.1-0.4,0.2-0.9,0.5-1.2c0.4-0.7,0.9-1.3,1.5-1.8v-0.1v-0.9c0-0.9,0.2-1.5,0.4-1.8l0.1-0.1
		c0.5-1.5,1.3-2.3,2-2.9c0.2-0.2,0.6-0.5,0.9-0.7c0-0.2,0.1-0.5,0.2-0.9c0.2-1.1,0.9-2.1,1.3-2.7l0.2-0.2l0.2-0.2
		c0.2-0.2,0.4-0.5,0.9-0.9c0.4-0.4,1-0.7,1.5-0.9c0.2-0.1,0.4-0.2,0.6-0.2c0.1-0.2,0.2-0.4,0.2-0.6l0.1-0.2c0.5-0.9,1.2-1.6,2-2.2
		c1-0.9,2.2-1.5,3.6-1.7c0.7-1.1,1.7-2.1,3.1-2.8c0.9-0.5,2-0.9,2.9-0.9h0.4c0.2,0,0.5,0,0.7,0c0.2-0.2,0.6-0.6,1-0.9
		c0.2-0.2,0.5-0.2,0.9-0.4c0.1,0,0.1-0.1,0.2-0.1l0.2-0.2l0.2-0.1c0.2-0.1,0.4-0.1,0.6-0.2c0.1,0,0.2-0.1,0.4-0.1l0.2-0.1
		c1.3-0.2,2.7-0.2,3.9,0.1c1.2-0.9,2.6-1.2,3.9-1.2c0.9,0,2,0.2,2.8,0.4c0.2,0.1,0.5,0.2,0.9,0.2c0.2-0.1,0.4-0.2,0.6-0.2
		c1-0.2,2.1-0.4,3.3-0.2c1.3,0.2,2.4,0.9,3.1,1.1l0.2,0.2c0.1,0.1,0.2,0.2,0.4,0.4c1.2-0.2,2.7,0,4.2,0.6c0.6,0.2,1.1,0.5,1.5,0.9
		l0.2,0.2l0.2,0.2c0.2,0.2,0.4,0.4,0.5,0.6l0.2,0.2c0.9,0,1.5,0.1,2.2,0.2c0.4,0.1,0.9,0.2,1.2,0.5c0.4-0.2,0.9-0.2,1.2-0.4l0.2-0.1
		c0.4,0,0.9-0.1,1.2,0c0.2-0.2,0.5-0.6,0.9-0.9c0.6-0.4,1.2-0.9,2.1-1l0,0l0.2-0.4c0.1-0.2,0.2-0.4,0.2-0.6l0.2-0.4l0.4-0.4
		c0.2-0.2,0.2-0.4,0.5-0.6c0.9-0.9,1.8-1.5,2.4-1.7l0.2-0.1c0.4-0.2,0.9-0.4,1.3-0.4c0.1-0.2,0.2-0.5,0.5-0.7
		c0.9-0.9,1.6-1.6,2.4-2.1c0.9-0.4,1.8-0.7,2.7-0.9h0.5c0.2,0,0.2,0,0.5,0c0.2-0.2,0.4-0.4,0.6-0.6c0.9-0.7,1.7-1.1,2.7-1.5
		c1.2-0.4,2.6-0.4,3.9-0.2c1-0.7,2.3-1.2,3.7-1.5c0.9-0.1,2.1-0.2,3.3,0.1c0.4,0.1,0.7,0.2,1.1,0.2c0.2-0.1,0.6-0.2,0.9-0.2l0.4-0.1
		c0.9-0.1,1.8-0.2,2.9-0.1c1.3,0.2,2.6,0.7,3.7,1.5c1.2-0.2,2.7-0.2,3.9,0.2c1,0.2,2,0.9,2.7,1.5c0.2,0.2,0.4,0.4,0.6,0.5
		c0.4,0,0.7,0,1,0.1c0.9,0.2,2,0.5,2.7,0.9l0.2,0.2c0.6,0.4,1.5,1,2.1,2c0.2,0.2,0.4,0.5,0.5,0.9c0.2,0.1,0.6,0.1,0.9,0.2l0.6,0.2
		c0.6,0.2,1.5,0.7,2.3,1.6c0.6,0.5,0.9,1,1.1,1.3l0.2,0.2c0.1,0.2,0.2,0.4,0.2,0.6l0.1,0.2c0.9,0.2,1.5,0.6,2.1,1.1
		c0.2,0.2,0.6,0.5,0.9,0.9c0.5,0,1,0,1.5,0.1c0.4,0.1,0.9,0.2,1.2,0.4c0.2-0.2,0.6-0.2,1-0.5c0.7-0.2,1.5-0.4,2.3-0.4
		c0.2-0.2,0.5-0.6,0.7-0.9l0.2-0.2l0.4-0.2c0.2-0.1,0.4-0.2,0.6-0.2l0.2-0.1c1.5-0.9,2.7-0.9,3.6-0.9c0.2,0,0.6,0,0.9,0.1
		c0.2-0.2,0.5-0.4,0.7-0.5c0.9-0.6,2-0.9,3.1-1.1s2.1-0.1,3.1,0.1c0.2,0.1,0.7,0.2,0.9,0.2c0.2-0.1,0.4-0.2,0.6-0.2
		c1-0.4,2.1-0.5,2.9-0.5c1.5,0,2.7,0.4,3.9,1.1c1.1-0.2,2.4-0.4,3.8-0.1c0.7,0.1,1.3,0.2,2,0.6c0.5,0.2,0.9,0.5,1.2,0.7l0.2,0.2
		l0.2,0.2c0.1,0.1,0.2,0.2,0.4,0.4c0.4,0,0.9,0,1.3,0.1c1,0.1,2.1,0.4,2.9,0.9l0.2,0.1c1.2,0.7,2.1,1.6,2.8,2.7
		c1.2,0.2,2.4,0.9,3.4,1.5c0.9,0.6,1.6,1.5,2.1,2.4c0.1,0.2,0.2,0.5,0.4,0.7c0.2,0.1,0.4,0.2,0.6,0.2c0.5,0.2,0.9,0.5,1.1,0.6
		l0.7,0.6c0.2,0.2,0.6,0.6,1,1.1c0.5,0.9,0.9,1.6,1.2,2.6l0.1,0.4c0,0.2,0.1,0.4,0.1,0.5c0.2,0.2,0.5,0.2,0.7,0.5l0.2,0.2
		c0.9,0.9,1.5,1.7,1.8,2.7l0.1,0.2c0.1,0.2,0.1,0.4,0.2,0.6c0,0.1,0.1,0.2,0.1,0.4l0.1,0.4v1.3c0,0.1,0,0.1,0,0.2
		c0.6,0.5,1.1,1.1,1.5,1.7l0.1,0.1c0.2,0.4,0.2,0.9,0.4,1.2c0.4,0.1,0.9,0.2,1.1,0.6c0.4,0.2,0.9,0.6,1.1,0.9c0.4-0.1,0.9-0.1,1.3,0
		c0.7,0.1,1.5,0.2,2.1,0.7h0.1c0.2-0.1,0.5-0.2,1-0.4c0.7-0.2,1.5-0.2,2.1-0.2c1.1,0,2.3,0.2,3.3,0.9c0.4,0.2,0.7,0.2,1,0.5
		c0.2-0.1,0.5-0.1,0.9-0.2c0.9-0.2,2.1-0.1,3.3,0.2c0.9,0.2,2,0.9,2.8,1.5c0.2,0.2,0.5,0.4,0.7,0.6c0.2,0,0.5,0,0.9,0
		c1.1,0,2.2,0.4,3.3,1c1.1,0.7,2.1,1.6,2.8,2.7c1.5,0.2,2.7,0.9,3.9,2c0.9,0.7,1.5,1.5,2.1,2.4c0.2,0.4,0.4,0.9,0.6,1.2
		c0.4,0.2,0.9,0.4,1,0.6l0.2,0.1c0.4,0.2,1.5,1.1,2.1,2.2c0.9,1.2,1.3,2.6,1.3,4c1,0.9,2,2,2.6,3.3c0.5,1.1,0.7,2.1,0.7,3.3
		c0,0.2,0,0.6-0.1,0.9c0.2,0.2,0.4,0.5,0.6,0.9c0.7,1,1.1,2.1,1.2,3.3c0.1,0.9,0.2,2.1-0.2,3.3c-0.1,0.2-0.1,0.5-0.2,0.7
		c0.2,0.4,0.2,0.9,0.5,1.2l0.1,0.4c0.1,0.9,0.2,1.8,0.1,3.1l-0.1,0.2c-0.1,0.5-0.2,1-0.4,1.3s-0.2,0.9-0.9,1.5
		c0.2,0.9,0.2,1.7,0.2,2.2v0.4c0,0.4-0.1,0.7-0.2,1.1c0.2,0.4,0.5,0.9,0.7,1.2l0.1,0.2c0.1,0.4,0.2,0.9,0.2,1.2
		c0.4,0.2,0.7,0.4,1.1,0.7l0.2,0.1c0.5,0.5,1,1.2,1.3,1.8c0.6,0.1,1.2,0.2,1.5,0.5c0.2,0.2,0.6,0.4,0.9,0.6l0.2,0.2
		c1.2,0.9,1.8,1.8,2.3,2.6l0.2,0.5c0.1,0.2,0.2,0.7,0.2,1c0.2,0.1,0.5,0.2,0.9,0.5c0.9,0.6,1.7,1.5,2.3,2.3c0.7,1,1.1,2.1,1.2,3.3
		c0,0.2,0.1,0.6,0.1,0.9c0.2,0.2,0.4,0.2,0.6,0.5l0.2,0.2c0.6,0.9,1.1,1.6,1.5,2.6l0.1,0.2c0.5,1.5,0.6,2.9,0.5,4.3
		c0.2,0.2,0.4,0.5,0.5,0.7c0.6,0.9,1,2.1,1.2,3.3c0.1,1.1,0,2.2-0.1,3.2l-0.1,0.4c-0.1,0.2-0.2,0.7-0.2,1.1c0.2,0.4,0.2,0.9,0.4,1.3
		c0.2,1,0.2,2.1,0.1,3.3c-0.2,1.3-0.5,2.4-1.2,3.3c-0.2,0.2-0.2,0.5-0.6,0.9c0.2,1.5,0.1,2.8-0.4,4.2c-0.4,1.2-1.1,2.1-1.5,2.7
		c-0.2,0.2-0.6,0.6-0.9,0.9c0,0.2,0,0.6-0.1,0.9c-0.2,1.1-0.6,2.2-1.2,3.3c-0.6,0.9-1.3,1.6-2.2,2.2c-0.2,0.2-0.5,0.4-0.9,0.5
		c-0.2,0.5-0.4,1-0.7,1.5c-0.6,0.9-1.3,1.7-2.1,2.3l-0.4,0.2c-0.2,0.2-0.9,0.6-1.5,0.9h-0.1c-0.2,0.1-0.5,0.2-1,0.2
		c-0.2,0.6-0.9,1.3-1.3,1.8l-0.4,0.2c-0.2,0.2-0.5,0.4-0.9,0.5c-0.1,0.5-0.2,1-0.4,1.6c-0.2,0.5-0.4,0.9-0.7,1.2
		c0.1,0.2,0.2,0.7,0.2,1.1v0.2c0,0.7-0.1,1.3-0.2,1.8V43c0,0.1,0,0.1,0,0.2c0.2,0.4,0.5,0.9,0.6,1c0.2,0.6,0.4,1.2,0.5,1.6
		c0,0.1,0,0.1,0,0.2c0.4,1.5,0.1,2.8-0.1,3.8c-0.1,0.4-0.2,0.9-0.5,1.2c0.1,0.2,0.2,0.4,0.2,0.6v0.1c0.2,1,0.4,2.1,0.2,3.3l-0.1,0.4
		c-0.2,0.9-0.5,1.8-1.2,2.8l-0.1,0.2c-0.1,0.2-0.2,0.2-0.4,0.5c0,0.2,0.1,0.6,0.1,0.9c0,1.1-0.2,2.1-0.6,3.2
		c-0.6,1.3-1.5,2.4-2.4,3.3c-0.1,1.5-0.5,2.8-1.5,4c-0.6,1-1.3,1.8-2.3,2.4c-0.4,0.2-0.7,0.4-1.1,0.6c-0.1,0.4-0.2,0.7-0.4,1
		l-0.2,0.2c-0.5,0.7-1,1.5-2,2.3c-1.1,0.9-2.4,1.6-3.8,1.8c-0.7,1.1-1.7,2.1-2.9,2.7l-0.2,0.1c-0.9,0.4-1.8,0.7-2.7,0.9h-0.5
		c-0.2,0-0.2,0-0.5,0c-0.2,0.2-0.5,0.5-0.7,0.7c-0.9,0.7-1.8,1.2-2.8,1.5c-1.2,0.2-2.3,0.4-3.3,0.2c-0.2,0-0.5-0.1-0.9-0.2
		c-0.2,0.2-0.6,0.2-0.9,0.5c-1.1,0.5-2.2,0.9-3.4,0.9c-0.6,0-1.3,0-2.1-0.2l-0.5-0.2c-0.2-0.1-0.4-0.2-0.6-0.2
		c-0.7,0.4-1.5,0.6-2.1,0.7c-0.5,0.1-0.9,0-1.3,0c-0.2,0.2-0.6,0.6-1,0.9c-0.4,0.2-0.9,0.5-1.2,0.7c-0.1,0.4-0.2,0.9-0.5,1.2
		c-0.4,0.7-0.9,1.3-1.5,1.8v0.1v0.9c0,0.7-0.2,1.5-0.4,1.8l-0.1,0.2c-0.5,1.5-1.2,2.2-2,2.8c-0.2,0.2-0.6,0.5-0.9,0.7
		c0,0.2-0.1,0.5-0.2,0.9c-0.2,1.1-0.9,2.1-1.3,2.7l-0.2,0.2l-0.2,0.2c-0.2,0.2-0.4,0.5-0.9,0.9c-0.4,0.4-1,0.7-1.5,0.9
		c-0.2,0.1-0.4,0.2-0.6,0.2c-0.1,0.2-0.2,0.4-0.2,0.6l-0.1,0.2c-0.5,0.9-1.2,1.6-2,2.2c-1,0.9-2.2,1.5-3.6,1.7
		c-0.7,1.1-1.7,2.1-3.1,2.8c-0.9,0.5-2,0.9-2.9,0.9h-0.4c-0.2,0-0.5,0-0.7,0c-0.2,0.2-0.6,0.6-1,0.9c-0.2,0.2-0.5,0.2-0.9,0.4
		c-0.1,0-0.1,0-0.2,0.1l-0.2,0.2l-0.2,0.1c-0.2,0.1-0.4,0.1-0.6,0.2c-0.1,0-0.2,0.1-0.4,0.1l-0.2,0.1c-1.3,0.2-2.7,0.2-3.9-0.1
		c-1.2,0.9-2.6,1.2-3.9,1.2c-0.9,0-2-0.2-2.8-0.4c-0.2-0.1-0.5-0.2-0.9-0.2c-0.2,0.1-0.4,0.2-0.6,0.2c-1,0.2-2.1,0.4-3.3,0.2
		c-1.3-0.2-2.4-0.9-3.1-1.1l-0.2-0.2c-0.1-0.1-0.2-0.2-0.4-0.4c-1.2,0.2-2.7,0-4.2-0.6c-0.6-0.2-1.1-0.5-1.5-0.9l-0.2-0.2l-0.2-0.2
		c-0.2-0.2-0.4-0.4-0.5-0.6l-0.2-0.2c-0.9,0-1.5-0.1-2.2-0.2c-0.4-0.1-0.9-0.2-1.2-0.5c-0.4,0.2-0.9,0.2-1.2,0.4l-0.2,0.1
		c-0.4,0-0.9,0.1-1.2,0c-0.2,0.2-0.5,0.6-0.9,0.9c-0.6,0.4-1.2,0.9-2.1,1l0,0l-0.2,0.4c-0.1,0.2-0.2,0.4-0.2,0.6l-0.2,0.4l-0.4,0.4
		c-0.2,0.2-0.2,0.4-0.5,0.6c-0.9,0.9-1.8,1.5-2.4,1.7l-0.2,0.1c-0.4,0.2-0.9,0.4-1.3,0.4c-0.1,0.2-0.2,0.5-0.5,0.7
		c-0.9,0.9-1.6,1.6-2.4,2.1c-0.9,0.4-1.8,0.7-2.7,0.9h0.4c-0.2,0-0.2,0-0.5,0c-0.2,0.2-0.4,0.4-0.6,0.6c-0.9,0.7-1.7,1.1-2.7,1.5
		c-1.2,0.4-2.6,0.4-3.9,0.2c-1,0.7-2.3,1.2-3.7,1.5C170.3,124.5,170,124.5,169.5,124.5z"/>
	<path class="st1" d="M313.6,5.4c0.4-0.5,0.6-1.2,0.9-2c0.1-0.7,0.2-1.5,0.1-2.3c-0.1-0.9-0.2-1.5-0.7-2.1s-0.9-1.1-1.3-1.5
		c0.5-1.2,0.5-2.7,0-4.2c-0.2-0.7-0.7-1.3-1.1-1.8c-0.5-0.5-1-0.9-1.5-1.1c0.1-0.6,0.1-1.3,0-2.1c-0.1-0.7-0.4-1.5-0.9-2.1
		c-0.4-0.6-0.9-1.1-1.5-1.5s-1.1-0.6-1.7-0.7c-0.1-0.6-0.2-1.3-0.5-2.1c-0.4-0.6-0.9-1.2-1.5-1.7c-0.2-0.2-0.7-0.5-0.9-0.6
		c-0.2-0.1-0.5-0.2-0.9-0.2c-0.5-0.1-1-0.1-1.5,0c-0.1-0.6-0.2-1.1-0.4-1.5c-0.1-0.4-0.5-0.9-0.9-1.1c-0.7-0.6-1.5-0.6-2.3-0.6
		c0.2-0.9,0.4-1.7,0.1-2.7c-0.4-0.9-1.1-1.5-2-1.8c0.7-0.6,1.1-1.2,1.2-2.1c0-0.4,0-0.9-0.2-1.5c-0.2-0.5-0.4-0.9-0.7-1.5
		c0.5-0.2,0.9-0.6,1.1-1c0.2-0.2,0.2-0.4,0.4-0.7c0.1-0.2,0.2-0.7,0.2-1.1c0.1-0.9,0-1.5-0.1-2.2c-0.2-0.7-0.6-1.3-1-1.8
		c0.4-0.5,0.6-1,0.9-1.7c0.2-0.6,0.2-1.3,0.1-2.1c-0.1-0.7-0.4-1.5-0.9-2.1c-0.4-0.6-0.9-1.1-1.5-1.5c0.2-0.5,0.4-1.1,0.4-1.8
		s-0.1-1.3-0.4-2.1c-0.6-1.3-1.6-2.4-2.8-2.9c0.2-1.2,0.1-2.7-0.9-3.9c-0.4-0.6-1-1.2-1.5-1.6c-0.6-0.4-1.2-0.7-2-0.9
		c0-0.7-0.2-1.3-0.6-2c-0.2-0.6-0.9-1.2-1.5-1.7c-1.1-1-2.6-1.5-3.8-1.3c-0.4-1.2-1.3-2.3-2.6-3.1c-0.6-0.4-1.3-0.6-2-0.6
		c-0.6-0.1-1.3,0-1.8,0.2c-0.2-0.5-0.7-1.1-1.2-1.5s-1.1-0.9-1.8-1c-0.7-0.2-1.5-0.2-2.1-0.2c-0.7,0.1-1.2,0.2-1.8,0.6
		c-0.4-0.5-0.9-0.9-1.6-1.2c-0.6-0.2-1.3-0.5-2.1-0.5c-0.4,0-0.9,0-1.1,0.1s-0.5,0.2-0.7,0.2c-0.5,0.2-0.9,0.6-1.2,1
		c-0.9-0.9-1.7-1.3-2.6-1.5c-0.9-0.1-1.5,0.2-2.2,0.9c-0.2-0.9-0.6-1.6-1.5-2.1s-1.6-0.6-2.6-0.5c0.2-0.9,0.2-1.6-0.1-2.4
		c-0.4-0.7-1.2-1.5-2.2-1.8c0.2-0.5,0.4-1,0.4-1.5c0-0.2,0-0.5,0-0.9c-0.1-0.2-0.2-0.7-0.2-1c-0.2-0.7-0.7-1.3-1.2-1.8
		c-0.5-0.4-1.1-0.9-1.7-1c0.1-0.6,0-1.2-0.1-1.8c-0.2-0.6-0.5-1.2-0.9-1.8c-0.2-0.2-0.5-0.5-0.7-0.7s-0.5-0.4-0.9-0.5
		c-0.6-0.2-1.2-0.5-1.8-0.5c0-0.6-0.2-1.2-0.5-1.7c-0.2-0.6-0.7-1.1-1.3-1.5c-1.1-0.9-2.4-1.2-3.7-1.1c-0.2-1.1-1.1-2.2-2.4-3.1
		c-0.6-0.2-1.3-0.5-2.1-0.6c-0.7-0.1-1.5,0-2.1,0.2c-0.2-0.5-0.9-1-1.3-1.5c-0.2-0.2-0.6-0.4-0.9-0.5c-0.2-0.2-0.7-0.2-1-0.2
		c-1.5-0.2-2.8-0.1-3.9,0.6c-0.9-0.9-2.1-1.6-3.4-1.6c-0.7,0-1.5,0.1-2,0.2c-0.6,0.2-1.1,0.5-1.5,0.9c-0.5-0.4-1-0.7-1.7-0.9
		c-0.6-0.2-1.3-0.2-2.1-0.1c-0.7,0.1-1.3,0.2-2,0.7c-0.5,0.2-1,0.9-1.3,1.3c-0.6-0.2-1.2-0.4-2-0.4s-1.5,0.1-2.1,0.5
		c-0.2,0.2-0.7,0.4-0.9,0.5c-0.2,0.2-0.4,0.4-0.5,0.6c-0.2,0.4-0.6,0.9-0.7,1.5c-1-0.4-2.1-0.5-2.8-0.2c-0.9,0.2-1.2,0.9-1.7,1.6
		c-0.6-0.7-1.2-1.2-2.1-1.5c-0.9-0.2-1.7,0.1-2.6,0.6c-0.2-0.9-0.4-1.6-1-2.1s-1.6-0.9-2.7-0.7c0-0.5,0-1-0.2-1.5
		c-0.1-0.2-0.2-0.5-0.2-0.7c-0.2-0.2-0.4-0.6-0.7-0.9c-0.5-0.6-1.2-0.9-1.8-1.2c-0.6-0.2-1.3-0.2-2-0.2c-0.1-0.6-0.4-1.1-0.9-1.6
		c-0.4-0.5-0.9-0.9-1.5-1.3c-0.6-0.2-1.3-0.5-2-0.6c-0.6-0.1-1.3,0-1.8,0.2c-0.2-0.5-0.6-1-1.1-1.5c-0.5-0.4-1.1-0.7-1.7-0.9
		c-1.3-0.4-2.7-0.2-3.8,0.2c-0.7-0.9-2-1.6-3.3-1.8c-0.7-0.1-1.5,0-2.1,0.1c-0.7,0.2-1.3,0.5-1.7,0.9c-0.5-0.4-1.1-0.7-1.7-0.9
		c-0.6-0.2-1.5-0.2-2.1-0.1c-1.5,0.2-2.7,0.9-3.3,1.8c-1.1-0.5-2.4-0.7-3.8-0.2c-0.7,0.2-1.2,0.5-1.7,0.9s-0.9,0.9-1.1,1.5
		c-0.6-0.2-1.2-0.2-1.8-0.2c-0.6,0.1-1.3,0.2-2,0.6c-0.6,0.2-1.1,0.9-1.5,1.3c-0.4,0.5-0.7,1.1-0.9,1.6c-0.6,0-1.3,0-2,0.2
		c-0.6,0.2-1.3,0.6-1.8,1.2c-0.2,0.2-0.5,0.6-0.7,0.9c-0.1,0.2-0.2,0.5-0.2,0.7c-0.2,0.5-0.2,1-0.2,1.5c-1.1,0-2.1,0.2-2.7,0.7
		c-0.7,0.5-0.9,1.2-1,2.1c-0.9-0.5-1.6-0.7-2.6-0.6c-0.9,0.2-1.6,0.7-2.1,1.5c-0.5-0.9-0.9-1.5-1.7-1.6c-0.9-0.2-1.8-0.2-2.8,0.2
		c-0.2-0.5-0.4-1-0.7-1.5c-0.2-0.2-0.2-0.4-0.5-0.6c-0.2-0.2-0.6-0.4-0.9-0.5c-0.7-0.2-1.5-0.5-2.1-0.5c-0.7,0-1.3,0.2-2,0.4
		c-0.2-0.5-0.9-0.9-1.3-1.3c-0.5-0.2-1.2-0.6-2-0.7c-0.7-0.1-1.5-0.1-2.1,0.1s-1.2,0.5-1.7,0.9c-0.4-0.4-0.9-0.7-1.5-0.9
		c-0.6-0.2-1.3-0.2-2-0.2c-1.5,0-2.7,0.7-3.4,1.6c-1-0.6-2.3-0.9-3.9-0.6c-0.2,0.1-0.7,0.2-1,0.2c-0.2,0.2-0.6,0.2-0.9,0.5
		c-0.6,0.4-1,0.9-1.3,1.5c-0.6-0.2-1.3-0.2-2.1-0.2c-0.7,0.1-1.5,0.2-2.1,0.6c-1.3,0.7-2.1,1.8-2.4,3.1c-1.2-0.1-2.7,0.2-3.7,1.1
		c-0.5,0.4-1,1-1.3,1.5c-0.2,0.6-0.5,1.2-0.5,1.7c-0.6,0-1.2,0.2-1.8,0.5c-0.2,0.1-0.6,0.2-0.9,0.5c-0.2,0.2-0.5,0.5-0.7,0.7
		c-0.4,0.6-0.9,1.2-0.9,1.8c-0.2,0.6-0.2,1.2-0.1,1.8c-0.6,0.2-1.2,0.5-1.7,1s-0.9,1-1.2,1.8c-0.1,0.2-0.2,0.7-0.2,1
		c0,0.2,0,0.5,0,0.9c0,0.5,0.2,1,0.4,1.5c-1,0.4-1.8,1-2.2,1.8c-0.4,0.7-0.2,1.5-0.1,2.4c-0.9-0.1-1.7-0.1-2.6,0.5
		c-0.9,0.5-1.2,1.2-1.5,2.1c-0.7-0.5-1.3-0.9-2.2-0.9c-0.9,0.1-1.7,0.6-2.6,1.5c-0.4-0.4-0.9-0.7-1.2-1C69.3-72.9,69-73,68.8-73
		c0,0-0.5,0-0.8,0c-0.9,0-1.5,0.2-2.1,0.5c-0.6,0.2-1.1,0.7-1.6,1.2c-0.5-0.2-1.1-0.5-1.8-0.6c-0.6-0.1-1.3,0-2.1,0.2
		c-0.7,0.2-1.3,0.6-1.8,1s-0.9,0.9-1.2,1.5c-0.5-0.2-1.1-0.2-1.7-0.2c-0.6,0.1-1.3,0.2-2,0.6c-1.2,0.7-2.1,2-2.6,3.1
		c-1.2-0.1-2.6,0.2-3.8,1.3c-0.6,0.5-1,1.1-1.5,1.7c-0.2,0.6-0.6,1.3-0.6,2c-0.6,0.1-1.3,0.4-2,0.9c-0.6,0.4-1.1,0.9-1.5,1.6
		c-0.9,1.2-1.1,2.7-0.9,3.9c-1.1,0.5-2.2,1.6-2.8,2.9c-0.2,0.7-0.4,1.5-0.4,2.1c0,0.7,0.2,1.3,0.4,1.8c-0.5,0.4-1,0.9-1.5,1.5
		c-0.4,0.6-0.6,1.3-0.9,2.1c-0.1,0.7-0.1,1.5,0.1,2.1c0.2,0.6,0.4,1.2,0.9,1.7c-0.4,0.5-0.9,1.1-1,1.8c-0.2,0.7-0.2,1.5-0.1,2.2
		c0.1,0.4,0.1,0.9,0.2,1.1c0.1,0.2,0.2,0.5,0.4,0.7c0.2,0.4,0.7,0.9,1.1,1c-0.2,0.4-0.6,0.9-0.7,1.5c-0.1,0.5-0.2,0.9-0.2,1.5
		c0.1,0.9,0.5,1.5,1.2,2.1c-0.9,0.4-1.5,0.9-2,1.8c-0.4,0.9-0.2,1.8,0.1,2.7c-0.9,0-1.6,0.1-2.3,0.6c-0.2,0.2-0.6,0.7-0.9,1.1
		c-0.2,0.4-0.4,1-0.4,1.5c-0.5-0.1-1-0.1-1.5,0c-0.2,0-0.5,0.1-0.9,0.2c-0.2,0.1-0.6,0.4-0.9,0.6c-0.6,0.5-1.1,1.1-1.5,1.7
		s-0.5,1.3-0.5,2.1c-0.6,0.1-1.2,0.2-1.7,0.7c-0.6,0.4-1.1,0.9-1.5,1.5s-0.7,1.3-0.9,2.1c-0.1,0.7-0.1,1.5,0,2.1
		c-0.4,0.1-1,0.5-1.5,1C20.7-8,20.2-7.4,20-6.7c-0.5,1.5-0.4,2.9,0,4.2c-0.5,0.4-0.9,0.9-1.3,1.5s-0.2,1.3-0.3,2s-0.1,1.6,0.1,2.3
		s0.5,1.6,0.9,2.1c-0.4,0.5-0.6,1.2-0.9,2c-0.1,0.7-0.2,1.5-0.1,2.3c0.1,0.9,0.2,1.5,0.7,2.1c0.5,0.6,0.9,1.1,1.3,1.5
		c-0.5,1.2-0.5,2.7,0,4.2c0.2,0.7,0.7,1.3,1.1,1.8c0.5,0.5,1,0.9,1.5,1.1c-0.1,0.6-0.1,1.3,0,2.1s0.4,1.5,0.9,2.1
		c0.4,0.6,0.9,1.1,1.5,1.5s1.1,0.6,1.7,0.7c0.1,0.6,0.2,1.3,0.5,2.1c0.4,0.6,0.9,1.2,1.5,1.7c0.2,0.2,0.7,0.5,0.9,0.6
		c0.2,0.1,0.5,0.2,0.9,0.2c0.5,0.1,1,0.1,1.5,0c0.1,0.6,0.2,1.1,0.4,1.5c0.2,0.4,0.5,0.9,0.9,1.1c0.7,0.6,1.5,0.6,2.3,0.6
		c-0.2,0.9-0.4,1.7-0.1,2.7c0.4,0.9,1.1,1.5,2,1.8c-0.7,0.6-1.1,1.2-1.2,2.1c0,0.4,0,0.9,0.2,1.5s0.4,0.9,0.7,1.5
		c-0.4,0.2-0.9,0.6-1.1,1c-0.2,0.2-0.2,0.4-0.4,0.7c-0.1,0.2-0.2,0.7-0.2,1.1c-0.1,0.9,0,1.5,0.1,2.2c0.2,0.7,0.6,1.3,1,1.8
		c-0.4,0.5-0.6,1-0.9,1.7c-0.2,0.6-0.2,1.3-0.1,2.1s0.4,1.5,0.9,2.1c0.4,0.6,0.9,1.1,1.5,1.5c-0.2,0.5-0.4,1.1-0.4,1.8
		s0.1,1.3,0.4,2.1c0.6,1.3,1.6,2.4,2.8,2.9c-0.2,1.2-0.1,2.7,0.9,3.9c0.4,0.6,1,1.2,1.5,1.6c0.6,0.4,1.2,0.7,2,0.9
		c0,0.7,0.2,1.3,0.6,2c0.2,0.6,0.9,1.2,1.5,1.7c1.1,1,2.6,1.5,3.8,1.3c0.4,1.2,1.3,2.3,2.6,3.1c0.6,0.4,1.3,0.6,2,0.6
		c0.6,0.1,1.3,0,1.8-0.2c0.2,0.5,0.7,1.1,1.2,1.5s1.1,0.9,1.8,1c0.7,0.2,1.5,0.2,2.1,0.2c0.7-0.1,1.2-0.2,1.8-0.6
		c0.4,0.5,0.9,0.9,1.6,1.2c0.6,0.2,1.3,0.5,2.1,0.5c0.4,0,0.9,0,1.1-0.1s0.5-0.2,0.7-0.2c0.5-0.2,0.9-0.6,1.2-1
		c0.9,0.9,1.7,1.3,2.6,1.5s1.5-0.2,2.2-0.9c0.2,0.9,0.6,1.6,1.5,2.1s1.6,0.6,2.6,0.5c-0.2,0.9-0.2,1.6,0.1,2.4
		c0.4,0.7,1.2,1.5,2.2,1.8c-0.2,0.5-0.4,1-0.4,1.5c0,0.2,0,0.5,0,0.9c0.1,0.2,0.2,0.7,0.2,1c0.2,0.7,0.7,1.3,1.2,1.8
		c0.5,0.4,1.1,0.9,1.7,1c-0.1,0.6,0,1.2,0.1,1.8c0.2,0.6,0.5,1.2,0.9,1.8c0.2,0.2,0.5,0.5,0.7,0.7s0.5,0.4,0.9,0.5
		c0.6,0.2,1.2,0.5,1.8,0.5c0,0.6,0.2,1.2,0.5,1.7c0.2,0.6,0.7,1.1,1.3,1.5c1.1,0.9,2.4,1.2,3.7,1.1c0.2,1.1,1.1,2.2,2.4,3.1
		c0.6,0.2,1.3,0.5,2.1,0.6c0.7,0.1,1.5,0,2.1-0.2c0.2,0.5,0.9,1,1.3,1.5c0.2,0.2,0.6,0.4,0.9,0.5c0.2,0.2,0.7,0.2,1,0.2
		c1.5,0.2,2.8,0.1,3.9-0.6c0.9,0.9,2.1,1.6,3.4,1.6c0.7,0,1.5-0.1,2-0.2c0.6-0.2,1.1-0.5,1.5-0.9c0.5,0.4,1,0.7,1.7,0.9
		c0.6,0.2,1.3,0.2,2.1,0.1c0.7-0.1,1.3-0.2,2-0.7c0.5-0.2,1-0.9,1.3-1.3c0.6,0.2,1.2,0.4,2,0.4s1.5-0.1,2.1-0.5
		c0.2-0.2,0.7-0.4,0.9-0.5c0.2-0.2,0.4-0.4,0.5-0.6c0.2-0.4,0.6-0.9,0.7-1.5c1,0.4,2.1,0.5,2.8,0.2c0.9-0.2,1.2-0.9,1.7-1.6
		c0.6,0.7,1.2,1.2,2.1,1.5c0.9,0.2,1.7-0.1,2.6-0.6c0.2,0.9,0.4,1.6,1,2.1s1.6,0.9,2.7,0.7c0,0.5,0,1,0.2,1.5
		c0.1,0.2,0.2,0.5,0.2,0.7c0.2,0.2,0.4,0.6,0.7,0.9c0.5,0.6,1.2,0.9,1.8,1.2c0.6,0.2,1.3,0.2,2,0.2c0.1,0.6,0.4,1.1,0.9,1.6
		c0.4,0.5,0.9,0.9,1.5,1.3c0.6,0.2,1.3,0.5,2,0.6c0.6,0.1,1.3,0,1.8-0.2c0.2,0.5,0.6,1,1.1,1.5s1.1,0.7,1.7,0.9
		c1.3,0.4,2.7,0.2,3.8-0.2c0.7,0.9,2,1.6,3.3,1.8c0.7,0.1,1.5,0,2.1-0.1c0.7-0.2,1.3-0.5,1.7-0.9c0.5,0.4,1.1,0.7,1.7,0.9
		c0.6,0.2,1.5,0.2,2.1,0.1c1.5-0.2,2.7-0.9,3.3-1.8c1.1,0.5,2.4,0.7,3.8,0.2c0.7-0.2,1.2-0.5,1.7-0.9s0.9-0.9,1.1-1.5
		c0.6,0.2,1.2,0.2,1.8,0.2c0.6-0.1,1.3-0.2,2-0.6c0.6-0.2,1.1-0.9,1.5-1.3c0.4-0.5,0.7-1.1,0.9-1.6c0.6,0,1.3,0,2-0.2
		c0.6-0.2,1.3-0.6,1.8-1.2c0.2-0.2,0.5-0.6,0.7-0.9c0.1-0.2,0.2-0.5,0.2-0.7c0.2-0.5,0.2-1,0.2-1.5c1.1,0,2.1-0.2,2.7-0.7
		c0.7-0.5,0.9-1.2,1-2.1c0.9,0.5,1.6,0.7,2.6,0.6c0.9-0.2,1.6-0.7,2.1-1.5c0.5,0.9,0.9,1.5,1.7,1.6c0.9,0.2,1.8,0.2,2.8-0.2
		c0.2,0.5,0.4,1,0.7,1.5c0.2,0.2,0.2,0.4,0.5,0.6c0.2,0.2,0.6,0.4,0.9,0.5c0.7,0.2,1.5,0.5,2.1,0.5c0.7,0,1.3-0.2,2-0.4
		c0.2,0.5,0.9,0.9,1.3,1.3c0.5,0.2,1.2,0.6,2,0.7c0.7,0.1,1.5,0.1,2.1-0.1s1.2-0.5,1.7-0.9c0.4,0.4,0.9,0.7,1.5,0.9
		c0.6,0.1,1.3,0.2,2,0.2c1.5,0,2.7-0.7,3.4-1.6c1,0.6,2.3,0.9,3.9,0.6c0.2-0.1,0.7-0.2,1-0.2c0.2-0.2,0.6-0.2,0.9-0.5
		c0.6-0.4,1-0.9,1.3-1.5c0.6,0.2,1.3,0.2,2.1,0.2c0.7-0.1,1.5-0.2,2.1-0.6c1.3-0.7,2.1-1.8,2.4-3.1c1.2,0.1,2.7-0.2,3.7-1.1
		c0.5-0.4,1-1,1.3-1.5c0.2-0.6,0.5-1.2,0.5-1.7c0.6,0,1.2-0.2,1.8-0.5c0.2-0.1,0.6-0.2,0.9-0.5s0.5-0.5,0.7-0.7
		c0.4-0.6,0.9-1.2,0.9-1.8c0.2-0.6,0.2-1.2,0.1-1.8c0.6-0.2,1.2-0.5,1.7-1s0.9-1,1.2-1.8c0.1-0.2,0.2-0.7,0.2-1s0-0.5,0-0.9
		c0-0.5-0.2-1-0.4-1.5c1-0.4,1.8-1,2.2-1.8c0.4-0.7,0.2-1.5,0.1-2.4c0.9,0.1,1.7,0.1,2.6-0.5c0.9-0.5,1.2-1.2,1.5-2.1
		c0.7,0.5,1.3,0.9,2.2,0.9c0.9-0.1,1.7-0.6,2.6-1.5c0.4,0.4,0.9,0.7,1.2,1c0.2,0.1,0.5,0.2,0.7,0.2c0.2,0.1,0.7,0.1,1.1,0.1
		c0.9,0,1.5-0.2,2.1-0.5c0.6-0.2,1.1-0.7,1.6-1.2c0.5,0.2,1.1,0.5,1.8,0.6c0.6,0.1,1.3,0,2.1-0.2c0.7-0.2,1.3-0.6,1.8-1
		s0.9-0.9,1.2-1.5c0.6,0.2,1.2,0.2,1.8,0.2c0.6-0.1,1.3-0.2,2-0.6c1.2-0.7,2.1-2,2.6-3.1c1.2,0.1,2.6-0.2,3.8-1.3
		c0.6-0.5,1-1.1,1.5-1.7c0.2-0.6,0.6-1.3,0.6-2c0.6-0.1,1.3-0.4,2-0.9c0.6-0.4,1.1-0.9,1.5-1.6c0.9-1.2,1.1-2.7,0.9-3.9
		c1.1-0.5,2.2-1.6,2.8-2.9c0.2-0.7,0.4-1.5,0.4-2.1c0-0.7-0.2-1.3-0.4-1.8c0.5-0.4,1-0.9,1.5-1.5c0.4-0.6,0.6-1.3,0.9-2.1
		c0.1-0.7,0.1-1.5-0.1-2.1s-0.4-1.2-0.9-1.7c0.4-0.5,0.9-1.1,1-1.8c0.2-0.7,0.2-1.5,0.1-2.2c-0.1-0.4-0.1-0.9-0.2-1.1
		c-0.1-0.2-0.2-0.5-0.4-0.7c-0.2-0.4-0.7-0.9-1.1-1c0.2-0.4,0.6-0.9,0.7-1.5c0.1-0.5,0.2-0.9,0.2-1.5c-0.1-0.9-0.5-1.5-1.2-2.1
		c0.9-0.4,1.5-0.9,2-1.8c0.4-0.9,0.2-1.8-0.1-2.7c0.9,0,1.6-0.1,2.3-0.6c0.2-0.2,0.6-0.7,0.9-1.1c0.2-0.4,0.4-1,0.4-1.5
		c0.5,0.1,1,0.1,1.5,0c0.2,0,0.5-0.1,0.9-0.2s0.6-0.4,0.9-0.6c0.6-0.5,1.1-1.1,1.5-1.7s0.5-1.3,0.5-2.1c0.6-0.1,1.2-0.2,1.7-0.7
		c0.6-0.4,1.1-0.9,1.5-1.5s0.7-1.3,0.9-2.1c0.1-0.7,0.1-1.5,0-2.1c0.5-0.2,1.1-0.6,1.5-1.1s0.9-1.1,1.1-1.8c0.5-1.5,0.4-2.9,0-4.2
		c0.5-0.4,0.9-0.9,1.3-1.5s0.6-1.3,0.7-2.1c0.1-0.9,0.1-1.6-0.1-2.3C314.5,6.6,314.1,6,313.6,5.4z M311,0.4c0.4,0.2,0.6,0.7,0.7,1.2
		s-0.1,1-0.2,1.5c-0.2,0.4-0.7,0.6-1.1,0.7c-0.5,0-0.9-0.1-1.2-0.4c-0.2-0.2-0.6-0.7-0.6-1.1c-0.1-0.5,0.1-0.9,0.2-1.3
		c0.1-0.5,0.6-0.7,1.1-0.9C310.2,0,310.6,0.1,311,0.4z M307.6-6.4c0.4-0.2,0.9-0.2,1.3-0.1c0.4,0.2,0.7,0.5,0.9,1
		c0.2,0.5,0.1,1,0,1.5c-0.2,0.4-0.5,0.9-1,0.9c-0.4,0.2-0.9,0.1-1.3-0.1s-0.7-0.5-0.9-1c-0.2-0.4-0.1-0.9,0-1.3
		C307-5.7,307.4-6.2,307.6-6.4z M303.8-11c0.1-0.4,0.2-0.9,0.6-1.2c0.4-0.2,0.9-0.4,1.2-0.4c0.4,0.1,0.9,0.2,1.1,0.7
		c0.2,0.4,0.2,0.9,0.2,1.5c-0.1,0.5-0.2,0.9-0.7,1.1C305.9-9,305.4-9,304.9-9c-0.4-0.1-0.9-0.2-1-0.7C303.8-10,303.6-10.5,303.8-11z
		 M299.7-16.5c0.2-0.4,0.6-0.6,1-0.7s0.9,0,1.3,0.2s0.6,0.9,0.7,1.2c0,0.5-0.1,0.9-0.4,1.3c-0.2,0.4-0.7,0.5-1.1,0.6
		c-0.4,0-0.9-0.1-1.1-0.2c-0.2-0.2-0.5-0.6-0.6-1.1C299.4-15.8,299.4-16.2,299.7-16.5z M294.9-20.6c0.2-0.2,0.9-0.5,1.2-0.5
		c0.4,0,0.9,0.1,1.1,0.2c0.2,0.2,0.5,0.7,0.5,1.1s-0.1,0.9-0.4,1.2c-0.2,0.4-0.7,0.6-1.1,0.6s-0.9-0.1-1.2-0.4s-0.5-0.9-0.5-1.2
		C294.4-19.8,294.6-20.2,294.9-20.6z M290.2,40.3c0.2-0.2,0.7-0.5,1.2-0.5s0.9,0.2,1.2,0.5c0.4,0.2,0.5,0.6,0.5,1s-0.1,0.9-0.4,1.1
		S292,43,291.6,43c-0.5,0.1-0.9-0.1-1.2-0.2c-0.2-0.2-0.6-0.7-0.6-1.2C289.9,41.2,289.9,40.7,290.2,40.3z M288,22.1
		c-0.9,0.5-1.8,0.6-2.2,0.1s-0.4-1.2-0.2-2.2c0-0.5,0.1-1,0.2-1.5c0-0.6,0.1-1.1,0.1-1.8c0.1-1.2,0.2-2.2,0.2-2.7
		c0.1-0.6,0.4-0.7,0.9-0.2c0.1,0.1,0.4,0.4,0.7,0.9c0.2,0.5,0.7,1.1,1.1,1.8c0.4,0.7,0.7,1.5,0.9,2.1c0.1,0.2,0.2,0.6,0.2,0.9
		c0,0.2,0,0.5,0,0.7C289.7,20.8,288.9,21.6,288,22.1z M289.4,13.5c-0.9-1.3-1.3-2.6-1.3-3.6c-0.2-2,0.2-2.2,1.7-1.5
		c0.2,0.2,2.1,0.9,3.8,2c1.5,1,2.9,2.4,2.7,3.7c-0.2,0.6-0.2,1.2-0.6,1.6c-0.2,0.5-0.5,0.9-0.9,1.2c-0.6,0.6-1.5,0.6-2.6-0.1
		C291.1,16.1,290.2,14.8,289.4,13.5z M270.5,52.3c0-0.2,0-0.4,0.2-0.6c0.2-0.2,0.4-0.5,0.9-0.9c0.7-0.7,2.1-1.3,3.4-1.7
		c0.4-0.1,0.7-0.2,1.1-0.2c0.4-0.1,0.7-0.1,1.1-0.2c0.7-0.1,1.5-0.1,2.1,0c1.3,0.2,1.8,0.9,2,1.6c0.1,0.9-0.2,2-0.9,3.1
		c-0.6,1.1-2.7,1.2-4.5,0.9c-0.9-0.1-2-0.4-2.7-0.6s-1.3-0.4-1.5-0.4C271,52.9,270.5,52.7,270.5,52.3z M272.8,46.4
		c0.2-0.5,0.9-1.3,1.7-2.3c0.4-0.5,0.9-1,1.1-1.5s0.6-0.9,1-1.3c0.6-0.7,1.2-1.3,1.8-1.3c0.6-0.1,1.2,0.7,1.5,1.6
		c0.2,1,0.4,2.1,0,2.8s-2.1,1.5-3.4,2c-1.5,0.5-2.9,0.9-3.3,0.9C272.6,47.3,272.6,46.9,272.8,46.4z M278.7,33
		c-0.9,0-0.9-1.7-0.1-3.3c0.6-1.6,2-2.8,2.4-2.3c0.5,0.6,0.9,2.6,0.5,3.6C281.2,31.8,279.3,33,278.7,33z M271.7-42.2
		c0.2-0.1,0.7-0.2,1.5-0.4c0.7-0.2,1.7-0.4,2.7-0.6c2-0.2,3.9-0.2,4.5,0.9c0.6,1.1,1,2.2,0.9,3.1c-0.1,0.9-0.6,1.5-2,1.6
		c-0.6,0.1-1.3,0.1-2.1,0c-0.4,0-0.7-0.1-1.1-0.2c-0.4-0.1-0.7-0.2-1.1-0.2c-1.5-0.4-2.7-1-3.4-1.7c-0.2-0.4-0.6-0.6-0.9-0.9
		c-0.2-0.2-0.2-0.5-0.2-0.6C270.5-41.7,271-42.1,271.7-42.2z M273.1-36.4c0.2,0,1.7,0.2,3.3,0.9c1.5,0.5,3.2,1.2,3.4,2
		c0.4,0.7,0.2,1.8,0,2.8s-0.9,1.7-1.5,1.6s-1.2-0.6-1.8-1.3c-0.2-0.4-0.6-0.9-1-1.3s-0.7-0.9-1.1-1.5c-0.9-1-1.5-1.7-1.7-2.3
		C272.6-36.1,272.6-36.4,273.1-36.4z M278.7-22.2c0.9,0,2.4,1.2,2.8,2.1c0.2,1,0,2.9-0.5,3.6c-0.5,0.6-1.8-0.6-2.4-2.3
		C277.9-20.4,277.9-22.2,278.7-22.2z M289.9-9.3c0,0.2,0,0.4,0,0.7c-0.1,0.2-0.1,0.6-0.2,0.9c-0.2,0.7-0.6,1.5-0.9,2.1
		c-0.4,0.7-0.9,1.3-1.1,1.8s-0.6,0.9-0.7,0.9c-0.4,0.4-0.7,0.2-0.9-0.2c-0.1-0.6-0.2-1.5-0.2-2.7c0-0.6-0.1-1.2-0.1-1.8
		c-0.1-0.5-0.1-1.1-0.2-1.5c-0.1-0.9,0-1.7,0.2-2.2c0.4-0.5,1.3-0.2,2.2,0.1C288.9-10.8,289.7-9.9,289.9-9.3z M289.9-30.8
		c0-0.5,0.2-0.9,0.6-1.2c0.2-0.2,0.9-0.4,1.2-0.2c0.5,0.1,0.9,0.2,1.1,0.6c0.2,0.2,0.4,0.7,0.4,1.1s-0.2,0.7-0.5,1
		c-0.2,0.2-0.7,0.5-1.2,0.5s-0.9-0.1-1.2-0.5C289.9-29.9,289.9-30.2,289.9-30.8z M288,0.9c0-0.9,0.5-2.2,1.3-3.6s1.7-2.6,2.8-3.3
		s2-0.7,2.6-0.1c0.2,0.2,0.6,0.7,0.9,1.2s0.4,1,0.6,1.6c0.2,1.2-1.1,2.7-2.7,3.7s-3.4,1.8-3.8,2C288.4,3.1,287.8,2.7,288,0.9z
		 M294.1-23.7c-0.2,0.4-0.4,0.7-0.9,0.9c-0.4,0.2-0.9,0.2-1.3,0.1s-0.9-0.7-1-1.1c-0.2-0.4-0.2-1.1-0.1-1.5s0.5-0.7,1-0.9
		c0.4-0.1,0.9-0.1,1.3,0.1s0.7,0.6,0.9,1C294.3-24.8,294.3-24.2,294.1-23.7z M294.1-36.6c-0.1,0.5-0.2,0.9-0.7,1.1
		c-0.4,0.2-0.9,0.2-1.3,0.2c-0.5-0.1-0.9-0.4-1.1-0.7c-0.2-0.4-0.4-0.9-0.4-1.2c0.1-0.4,0.2-0.9,0.6-1c0.2-0.2,0.9-0.4,1.2-0.4
		c0.5,0,0.9,0.2,1.2,0.6C293.9-37.6,294.1-37.1,294.1-36.6z M293.2-44.7c0.4,0.2,0.7,0.7,0.9,1.2c0.1,0.5-0.1,1-0.2,1.3
		c-0.2,0.2-0.7,0.6-1.1,0.6c-0.5,0-0.9-0.1-1.3-0.4c-0.4-0.2-0.6-0.6-0.7-1.1c-0.1-0.4,0-0.9,0.2-1.2c0.2-0.2,0.6-0.6,1.1-0.7
		C292.3-45,292.6-44.9,293.2-44.7z M289.5-51.2c0.4-0.2,0.9-0.2,1.3,0s0.9,0.5,1,1c0.2,0.5,0.2,0.9,0,1.5c-0.2,0.4-0.5,0.7-1,0.9
		c-0.5,0.1-0.9,0.1-1.3-0.1c-0.4-0.2-0.7-0.5-0.9-0.9c-0.2-0.4-0.2-0.9,0-1.3C288.9-50.6,289-51,289.5-51.2z M288.5-56.4
		c0.2,0.4,0.4,0.9,0.2,1.5c-0.1,0.4-0.4,0.9-0.9,1s-0.9,0.2-1.3,0.2c-0.4-0.1-0.9-0.2-1.1-0.7c-0.2-0.4-0.2-0.9-0.2-1.2
		c0.1-0.4,0.2-0.9,0.7-1.1c0.4-0.2,0.9-0.4,1.3-0.2C287.8-57.2,288.3-56.8,288.5-56.4z M281.2-61.7c0.2-0.4,0.7-0.6,1.1-0.6
		s0.9,0.1,1.3,0.5c0.4,0.2,0.6,0.9,0.7,1.3c0,0.5-0.1,0.9-0.4,1.2s-0.9,0.5-1.2,0.5c-0.4,0-0.9-0.1-1.2-0.4
		c-0.2-0.2-0.5-0.7-0.6-1.1C280.9-60.7,280.9-61.3,281.2-61.7z M275.7-65.1c0.2-0.4,0.5-0.7,1-0.9c0.4-0.1,0.9-0.1,1.3,0.2
		c0.4,0.2,0.7,0.6,0.9,1.1c0.1,0.4,0.1,0.9-0.2,1.3c-0.2,0.4-0.6,0.7-1,0.9c-0.4,0.1-0.9,0.1-1.2-0.2c-0.4-0.2-0.7-0.6-0.9-1
		C275.5-64.3,275.5-64.8,275.7-65.1z M276-50.6C276-50.4,276.1-50.4,276-50.6l0.2,0.2c2,2.3,1.2,3.7-0.2,4.4
		c-1.5,0.7-3.4,0.9-4.4,0.9c-0.4,0-0.7-0.2-0.9-0.6c-0.1-0.1-0.2-0.2-0.2-0.5c-0.1-0.2-0.1-0.4-0.1-0.6c0-0.9,0.5-2.9,1.3-4.2
		C272.6-52.2,273.9-52.6,276-50.6z M269.8-67.5c0.1-0.5,0.4-0.9,0.7-1c0.4-0.2,0.9-0.2,1.3-0.1c0.5,0.2,0.9,0.5,1,0.9
		c0.2,0.4,0.2,0.9,0.1,1.3c-0.2,0.4-0.5,0.9-0.9,1c-0.4,0.2-0.9,0.2-1.2,0.1c-0.4-0.1-0.7-0.4-0.9-0.9
		C269.8-66.6,269.5-67,269.8-67.5z M268.7-55.3c0.5,0.4,0.7,1,0.9,1.8c0,0.4,0,0.9-0.1,1.3c-0.1,0.4-0.2,0.9-0.2,1.5
		c-0.5,1.8-1.5,3.6-1.5,3.9c-0.6,1.5-1.2,1.5-2.4-0.1c-0.2-0.4-0.6-0.9-0.9-1.6c-0.2-0.6-0.4-1.3-0.5-2.1c-0.2-1.5-0.2-3.2,0.1-4.4
		s1-1.7,2-1.6C266.7-56.7,267.7-56.1,268.7-55.3z M263.8-69.3c0.2-0.2,0.7-0.5,1.2-0.5s0.9,0.2,1.2,0.6c0.2,0.2,0.5,0.9,0.4,1.2
		c0,0.5-0.2,0.9-0.6,1.2c-0.2,0.2-0.7,0.4-1.1,0.4s-0.9-0.2-1.1-0.5c-0.2-0.2-0.5-0.7-0.5-1.2S263.7-69,263.8-69.3z M257.3-68.6
		c0.1-0.5,0.4-0.9,0.7-1.1c0.2-0.2,0.7-0.4,1.1-0.2c0.4,0,0.9,0.2,1,0.6c0.2,0.2,0.4,0.7,0.4,1.2s-0.2,0.9-0.5,1.2
		c-0.2,0.2-0.9,0.5-1.3,0.4c-0.5,0-0.9-0.2-1.2-0.6C257.3-67.6,257.3-67.9,257.3-68.6z M257.3-56.7c1-0.2,2.2-0.1,2.8,0.5
		c0.6,0.5,1.1,2.1,1.5,3.8c0.1,0.4,0.2,0.9,0.2,1.1c0,0.4,0.1,0.7,0.1,1c0.1,0.6,0.1,1,0.1,1.2c0,0.6-0.2,0.6-0.9,0.2
		c-0.2-0.2-0.5-0.5-0.9-0.9c-0.2-0.2-0.9-0.7-1.2-1.2c-0.9-0.9-1.7-1.8-2.4-2.6c-0.7-0.7-1.1-1.5-1.1-2.1
		C255.5-56.1,256.3-56.6,257.3-56.7z M251.7-71.5c0.2-0.4,0.7-0.6,1.1-0.6c0.4-0.1,0.9,0.1,1.3,0.2c0.2,0.2,0.7,0.7,0.9,1.1
		c0.1,0.4,0,0.9-0.2,1.3s-0.6,0.7-1,0.9c-0.4,0.1-1.1-0.1-1.5-0.2c-0.4-0.2-0.9-0.9-0.9-1.3C251.3-70.6,251.3-71,251.7-71.5z
		 M249.3-76.4c0.4,0.1,0.7,0.4,0.9,0.7c0.2,0.4,0.2,0.7,0.1,1.1c-0.1,0.4-0.4,0.9-0.7,1c-0.4,0.2-0.9,0.4-1.3,0.2
		c-0.4-0.1-0.9-0.4-1.1-0.9c-0.2-0.4-0.2-0.9-0.1-1.3c0.1-0.4,0.4-0.9,0.9-0.9C248.6-76.5,249-76.5,249.3-76.4z M248.2-57.2
		c0,0.4-0.5,0.5-1.2,0.4c-0.6-0.1-1.5-0.4-2.3-1c-1.5-1-2.7-2.7-2-3.1c0.7-0.4,2.7-0.2,3.7,0.2c0.4,0.2,0.9,0.9,1.2,1.5
		C248.1-58.3,248.2-57.5,248.2-57.2z M245.5-82c0.4-0.2,0.9-0.2,1.3-0.1c0.4,0.1,0.9,0.4,1,0.9c0.2,0.5,0.2,0.9,0,1.3
		s-0.5,0.7-1,0.9c-0.4,0.2-0.9,0.2-1.3,0c-0.4-0.2-0.7-0.4-0.9-0.9c-0.2-0.4-0.2-0.9,0-1.2C244.9-81.4,245.3-81.8,245.5-82z
		 M241.9-87c0.4-0.2,0.9-0.5,1.2-0.4c0.4,0,0.9,0.2,1.2,0.6c0.4,0.4,0.4,0.9,0.4,1.3c-0.1,0.4-0.2,0.9-0.7,1.1
		c-0.4,0.2-0.9,0.2-1.3,0.2c-0.4,0-0.9-0.2-1.1-0.5c-0.2-0.2-0.4-0.7-0.4-1.2C241.4-86.3,241.5-86.7,241.9-87z M237.1-91.3
		c0.2-0.4,0.7-0.6,1.1-0.6s0.9,0.1,1.3,0.4c0.4,0.2,0.6,0.7,0.6,1.2c0,0.4-0.1,0.9-0.4,1.2c-0.2,0.2-0.7,0.5-1.2,0.5
		c-0.4,0-0.9-0.1-1.2-0.2c-0.4-0.2-0.5-0.7-0.6-1.1C236.6-90.5,236.8-90.8,237.1-91.3z M237.3-71.4c1.5,0.9,2.2,4.2,1.1,4.7
		c-0.6,0.2-1.3,0-2.3-0.2c-0.5-0.2-1-0.4-1.5-0.6c-0.6-0.2-1.2-0.4-1.8-0.7c-1.2-0.5-2.2-0.9-2.7-1.2c-0.5-0.2-0.6-0.6-0.1-0.9
		c0.2-0.1,1.7-0.5,3.3-0.9C234.9-71.5,236.6-71.7,237.3-71.4z M231.5-94.6c0.2-0.4,0.5-0.7,1-0.9c0.4-0.1,0.9-0.1,1.5,0.1
		c0.4,0.2,0.7,0.6,0.9,1.1c0.1,0.4,0.1,0.9-0.2,1.3c-0.2,0.4-0.6,0.6-1,0.9c-0.4,0.1-0.9,0.1-1.2-0.1c-0.4-0.2-0.7-0.5-0.9-0.9
		C231.3-93.7,231.3-94.2,231.5-94.6z M233.3-79.2c0.5,0.2,1,0.7,1.5,1.1c0.4,0.4,0.7,0.9,0.9,1.1c0.4,0.9,0.2,1.6-0.9,2.4
		c-1,0.9-2.6,1.5-4,1.7s-3.1,0.4-3.9,0.1c-2-0.6-2.1-1.1-0.9-2.2c0.2-0.2,1.5-1.6,3.2-2.8C230.3-79,232.2-79.9,233.3-79.2z
		 M225.2-96.6c0.1-0.5,0.2-0.9,0.7-1.1c0.4-0.2,0.9-0.2,1.3-0.2c0.5,0.1,0.9,0.4,1.1,0.9c0.2,0.5,0.2,0.9,0.2,1.3
		c-0.1,0.4-0.4,0.9-0.9,1c-0.4,0.2-0.9,0.2-1.2,0.2c-0.4,0-0.9-0.4-1-0.7C225.2-95.6,225.2-96.1,225.2-96.6z M225.7-84.2
		c0.1,0,0.1,0,0.2,0.1c0.1,0,0.1,0,0.2,0.1c2.7,1.1,2.7,2.7,2,3.9c-0.9,1.3-2.7,2.4-3.4,2.8c-0.4,0.2-0.9,0.1-1.1-0.1
		c-0.4-0.1-0.7-0.2-0.9-0.7c-0.2-0.4-0.4-1.1-0.6-2c-0.2-0.9-0.2-1.7-0.1-2.4C221.9-84.1,222.9-85.3,225.7-84.2z M219.3-98.4
		c0.2-0.2,0.9-0.5,1.2-0.5c0.5,0,0.9,0.2,1.2,0.6c0.2,0.2,0.5,0.9,0.4,1.3c0,0.5-0.2,0.9-0.6,1.1c-0.2,0.2-0.7,0.4-1.2,0.4
		c-0.4,0-0.9-0.2-1.1-0.5c-0.2-0.2-0.5-0.7-0.5-1.2C218.8-97.7,219.1-98.1,219.3-98.4z M219.3-81.4c0.4,2,0.4,3.9,0.4,4.2
		c0.1,1.5-0.4,2-2.2,1c-0.9-0.4-2.1-1.5-2.9-2.7s-1.6-2.7-1.8-3.9c-0.4-2.7,1.7-2.7,4.3-2.4C218.1-85.2,218.8-83.4,219.3-81.4z
		 M212.7-97.8c0.2-0.4,0.6-0.6,1.1-0.7s0.9,0.1,1.3,0.4c0.4,0.2,0.6,0.7,0.6,1.2s-0.1,0.9-0.2,1.2c-0.2,0.2-0.6,0.6-1,0.6
		c-0.4,0.1-0.9-0.1-1.2-0.2c-0.2-0.2-0.6-0.6-0.7-1.1C212.5-97.1,212.6-97.6,212.7-97.8z M206.6-95.9c0.1-0.4,0.4-0.7,0.9-0.9
		c0.5-0.2,0.9-0.2,1.3,0c0.4,0.2,0.7,0.5,0.9,1c0.2,0.4,0.1,0.9,0,1.3c-0.2,0.4-0.4,0.7-0.9,0.9c-0.4,0.2-0.9,0.1-1.2,0
		c-0.4-0.1-0.9-0.4-1-0.9S206.5-95.5,206.6-95.9z M208.7-82.4c0.9,0.2,2,1.5,2.9,2.7c1,1.3,1.8,2.7,2,2.8c0.5,1.1-1,0.6-3.6-0.4
		c-0.6-0.2-1.2-0.5-1.8-0.7s-1.1-0.4-1.6-0.6c-0.9-0.4-1.6-0.9-2-1.3C204-80.8,207.1-82.9,208.7-82.4z M201.2-93.7
		c0.2-0.4,0.5-0.6,0.9-0.9c0.4-0.1,0.9-0.1,1.2,0.1c0.4,0.2,0.7,0.5,0.9,0.9s0.2,0.9,0,1.3s-0.5,0.7-1,0.9c-0.5,0.2-0.9,0.1-1.3-0.1
		c-0.4-0.2-0.6-0.6-0.7-1.1C200.8-92.9,201-93.3,201.2-93.7z M194.6-92.8c0.1-0.4,0.4-0.9,0.7-1c0.2-0.2,0.9-0.2,1.3-0.2
		c0.5,0,0.9,0.2,1.2,0.6c0.2,0.2,0.4,0.7,0.2,1.2c0,0.5-0.2,0.9-0.6,1.2c-0.2,0.2-1.1,0.4-1.5,0.2c-0.5-0.1-1.1-0.4-1.3-0.9
		C194.5-91.9,194.3-92.4,194.6-92.8z M194.3-80.7c1.1,0.2,2.7,1.5,2.9,2.3c0.1,0.4-0.2,0.7-0.9,0.9c-0.7,0.2-1.6,0.2-2.7,0
		c-2-0.2-3.6-1.5-3.1-2.1C191.3-80.1,193.2-80.8,194.3-80.7z M189.6-96c0.2-0.2,0.7-0.5,1.1-0.6c0.4,0,0.9,0,1.1,0.2
		c0.2,0.2,0.5,0.6,0.5,1s0,0.9-0.2,1.2c-0.2,0.4-0.6,0.7-1,0.7c-0.4,0.1-0.9,0-1.3-0.2c-0.5-0.2-0.6-0.7-0.6-1.2
		C189-95.3,189.2-95.6,189.6-96z M185-100.3c0.2-0.4,0.7-0.6,1.2-0.6c0.4,0,0.9,0.1,1.3,0.5c0.4,0.4,0.5,0.9,0.5,1.2
		s-0.2,0.9-0.6,1.1c-0.2,0.2-0.9,0.5-1.2,0.5c-0.4,0-0.9-0.1-1.1-0.4c-0.2-0.2-0.4-0.7-0.5-1.1C184.6-99.5,184.8-99.9,185-100.3z
		 M179.7-103.6c0.2-0.4,0.6-0.7,1-0.9c0.4-0.1,0.9-0.1,1.3,0.1c0.4,0.2,0.7,0.6,0.9,1c0.1,0.4,0,0.9-0.2,1.3s-0.6,0.6-1,0.9
		c-0.4,0.1-0.9,0.1-1.2-0.1c-0.4-0.2-0.6-0.5-0.9-0.9C179.4-102.6,179.4-103.1,179.7-103.6z M181.4-87.2c1.6,0.2,3.8,3.1,2.8,3.9
		c-0.9,0.9-3.3,0.6-6,0.6c-2.7,0.1-4.3,0-3.4-0.9c0.2-0.2,1.5-1.1,2.8-2.1C179-86.6,180.5-87.3,181.4-87.2z M173.8-105.7
		c0.1-0.4,0.4-0.9,0.9-1s0.9-0.2,1.3-0.1s0.9,0.5,1,0.9c0.2,0.4,0.2,0.9,0,1.3s-0.5,0.9-0.9,1c-0.4,0.2-0.9,0.2-1.2,0.1
		c-0.4-0.1-0.7-0.4-0.9-0.9C173.5-104.8,173.5-105.2,173.8-105.7z M172.8-92.3c0.6-0.5,1.2-0.9,2-0.7c2.6,0.5,4.5,1.5,3.2,3.8
		c-0.6,1.1-1.8,2.2-3.2,3.2c-0.6,0.4-1.3,0.9-2,1c-0.6,0.2-1.2,0.5-1.7,0.5c-2.1,0.2-2.4-0.2-1.7-1.7c0.2-0.2,0.9-2.1,2-3.8
		C171.6-91,172.1-91.8,172.8-92.3z M168-108c0.4-0.2,0.9-0.4,1.3-0.4c0.5,0.1,0.9,0.2,1.2,0.7c0.2,0.4,0.4,0.9,0.2,1.3
		s-0.2,0.9-0.7,1.1c-0.2,0.2-0.9,0.4-1.2,0.2c-0.4-0.1-0.9-0.2-1.1-0.6c-0.2-0.2-0.4-0.9-0.4-1.2C167.5-107.3,167.7-107.6,168-108z
		 M165.9-95c0.1,0,0.1,0,0.2,0c2.9,0.1,3.6,1.5,3.2,3.1c-0.2,1.5-1.6,3.3-2.2,3.9c-0.2,0.2-0.7,0.4-1.1,0.2c-0.4,0.1-0.9,0-1.1-0.2
		c-0.7-0.6-2-2.3-2.2-3.9C162.5-93.4,163-94.9,165.9-95C165.8-95,165.8-95,165.9-95z M161.2-107.6c0.2-0.4,0.7-0.6,1.2-0.7
		s1,0.1,1.3,0.4c0.2,0.2,0.6,0.7,0.6,1.1c0,0.5-0.1,0.9-0.4,1.2c-0.2,0.2-0.6,0.5-1.1,0.6c-0.4,0.1-0.9-0.1-1.2-0.2
		c-0.2-0.2-0.6-0.6-0.7-1.1C160.9-106.9,161-107.3,161.2-107.6z M154.9-105.9c0.2-0.4,0.5-0.7,1-0.9c0.5-0.1,0.9-0.1,1.3,0.1
		c0.5,0.2,0.7,0.6,0.9,1c0.1,0.5,0.1,0.9-0.1,1.3c-0.2,0.5-0.5,0.7-0.9,0.9c-0.4,0.1-0.9,0.1-1.2-0.1c-0.4-0.2-0.7-0.5-0.9-1
		C154.7-105,154.8-105.5,154.9-105.9z M157.1-93c0.6-0.1,1.3,0.2,2,0.7c0.6,0.5,1.2,1.3,1.7,2.1c1,1.6,1.7,3.4,2,3.8
		c0.7,1.5,0.4,2-1.7,1.7c-0.5,0-1.1-0.2-1.7-0.5c-0.6-0.2-1.3-0.6-2-1c-1.3-0.9-2.6-2-3.2-3.2C152.7-91.6,154.7-92.4,157.1-93z
		 M148.9-103.2c0.1-0.4,0.4-0.9,0.9-1c0.4-0.2,0.9-0.2,1.3-0.1c0.4,0.1,0.9,0.4,1,0.9c0.2,0.4,0.2,0.9,0.1,1.3
		c-0.1,0.4-0.4,0.7-0.9,0.9c-0.4,0.2-0.9,0.2-1.2,0.1c-0.4-0.1-0.9-0.4-1-0.9C148.9-102.4,148.9-102.7,148.9-103.2z M150.5-87.2
		c0.9-0.1,2.3,0.6,3.8,1.5s2.7,1.8,2.8,2.1c0.9,0.9-0.7,0.9-3.4,0.9s-5.1,0.2-6-0.6C146.6-84.2,148.9-87,150.5-87.2z M144.4-100.4
		c0.2-0.4,0.9-0.5,1.3-0.5c0.4,0,0.9,0.2,1.2,0.6c0.4,0.4,0.4,0.9,0.4,1.2s-0.2,0.9-0.5,1.1c-0.2,0.2-0.7,0.4-1.1,0.4
		c-0.4,0-0.9-0.1-1.2-0.5c-0.2-0.2-0.5-0.7-0.6-1.1C143.8-99.7,143.9-100,144.4-100.4z M139.5-95.3c0-0.4,0.2-0.7,0.5-1
		c0.2-0.2,0.7-0.2,1.1-0.2c0.4,0.1,0.9,0.2,1.1,0.6c0.2,0.2,0.5,0.9,0.4,1.2c0,0.4-0.2,0.9-0.6,1.2c-0.4,0.2-0.9,0.4-1.3,0.2
		c-0.5-0.1-0.9-0.2-1-0.7C139.5-94.4,139.5-94.9,139.5-95.3z M141.1-79.5c0.5,0.6-1.1,1.6-3.1,2.1c-0.9,0.2-2,0.1-2.7,0
		s-1.1-0.4-0.9-0.9c0.2-0.9,2-2.1,2.9-2.3C138.8-80.8,140.6-80.1,141.1-79.5z M134-93.4c0.2-0.2,0.9-0.6,1.2-0.6
		c0.4-0.1,1,0,1.3,0.2c0.2,0.2,0.6,0.6,0.7,1c0.1,0.5,0.1,0.9-0.1,1.3c-0.2,0.5-0.9,0.7-1.3,0.9c-0.5,0.1-1.2,0-1.5-0.2
		s-0.5-0.7-0.6-1.2C133.6-92.7,133.7-93,134-93.4z M127.6-93.4c0.2-0.4,0.5-0.7,0.9-0.9c0.4-0.2,0.9-0.2,1.2-0.1s0.7,0.4,0.9,0.9
		c0.2,0.4,0.2,0.9,0.2,1.3c-0.1,0.5-0.2,0.9-0.7,1.1c-0.4,0.2-0.9,0.2-1.3,0.1c-0.5-0.2-0.9-0.5-1-0.9
		C127.5-92.4,127.5-92.9,127.6-93.4z M122.1-95.9c0.2-0.4,0.5-0.9,0.9-1c0.4-0.2,0.9-0.2,1.3,0c0.5,0.2,0.9,0.5,0.9,0.9
		c0.1,0.4,0.1,0.9-0.1,1.3s-0.6,0.7-1,0.9c-0.4,0.1-0.9,0.2-1.2,0c-0.4-0.2-0.6-0.5-0.9-0.9C122-94.9,122-95.5,122.1-95.9z
		 M123.2-82.4c1.6-0.4,4.5,1.5,3.9,2.7c-0.2,0.5-1,0.9-2,1.3c-0.5,0.2-1,0.4-1.6,0.6s-1.2,0.4-1.8,0.7c-2.4,1-3.9,1.5-3.6,0.4
		c0.1-0.2,0.9-1.5,2-2.8C121.2-80.9,122.5-82.3,123.2-82.4z M116-97.1c0-0.5,0.2-0.9,0.6-1.2c0.4-0.2,0.9-0.4,1.3-0.4
		c0.5,0.1,0.9,0.2,1.1,0.7c0.2,0.4,0.2,0.9,0.2,1.3c-0.1,0.5-0.4,0.9-0.7,1.1c-0.2,0.2-0.7,0.4-1.2,0.2c-0.4,0-0.9-0.2-1-0.6
		C116-96.1,116-96.6,116-97.1z M114.9-85.5c2.6-0.2,4.7-0.2,4.3,2.4c-0.2,1.3-0.9,2.7-1.8,3.9c-0.9,1.2-2,2.3-2.9,2.7
		c-1.8,0.9-2.3,0.5-2.2-1c0-0.4,0.1-2.2,0.4-4.2C113-83.4,113.7-85.2,114.9-85.5z M110-98.2c0.2-0.2,0.7-0.6,1.2-0.6
		s0.9,0.2,1.2,0.5c0.2,0.2,0.5,0.7,0.5,1.2s-0.2,0.9-0.5,1.2c-0.2,0.2-0.7,0.5-1.1,0.5s-0.9-0.1-1.2-0.4c-0.2-0.2-0.5-0.7-0.6-1.1
		C109.5-97.5,109.7-97.8,110-98.2z M103.5-97.1c0.2-0.4,0.6-0.7,1.1-0.9c0.5-0.1,1,0,1.3,0.2c0.4,0.2,0.6,0.6,0.7,1.1s0,0.9-0.2,1.3
		s-0.6,0.6-1,0.7s-0.9,0-1.2-0.2c-0.4-0.2-0.7-0.6-0.9-1C103.1-96.1,103.2-96.7,103.5-97.1z M106.2-84.2c2.7-1.1,3.9,0.1,4,1.6
		c0.1,0.9,0,1.6-0.1,2.4c-0.2,0.9-0.4,1.5-0.6,2c-0.2,0.4-0.5,0.6-0.9,0.7c-0.2,0.2-0.7,0.2-1.1,0.1c-0.9-0.2-2.7-1.5-3.4-2.8
		C103.2-81.5,103.2-83,106.2-84.2C106.1-84.1,106.1-84.1,106.2-84.2C106.1-84.2,106.2-84.2,106.2-84.2z M97.1-94.3
		c0.1-0.4,0.4-0.9,0.9-1.1c0.4-0.2,0.9-0.2,1.5-0.1c0.4,0.1,0.9,0.4,1,0.9c0.2,0.4,0.2,0.9,0.1,1.3s-0.4,0.7-0.9,0.9
		c-0.4,0.2-0.9,0.2-1.2,0.1s-0.9-0.4-1-0.9C97.1-93.4,97-93.8,97.1-94.3z M96.3-76.9c0.2-0.4,0.5-0.9,0.9-1.1
		c0.4-0.4,0.9-0.7,1.5-1.1c1.1-0.7,2.8,0.2,4.4,1.5c1.5,1.1,2.8,2.6,3.2,2.8c1.1,1.1,1,1.7-0.9,2.2c-1,0.2-2.4,0.2-3.9-0.1
		c-1.5-0.2-3.1-0.9-4-1.7C96.1-75.3,95.9-76.2,96.3-76.9z M98.6-71.3c1.6,0.2,3.1,0.7,3.3,0.9c0.5,0.2,0.5,0.5-0.1,0.9
		c-0.5,0.2-1.5,0.7-2.7,1.2c-0.6,0.2-1.2,0.5-1.8,0.7c-0.6,0.2-1.1,0.5-1.5,0.6c-0.9,0.2-1.7,0.5-2.3,0.2c-1.1-0.4-0.2-3.9,1.1-4.7
		C95-71.7,97-71.5,98.6-71.3z M92.3-91.6c0.4-0.2,0.9-0.4,1.3-0.4c0.5,0.1,0.9,0.2,1.1,0.6s0.4,0.9,0.2,1.2c0,0.4-0.2,0.9-0.6,1.1
		s-0.9,0.4-1.2,0.2c-0.4,0-0.9-0.2-1.2-0.5s-0.5-0.9-0.4-1.2C91.7-90.7,92-91.3,92.3-91.6z M87.6-86.9c0.2-0.4,0.9-0.6,1.2-0.6
		s0.9,0.1,1.2,0.4s0.5,0.7,0.6,1.1c0,0.4-0.1,0.9-0.4,1.2c-0.2,0.2-0.7,0.5-1.1,0.5s-0.9-0.1-1.3-0.2c-0.4-0.2-0.6-0.7-0.7-1.1
		C87-85.9,87.2-86.6,87.6-86.9z M87.2-57.8c-0.9,0.5-1.6,0.9-2.3,1c-0.6,0.1-1.1,0-1.2-0.4c0-0.4,0.2-1.1,0.5-1.7
		c0.2-0.6,0.9-1.2,1.2-1.5c0.9-0.6,2.9-0.7,3.7-0.2C89.7-60.4,88.7-58.8,87.2-57.8z M83.9-81.2c0.2-0.5,0.6-0.9,1-0.9
		c0.4-0.1,0.9-0.1,1.3,0.1s0.7,0.6,0.9,1s0.1,0.9,0,1.2c-0.2,0.4-0.5,0.6-0.9,0.9c-0.4,0.2-0.9,0.2-1.3,0s-0.9-0.5-1-0.9
		C83.7-80.3,83.7-80.7,83.9-81.2z M81.5-75.8c0.2-0.2,0.5-0.6,0.9-0.7s0.9-0.1,1.3,0.1s0.7,0.5,0.9,0.9c0.1,0.4,0.1,0.9-0.1,1.3
		s-0.6,0.7-1.1,0.9c-0.4,0.1-0.9,0-1.3-0.2s-0.6-0.7-0.7-1C81.3-75,81.3-75.3,81.5-75.8z M77-70.8c0.1-0.4,0.5-0.9,0.9-1.1
		c0.2-0.2,0.9-0.4,1.3-0.2c0.4,0.1,0.9,0.2,1.1,0.6s0.4,0.9,0.4,1.2c-0.1,0.4-0.5,1-0.9,1.3c-0.4,0.2-1.1,0.4-1.5,0.2
		c-0.4-0.1-0.9-0.4-1-0.9C77-69.8,76.8-70.4,77-70.8z M71.8-69.3c0.2-0.2,0.6-0.5,1-0.6c0.4,0,0.9,0.1,1.1,0.2
		c0.2,0.2,0.6,0.6,0.7,1.1s0,0.9-0.2,1.3s-0.7,0.6-1.2,0.6c-0.5,0.1-0.9-0.1-1.3-0.4c-0.2-0.2-0.5-0.7-0.5-1.2
		C71.3-68.6,71.4-69,71.8-69.3z M69.9-50.3c0-0.2,0.1-0.6,0.1-1c0.1-0.4,0.1-0.7,0.2-1.1c0.2-1.5,0.9-3.3,1.5-3.8s1.8-0.6,2.8-0.5
		c1,0.2,1.8,0.6,1.8,1.2c0,0.6-0.5,1.2-1.1,2.1c-0.7,0.7-1.5,1.6-2.4,2.6c-0.4,0.5-0.9,0.9-1.2,1.2c-0.2,0.4-0.6,0.6-0.9,0.9
		c-0.5,0.4-0.9,0.2-0.9-0.2C69.9-49.3,69.9-49.7,69.9-50.3z M60.1,53c-0.2,0.1-0.7,0.2-1.5,0.4C57.9,53.6,57,53.8,56,54
		c-2,0.2-3.9,0.2-4.5-0.9c-0.6-1.1-1-2.2-0.9-3.1c0.1-0.9,0.6-1.5,2-1.6c0.6-0.1,1.3-0.1,2.1,0c0.4,0,0.7,0.1,1.1,0.2
		c0.4,0.1,0.7,0.2,1.1,0.2c1.5,0.4,2.7,1,3.4,1.7c0.2,0.4,0.6,0.6,0.9,0.9c0.2,0.2,0.2,0.5,0.2,0.6C61.2,52.7,60.9,52.9,60.1,53z
		 M58.7,47.3c-0.2,0-1.7-0.2-3.3-0.9c-1.5-0.5-3.2-1.2-3.4-2c-0.4-0.7-0.2-1.8,0-2.8s0.9-1.7,1.5-1.6s1.2,0.6,1.8,1.3
		c0.2,0.4,0.6,0.9,1,1.3c0.4,0.4,0.7,0.9,1.1,1.5c0.9,1,1.5,1.7,1.7,2.3C59.3,46.9,59.3,47.3,58.7,47.3z M53.2,33
		c-0.9,0-2.4-1.2-2.8-2.1c-0.2-1,0-2.9,0.5-3.6c0.5-0.6,1.8,0.6,2.4,2.3C53.9,31.2,53.9,33.1,53.2,33z M41.9,20c0-0.2,0-0.4,0-0.7
		c0.1-0.2,0.1-0.6,0.2-0.9c0.2-0.7,0.6-1.5,0.9-2.1c0.4-0.7,0.9-1.3,1.1-1.8c0.2-0.5,0.6-0.9,0.7-0.9c0.4-0.4,0.7-0.2,0.9,0.2
		c0.1,0.6,0.2,1.5,0.2,2.7c0,0.6,0.1,1.2,0.1,1.8c0.1,0.5,0.1,1.1,0.2,1.5c0.1,0.9,0,1.7-0.2,2.2c-0.4,0.5-1.3,0.2-2.2-0.1
		C43,21.6,42.1,20.8,41.9,20z M42,41.6c0,0.5-0.2,0.9-0.6,1.2c-0.2,0.2-0.9,0.4-1.2,0.2c-0.5-0.1-0.9-0.2-1.1-0.6
		c-0.2-0.2-0.4-0.7-0.4-1.1s0.2-0.7,0.5-1s0.7-0.5,1.2-0.5s0.9,0.2,1.2,0.5C41.9,40.7,42,41.2,42,41.6z M39.6,16.8
		c-1.1,0.7-2,0.7-2.6,0.1c-0.2-0.2-0.6-0.7-0.9-1.2c-0.2-0.5-0.4-1-0.6-1.6c-0.2-1.2,1.1-2.7,2.7-3.7s3.4-1.8,3.8-2
		c1.5-0.7,2-0.4,1.7,1.5c0,0.9-0.5,2.2-1.3,3.6C41.7,14.8,40.7,16.1,39.6,16.8z M41.5-29.6c-0.2,0.2-0.7,0.5-1.2,0.5
		s-0.9-0.2-1.2-0.5s-0.5-0.6-0.5-1s0.1-0.9,0.4-1.1c0.2-0.2,0.7-0.6,1.1-0.6c0.5-0.1,0.9,0.1,1.2,0.2c0.2,0.2,0.6,0.7,0.6,1.2
		C42-30.2,41.9-29.9,41.5-29.6z M43.9-11.1c0.9-0.5,1.8-0.6,2.2-0.1S46.4-10,46.3-9c0,0.5-0.1,1-0.2,1.5c0,0.6-0.1,1.1-0.1,1.8
		c-0.1,1.2-0.2,2.2-0.2,2.7c-0.1,0.6-0.4,0.7-0.9,0.2c-0.1-0.1-0.4-0.4-0.7-0.9c-0.2-0.6-0.7-1.2-1.1-2s-0.6-1.3-0.7-2
		C42-7.9,42-8.3,42-8.6c0-0.2,0-0.5,0-0.7C42.1-9.9,43-10.8,43.9-11.1z M42.4-2.7c0.9,1.3,1.3,2.6,1.3,3.6c0.2,2-0.2,2.2-1.7,1.5
		c-0.2-0.2-2.1-0.9-3.8-2S35.3-2,35.5-3.3c0.2-0.6,0.2-1.2,0.6-1.6c0.2-0.5,0.5-0.9,0.9-1.2c0.6-0.6,1.5-0.6,2.6,0.1
		C40.7-5.1,41.7-3.9,42.4-2.7z M53.4-29.1c-0.6,0.1-1.2-0.7-1.5-1.6c-0.2-1-0.4-2.1,0-2.8s2.1-1.5,3.4-2c1.5-0.5,2.9-0.9,3.3-0.9
		c0.6,0,0.7,0.2,0.4,0.9c-0.2,0.5-0.9,1.3-1.7,2.3c-0.4,0.5-0.9,1-1.1,1.5c-0.2,0.5-0.6,0.9-1,1.3C54.6-29.9,54-29.3,53.4-29.1z
		 M53.2-18.8c-0.6,1.6-2,2.8-2.4,2.3c-0.5-0.6-0.9-2.6-0.5-3.6c0.4-0.9,2.1-2.1,2.8-2.1C53.9-22.2,53.9-20.4,53.2-18.8z M56.8-38.1
		c-0.4,0.1-0.7,0.2-1.1,0.2c-0.4,0.1-0.7,0.1-1.1,0.2c-0.7,0.1-1.5,0.1-2.1,0c-1.3-0.2-1.8-0.9-2-1.6c-0.1-0.9,0.2-2,0.9-3.1
		s2.7-1.2,4.5-0.9c0.9,0.1,2,0.4,2.7,0.6c0.7,0.2,1.3,0.4,1.5,0.4c0.7,0.2,1.2,0.5,1.2,0.9c0,0.2,0,0.4-0.2,0.6s-0.4,0.5-0.9,0.9
		C59.7-39.2,58.3-38.6,56.8-38.1z M65.5-69.2c0.2-0.2,0.7-0.6,1.2-0.6s0.9,0.2,1.2,0.5c0.2,0.2,0.4,0.7,0.4,1.2s-0.2,0.9-0.5,1.2
		c-0.2,0.2-0.7,0.5-1.1,0.5s-0.9-0.2-1.1-0.4C65.4-67,65.1-67.5,65-68C65-68.6,65.2-68.9,65.5-69.2z M63.1-55.3
		c1-0.7,2.1-1.3,2.9-1.3c0.9,0,1.5,0.4,2,1.6c0.2,1.2,0.2,2.8,0.1,4.4c-0.1,0.7-0.2,1.5-0.5,2.1c-0.2,0.6-0.5,1.1-0.9,1.6
		c-1.2,1.6-1.7,1.5-2.4,0.1c-0.1-0.2-1-2.1-1.5-3.9c-0.1-0.5-0.2-0.9-0.2-1.5c-0.1-0.4-0.1-0.9-0.1-1.3
		C62.2-54.4,62.5-55.1,63.1-55.3z M59-67.7c0.2-0.4,0.6-0.7,1-0.9c0.5-0.1,0.9-0.1,1.3,0.1c0.4,0.2,0.6,0.6,0.7,1
		c0.1,0.5,0,0.9-0.2,1.3s-0.5,0.7-0.9,0.9c-0.4,0.1-0.9,0.1-1.2-0.1c-0.4-0.2-0.7-0.5-0.9-1C58.8-66.8,58.8-67.3,59-67.7z M53-64.8
		c0.1-0.4,0.4-0.9,0.9-1.1c0.4-0.2,0.9-0.2,1.3-0.2c0.4,0.1,0.9,0.4,1,0.9c0.2,0.4,0.2,0.9,0.1,1.3c-0.1,0.4-0.4,0.9-0.9,1
		c-0.4,0.2-0.9,0.2-1.2,0.2c-0.4-0.1-0.9-0.4-1-0.9C52.9-63.8,52.8-64.4,53-64.8z M48.1-61.8c0.4-0.2,0.9-0.5,1.3-0.5
		c0.4,0,0.9,0.2,1.1,0.6c0.2,0.4,0.4,0.9,0.2,1.3c-0.1,0.4-0.2,0.9-0.6,1.1s-0.9,0.4-1.2,0.4s-0.9-0.2-1.2-0.5
		c-0.2-0.2-0.5-0.9-0.4-1.2C47.5-61,47.8-61.5,48.1-61.8z M55.7-50.6c2.1-2.2,3.4-1.6,4.4-0.2c0.9,1.3,1.3,3.3,1.3,4.2
		c0,0.2,0,0.4-0.1,0.6c-0.1,0.2-0.2,0.2-0.2,0.5c-0.2,0.2-0.5,0.5-0.9,0.6c-0.9,0.1-2.9-0.1-4.4-0.9c-1.5-0.7-2.1-2.1-0.2-4.4
		l0.1-0.1C55.6-50.4,55.7-50.4,55.7-50.6z M43.4-56.4c0.2-0.4,0.7-0.7,1.2-0.9c0.5-0.1,0.9,0,1.3,0.2c0.4,0.2,0.6,0.7,0.7,1.1
		c0.1,0.4,0,0.9-0.2,1.2s-0.6,0.6-1.1,0.7C44.9-54,44.4-54,44-54.3c-0.4-0.2-0.7-0.6-0.9-1C43-55.5,43-55.9,43.4-56.4z M40.1-50.1
		c0.2-0.5,0.6-0.9,1-1s0.9-0.2,1.3,0c0.5,0.2,0.7,0.5,0.9,0.9s0.2,0.9,0,1.3c-0.2,0.4-0.5,0.7-0.9,0.9c-0.4,0.1-0.9,0.2-1.3,0.1
		s-0.9-0.4-1-0.9C39.8-49.2,39.8-49.7,40.1-50.1z M38-43.5c0.1-0.5,0.4-0.9,0.9-1.2c0.4-0.2,0.9-0.4,1.3-0.2
		c0.5,0.1,0.9,0.4,1.1,0.7s0.2,0.9,0.2,1.2c-0.1,0.4-0.2,0.9-0.7,1.1c-0.5,0.2-0.9,0.2-1.3,0.2s-0.9-0.2-1.1-0.6
		C38.1-42.5,38-43,38-43.5z M38.2-37.9c0.2-0.4,0.7-0.6,1.2-0.6s0.9,0.1,1.2,0.4c0.2,0.2,0.5,0.6,0.6,1c0,0.4-0.1,0.9-0.4,1.2
		c-0.2,0.4-0.6,0.6-1.1,0.7c-0.5,0.1-0.9,0-1.3-0.2c-0.4-0.2-0.6-0.6-0.7-1.1C37.6-37.1,37.9-37.6,38.2-37.9z M37.6-25.2
		c0.2-0.4,0.6-0.9,0.9-1c0.4-0.2,0.9-0.2,1.3-0.1c0.5,0.1,0.9,0.4,1,0.9s0.1,1.1-0.1,1.5c-0.2,0.4-0.6,1-1,1.1s-0.9,0.1-1.3-0.1
		c-0.4-0.2-0.7-0.6-0.9-0.9C37.5-24.2,37.6-24.8,37.6-25.2z M34.6-20.7c0.2-0.2,0.7-0.4,1.1-0.2c0.4,0,0.9,0.2,1.2,0.5
		c0.2,0.2,0.5,0.7,0.5,1.2c0,0.4-0.2,0.9-0.5,1.2c-0.4,0.2-0.9,0.5-1.2,0.4c-0.4,0-0.9-0.2-1.1-0.6c-0.2-0.4-0.4-0.9-0.4-1.2
		C34.1-20.1,34.2-20.4,34.6-20.7z M29.8-17.1c0.4-0.2,0.9-0.4,1.3-0.2c0.4,0.1,0.9,0.2,1,0.7c0.2,0.4,0.2,0.9,0.2,1.3
		c-0.1,0.5-0.2,0.9-0.6,1.1C31.5-14,31-13.8,30.6-14c-0.4,0-0.9-0.2-1.1-0.6c-0.2-0.4-0.5-0.9-0.4-1.3
		C29.2-16.3,29.3-16.8,29.8-17.1z M25.1-11.7c0.2-0.4,0.7-0.7,1.1-0.7c0.4-0.1,0.9,0.1,1.2,0.4c0.4,0.2,0.5,0.7,0.6,1.2
		c0.1,0.4,0,0.9-0.2,1.3c-0.2,0.4-0.6,0.6-1,0.7S26-8.8,25.5-9c-0.4-0.2-0.7-0.7-0.7-1.1C24.8-10.9,24.9-11.4,25.1-11.7z M21.9-5.5
		c0.2-0.5,0.5-0.9,0.9-1c0.4-0.2,0.9-0.2,1.3,0.1c0.4,0.2,0.7,0.6,0.9,1C25.1-5,25.2-4.5,25-4c-0.2,0.4-0.5,0.9-0.9,1
		s-0.9,0.2-1.3,0.1c-0.4-0.2-0.9-0.5-1-0.9C21.8-4.4,21.8-5,21.9-5.5z M20.2,1.6c0.1-0.5,0.2-1,0.7-1.2c0.4-0.2,0.9-0.4,1.3-0.2
		c0.4,0.1,0.7,0.4,1,0.9c0.2,0.4,0.4,0.9,0.2,1.3s-0.2,0.9-0.6,1.1c-0.2,0.2-0.9,0.4-1.2,0.4c-0.5,0-0.9-0.2-1.1-0.7
		C20.2,2.7,20.1,2.1,20.2,1.6z M20.8,10.4c-0.4-0.2-0.6-0.7-0.7-1.2s0.1-1,0.2-1.5C20.5,7.3,21,7.1,21.4,7c0.5,0,0.9,0.1,1.2,0.4
		c0.2,0.2,0.6,0.7,0.6,1.1c0.2,0.5,0,0.8-0.2,1.3c-0.2,0.4-0.6,0.7-1.1,0.9C21.6,10.9,21.2,10.8,20.8,10.4z M24.1,17.3
		c-0.4,0.2-0.9,0.2-1.3,0.1c-0.4-0.2-0.7-0.5-0.9-1c-0.2-0.5-0.1-1,0-1.5c0.2-0.4,0.5-0.9,1-0.9c0.4-0.2,0.9-0.1,1.3,0.1
		s0.7,0.5,0.9,1c0.2,0.4,0.1,0.9,0,1.3C24.9,16.7,24.5,17,24.1,17.3z M28.1,21.8c-0.1,0.4-0.2,0.9-0.6,1.2c-0.4,0.2-0.9,0.4-1.2,0.4
		c-0.4-0.1-0.9-0.2-1.1-0.7C25,22.3,25,21.8,25,21.2c0.1-0.5,0.4-0.9,0.7-1.1c0.4-0.2,0.9-0.2,1.3-0.2c0.4,0.1,0.9,0.2,1,0.7
		C28.1,21,28.2,21.3,28.1,21.8z M32.1,27.4c-0.2,0.4-0.6,0.6-1,0.7s-0.9,0-1.3-0.2s-0.6-0.9-0.7-1.2c0-0.5,0.1-0.9,0.4-1.3
		c0.2-0.5,0.7-0.5,1.1-0.6c0.4,0,0.9,0.1,1.1,0.2c0.2,0.2,0.5,0.6,0.6,1.1S32.4,27.1,32.1,27.4z M33.3,5.4c0-0.1,0-0.1,0-0.2
		c0.1-2.9,1.5-3.4,3.1-3.2c1.5,0.5,3.1,1.7,3.7,2.3c0.2,0.2,0.4,0.7,0.2,1c0.1,0.4,0,0.7-0.2,1c-0.6,0.6-2.2,1.8-3.8,2.2
		C34.8,9,33.5,8.5,33.3,5.4C33.3,5.5,33.3,5.5,33.3,5.4z M36.9,31.4c-0.2,0.2-0.9,0.5-1.2,0.5s-0.9-0.1-1.1-0.2
		c-0.2-0.2-0.5-0.7-0.5-1.1s0.1-0.9,0.4-1.2c0.2-0.4,0.7-0.6,1.1-0.6c0.4,0,0.9,0.1,1.2,0.4s0.5,0.9,0.5,1.2
		C37.4,30.7,37.1,31.1,36.9,31.4z M37.6,34.7c0.2-0.4,0.4-0.7,0.9-0.9c0.4-0.2,0.9-0.2,1.3-0.1c0.4,0.1,0.9,0.7,1,1.1
		c0.2,0.4,0.2,1.1,0.1,1.5c-0.2,0.4-0.5,0.7-1,0.9c-0.4,0.1-0.9,0.1-1.3-0.1c-0.4-0.2-0.7-0.6-0.9-1C37.6,35.6,37.5,35,37.6,34.7z
		 M37.7,47.4c0.1-0.5,0.2-0.9,0.7-1.1c0.4-0.2,0.9-0.2,1.3-0.2c0.5,0.1,0.9,0.4,1.1,0.7s0.4,0.9,0.4,1.2c-0.1,0.4-0.2,0.9-0.6,1
		c-0.2,0.2-0.9,0.4-1.2,0.4c-0.5,0-0.9-0.2-1.2-0.6C37.9,48.4,37.6,48,37.7,47.4z M38.8,55.5c-0.4-0.2-0.7-0.7-0.9-1.2
		c-0.1-0.5,0.1-1,0.2-1.3c0.2-0.2,0.7-0.6,1.1-0.6c0.5,0,0.9,0.1,1.3,0.4c0.4,0.2,0.6,0.6,0.7,1.1c0.1,0.4,0,0.9-0.2,1.2
		c-0.2,0.2-0.6,0.6-1.1,0.7C39.6,55.8,39.2,55.8,38.8,55.5z M42.4,62c-0.4,0.2-0.9,0.2-1.3,0c-0.4-0.2-0.9-0.5-1-1
		c-0.2-0.5-0.2-0.9,0-1.5c0.2-0.4,0.5-0.7,1-0.9c0.5-0.1,0.9-0.1,1.3,0.1c0.4,0.2,0.7,0.5,0.9,0.9s0.2,0.9,0,1.3
		C43,61.5,42.8,61.8,42.4,62z M43.4,67.2c-0.2-0.4-0.4-0.9-0.2-1.5c0.1-0.4,0.4-0.9,0.9-1c0.4-0.2,0.9-0.2,1.3-0.2
		c0.4,0.1,0.9,0.2,1.1,0.7c0.2,0.4,0.2,0.9,0.2,1.2c-0.1,0.4-0.2,0.9-0.7,1.1c-0.5,0.4-0.9,0.5-1.5,0.4
		C44.1,67.8,43.6,67.7,43.4,67.2z M50.6,72.5c-0.2,0.4-0.7,0.6-1.1,0.6s-0.9-0.1-1.3-0.5c-0.4-0.2-0.6-0.9-0.7-1.3
		c0-0.5,0.1-0.9,0.4-1.2c0.2-0.2,0.9-0.5,1.2-0.5c0.4,0,0.9,0.1,1.2,0.4c0.2,0.2,0.5,0.7,0.6,1.1C51,71.6,50.8,72,50.6,72.5z
		 M56.2,76.1c-0.2,0.4-0.5,0.7-1,0.9c-0.4,0.1-0.9,0.1-1.3-0.2c-0.4-0.2-0.7-0.6-0.9-1.1c-0.1-0.4-0.1-0.9,0.2-1.3
		c0.2-0.4,0.6-0.7,1-0.9c0.4-0.1,0.9-0.1,1.2,0.2c0.4,0.2,0.7,0.6,0.9,1C56.4,75.1,56.4,75.6,56.2,76.1z M55.7,61.2
		C55.7,61.2,55.6,61.2,55.7,61.2L55.5,61c-2-2.3-1.2-3.7,0.2-4.4c1.5-0.7,3.4-0.9,4.4-0.9c0.4,0,0.7,0.2,0.9,0.6
		c0.1,0.1,0.2,0.2,0.2,0.5c0.1,0.2,0.1,0.4,0.1,0.6c0,0.9-0.5,2.9-1.3,4.2C59.2,63.1,57.8,63.6,55.7,61.2z M62.2,78.3
		c-0.1,0.5-0.4,0.9-0.7,1c-0.4,0.2-0.9,0.2-1.3,0.1c-0.5-0.2-0.9-0.5-1-0.9s-0.2-0.9-0.1-1.3c0.1-0.5,0.5-0.9,0.9-1
		c0.4-0.2,0.9-0.2,1.2-0.1c0.4,0.1,0.7,0.4,0.9,0.9C62.2,77.4,62.2,77.9,62.2,78.3z M63.1,66.3c-0.5-0.4-0.7-1-0.9-1.8
		c0-0.4,0-0.9,0.1-1.3c0.1-0.4,0.2-0.9,0.2-1.5c0.5-1.8,1.5-3.6,1.5-3.9c0.6-1.5,1.2-1.5,2.4,0.1c0.2,0.4,0.6,0.9,0.9,1.6
		c0.2,0.6,0.4,1.3,0.5,2.1c0.2,1.5,0.2,3.2-0.1,4.4c-0.4,1.2-1,1.7-2,1.6C65.2,67.6,64.1,67,63.1,66.3z M68,80.2
		c-0.2,0.2-0.7,0.5-1.2,0.5s-0.9-0.2-1.2-0.6c-0.2-0.2-0.5-0.9-0.4-1.2c0-0.5,0.2-0.9,0.6-1.2c0.2-0.2,0.7-0.4,1.1-0.4
		s0.9,0.2,1.1,0.5c0.2,0.2,0.5,0.7,0.5,1.2C68.5,79.4,68.2,79.8,68,80.2z M74.6,79.2c-0.1,0.5-0.4,0.9-0.7,1.1
		c-0.2,0.2-0.7,0.4-1.1,0.2c-0.4,0-0.9-0.2-1-0.6c-0.2-0.2-0.4-0.7-0.4-1.2s0.2-0.9,0.5-1.2c0.2-0.4,0.9-0.5,1.3-0.4
		c0.5,0,0.9,0.2,1.2,0.6C74.6,78.4,74.7,78.9,74.6,79.2z M74.6,67.5c-1,0.2-2.2,0.1-2.8-0.5c-0.6-0.5-1.1-2.1-1.5-3.8
		c-0.1-0.4-0.2-0.9-0.2-1.1c0-0.4-0.1-0.7-0.1-1c-0.1-0.6-0.1-1-0.1-1.2c0-0.6,0.2-0.6,0.9-0.2c0.2,0.2,0.5,0.5,0.9,0.9
		c0.2,0.2,0.9,0.7,1.2,1.2c0.9,0.9,1.7,1.8,2.4,2.6c0.7,0.7,1.1,1.5,1.1,2.1C76.6,66.9,75.6,67.4,74.6,67.5z M80.2,82.3
		c-0.2,0.4-0.7,0.6-1.1,0.6c-0.4,0.1-0.9-0.1-1.3-0.2c-0.2-0.2-0.7-0.7-0.9-1.1c-0.1-0.4,0-0.9,0.2-1.3s0.6-0.7,1-0.9
		c0.4-0.1,1.1,0.1,1.5,0.2c0.4,0.2,0.9,0.9,0.9,1.3C80.7,81.6,80.6,81.9,80.2,82.3z M82.6,87.3c-0.4-0.1-0.7-0.4-0.9-0.7
		c-0.2-0.4-0.2-0.7-0.1-1.1s0.4-0.9,0.7-1c0.4-0.2,0.9-0.4,1.3-0.2c0.4,0.1,0.9,0.4,1.1,0.9c0.2,0.4,0.2,0.9,0.1,1.3
		s-0.4,0.9-0.9,0.9C83.3,87.4,82.9,87.4,82.6,87.3z M83.7,67.8c0-0.4,0.5-0.5,1.2-0.4c0.6,0.1,1.5,0.4,2.3,1c1.5,1,2.7,2.7,2,3.1
		s-2.7,0.2-3.7-0.2c-0.4-0.2-0.9-0.9-1.2-1.5C83.8,69.1,83.7,68.3,83.7,67.8z M86.2,92.8c-0.4,0.2-0.9,0.2-1.3,0.1s-0.9-0.4-1-0.9
		c-0.2-0.5-0.2-0.9,0-1.3s0.5-0.7,1-0.9c0.4-0.2,0.9-0.2,1.3,0s0.7,0.4,0.9,0.9c0.2,0.4,0.2,0.9,0,1.2C87,92.3,86.7,92.6,86.2,92.8z
		 M90,97.8c-0.4,0.2-0.9,0.5-1.2,0.4c-0.4,0-0.9-0.2-1.2-0.6s-0.4-0.9-0.4-1.3c0.1-0.4,0.2-0.9,0.7-1.1s0.9-0.2,1.3-0.2
		s0.9,0.2,1.1,0.5c0.2,0.2,0.4,0.7,0.4,1.2C90.5,97.2,90.4,97.6,90,97.8z M94.8,102.1c-0.2,0.4-0.7,0.6-1.1,0.6s-0.9-0.1-1.3-0.4
		c-0.5-0.2-0.6-0.7-0.6-1.2c0-0.4,0.1-0.9,0.4-1.2c0.2-0.2,0.7-0.5,1.2-0.5c0.4,0,0.9,0.1,1.2,0.2c0.4,0.2,0.5,0.7,0.6,1.1
		C95,101.4,95,101.8,94.8,102.1z M94.6,82.2c-1.5-0.9-2.2-4.2-1.1-4.7c0.6-0.2,1.3,0,2.3,0.2c0.5,0.2,1,0.4,1.5,0.6
		c0.6,0.2,1.2,0.4,1.8,0.7c1.2,0.5,2.2,0.9,2.7,1.2c0.5,0.2,0.6,0.6,0.1,0.9c-0.2,0.1-1.7,0.5-3.3,0.9C97,82.3,95,82.5,94.6,82.2z
		 M100.4,105.4c-0.2,0.4-0.5,0.7-1,0.9c-0.4,0.1-0.9,0.1-1.5-0.1c-0.4-0.2-0.7-0.6-0.9-1.1c-0.1-0.4-0.1-0.9,0.2-1.3s0.6-0.6,1-0.9
		c0.4-0.1,0.9-0.1,1.2,0.1c0.4,0.2,0.7,0.5,0.9,0.9C100.6,104.5,100.6,105,100.4,105.4z M98.7,90c-0.5-0.2-1-0.7-1.5-1.1
		s-0.7-0.9-0.9-1.1c-0.4-0.9-0.2-1.6,0.9-2.4c1-0.9,2.6-1.5,4-1.7c1.5-0.2,3.1-0.4,3.9-0.1c2,0.6,2.1,1.1,0.9,2.2
		c-0.2,0.2-1.5,1.6-3.2,2.8C101.5,89.8,99.7,90.6,98.7,90z M106.6,107.4c-0.1,0.5-0.2,0.9-0.7,1.1c-0.4,0.2-0.9,0.2-1.3,0.2
		c-0.5-0.1-0.9-0.4-1.1-0.9c-0.2-0.4-0.2-0.9-0.2-1.3c0.1-0.4,0.4-0.9,0.9-1c0.4-0.2,0.9-0.2,1.2-0.2c0.4,0.1,0.9,0.4,1,0.7
		C106.6,106.4,106.7,106.9,106.6,107.4z M106.2,95.2c-0.1,0-0.1,0-0.2-0.1c-0.1,0-0.1,0-0.2-0.1c-2.7-1.1-2.7-2.7-2-3.9
		c0.9-1.3,2.7-2.4,3.4-2.8c0.4-0.2,0.9-0.1,1.1,0.1c0.4,0.1,0.7,0.2,0.9,0.7c0.2,0.4,0.4,1.1,0.6,2s0.2,1.7,0.1,2.4
		C110,95,109,96.1,106.2,95.2z M112.4,109.1c-0.2,0.2-0.9,0.5-1.2,0.5c-0.5,0-0.9-0.2-1.2-0.6c-0.2-0.2-0.5-0.9-0.4-1.3
		c0-0.5,0.2-0.9,0.6-1.1c0.2-0.2,0.7-0.4,1.2-0.4c0.4,0,0.9,0.2,1.1,0.5c0.2,0.2,0.5,0.7,0.5,1.2C113,108.5,112.8,108.9,112.4,109.1
		z M112.6,92.3c-0.4-2-0.4-3.9-0.4-4.2c-0.1-1.5,0.4-2,2.2-1c0.9,0.4,2.1,1.5,2.9,2.7c0.9,1.2,1.6,2.7,1.8,3.9
		c0.4,2.7-1.7,2.7-4.3,2.4C113.7,96,113,94.2,112.6,92.3z M119,108.7c-0.2,0.4-0.6,0.6-1.1,0.7s-0.9-0.1-1.3-0.4
		c-0.5-0.2-0.6-0.7-0.6-1.2s0.1-0.9,0.2-1.2c0.2-0.2,0.6-0.6,1-0.6c0.4-0.1,0.9,0.1,1.2,0.2c0.2,0.2,0.6,0.6,0.7,1.1
		C119.4,108,119.3,108.4,119,108.7z M125.3,106.8c-0.1,0.4-0.4,0.7-0.9,0.9c-0.5,0.2-0.9,0.2-1.3,0c-0.5-0.2-0.7-0.5-0.9-1
		c-0.2-0.4-0.1-0.9,0-1.3c0.2-0.4,0.4-0.7,0.9-0.9c0.4-0.2,0.9-0.1,1.2,0c0.4,0.1,0.7,0.4,1,0.9
		C125.4,105.8,125.4,106.3,125.3,106.8z M123.2,93.2c-0.9-0.2-2-1.5-2.9-2.7c-1-1.3-1.8-2.7-2-2.8c-0.5-1.1,1-0.6,3.6,0.4
		c0.6,0.2,1.2,0.5,1.8,0.7c0.6,0.2,1.1,0.4,1.6,0.6c0.9,0.4,1.6,0.9,2,1.3C127.9,91.7,124.8,93.6,123.2,93.2z M130.6,104.5
		c-0.2,0.4-0.5,0.6-0.9,0.9c-0.4,0.1-0.9,0.1-1.2-0.1c-0.4-0.2-0.7-0.5-0.9-0.9c-0.2-0.4-0.2-0.9,0-1.3s0.5-0.7,1-0.9
		c0.5-0.2,0.9-0.1,1.3,0.1c0.4,0.2,0.6,0.6,0.7,1.1C131,103.7,130.9,104.2,130.6,104.5z M137.3,103.7c-0.1,0.4-0.4,0.9-0.7,1
		c-0.4,0.1-0.9,0.2-1.3,0.2s-0.9-0.2-1.2-0.6c-0.2-0.2-0.4-0.7-0.2-1.2c0-0.5,0.2-0.9,0.6-1.2c0.2-0.2,1.1-0.4,1.5-0.2
		c0.5,0.1,1.1,0.4,1.3,0.9C137.4,102.7,137.4,103.1,137.3,103.7z M137.5,91.5c-1.1-0.2-2.7-1.5-2.9-2.3c-0.1-0.4,0.2-0.7,0.9-0.9
		c0.7-0.2,1.6-0.2,2.7,0c2,0.2,3.6,1.5,3.1,2.1C140.6,91,138.8,91.7,137.5,91.5z M142.3,106.8c-0.2,0.2-0.7,0.5-1.1,0.6
		c-0.4,0-0.9,0-1.1-0.2c-0.2-0.2-0.5-0.6-0.5-1s0-0.9,0.2-1.2s0.6-0.7,1-0.7c0.4-0.1,0.9,0,1.3,0.2c0.4,0.2,0.6,0.7,0.6,1.2
		C142.9,106.1,142.6,106.5,142.3,106.8z M146.8,111.1c-0.2,0.4-0.7,0.6-1.2,0.6c-0.4,0-0.9-0.1-1.3-0.5c-0.4-0.4-0.5-0.9-0.5-1.2
		s0.2-0.9,0.6-1.1c0.2-0.2,0.9-0.5,1.2-0.5c0.4,0,0.9,0.1,1.1,0.4c0.2,0.2,0.4,0.7,0.5,1.1C147.1,110.3,147.1,110.7,146.8,111.1z
		 M152,114.4c-0.2,0.4-0.6,0.7-1,0.9c-0.4,0.1-0.9,0.1-1.3-0.1c-0.4-0.2-0.7-0.6-0.9-1c-0.1-0.4,0-0.9,0.2-1.3s0.6-0.6,1-0.9
		c0.4-0.1,0.9-0.1,1.2,0.1c0.4,0.2,0.6,0.5,0.9,0.9C152.5,113.5,152.2,113.9,152,114.4z M150.5,98.1c-1.6-0.2-3.8-3.1-2.8-3.9
		c0.9-0.9,3.3-0.6,6-0.6c2.7-0.1,4.3,0,3.4,0.9c-0.2,0.2-1.5,1.1-2.8,2.1C152.7,97.4,151.2,98.2,150.5,98.1z M158.1,116.5
		c-0.1,0.4-0.4,0.9-0.9,1c-0.4,0.2-0.9,0.2-1.3,0.1c-0.5-0.1-0.9-0.5-1-0.9c-0.2-0.4-0.2-0.9,0-1.3s0.5-0.9,0.9-1
		c0.4-0.2,0.9-0.2,1.2-0.1c0.4,0.1,0.7,0.4,0.9,0.9C158.1,115.6,158.1,116.1,158.1,116.5z M159.1,103.1c-0.6,0.5-1.2,0.9-2,0.7
		c-2.6-0.5-4.5-1.5-3.2-3.8c0.6-1.1,1.8-2.2,3.2-3.2c0.6-0.4,1.3-0.9,2-1c0.6-0.2,1.2-0.5,1.7-0.5c2.1-0.2,2.4,0.2,1.7,1.7
		c-0.2,0.2-0.9,2.1-2,3.8C160.2,101.8,159.7,102.6,159.1,103.1z M163.9,118.7c-0.4,0.2-0.9,0.4-1.3,0.4c-0.5-0.1-0.9-0.2-1.2-0.7
		c-0.4-0.5-0.4-0.9-0.2-1.3c0.1-0.5,0.2-0.9,0.7-1.1c0.2-0.2,0.9-0.4,1.2-0.2c0.4,0.1,0.9,0.2,1.1,0.6c0.2,0.2,0.4,0.9,0.4,1.2
		C164.5,118.1,164.2,118.4,163.9,118.7z M165.9,105.9c-0.1,0-0.1,0-0.2,0c-2.9-0.1-3.6-1.5-3.2-3.1c0.2-1.5,1.6-3.3,2.2-3.9
		c0.2-0.2,0.7-0.4,1.1-0.2c0.4-0.1,0.9,0,1.1,0.2c0.7,0.6,2,2.3,2.2,3.9C169.4,104.3,168.9,105.8,165.9,105.9L165.9,105.9z
		 M170.5,118.4c-0.2,0.4-0.7,0.6-1.2,0.7s-1-0.1-1.3-0.4c-0.2-0.2-0.6-0.7-0.6-1.1c0-0.5,0.1-0.9,0.4-1.2c0.2-0.2,0.6-0.5,1.1-0.6
		c0.4-0.1,0.9,0.1,1.2,0.2c0.2,0.2,0.6,0.6,0.7,1.1C171,117.6,170.8,118.2,170.5,118.4z M177,116.8c-0.2,0.4-0.5,0.7-1,0.9
		c-0.5,0.1-0.9,0.1-1.3-0.1c-0.4-0.2-0.7-0.6-0.9-1c-0.1-0.5-0.1-0.9,0.1-1.3c0.2-0.4,0.5-0.7,0.9-0.9c0.4-0.1,0.9-0.1,1.2,0.1
		c0.4,0.2,0.7,0.5,0.9,1C177.1,116,177.1,116.3,177,116.8z M174.6,103.7c-0.6,0.1-1.3-0.2-2-0.7s-1.2-1.3-1.7-2.1
		c-1-1.6-1.7-3.4-2-3.8c-0.7-1.5-0.4-2,1.7-1.7c0.5,0,1.1,0.2,1.7,0.5c0.6,0.2,1.3,0.6,2,1c1.3,0.9,2.6,2,3.2,3.2
		C179.2,102.4,177.1,103.2,174.6,103.7z M183,114c-0.1,0.4-0.4,0.9-0.9,1s-0.9,0.2-1.3,0.1c-0.4-0.1-0.9-0.4-1-0.9
		c-0.2-0.4-0.2-0.9-0.1-1.3c0.1-0.4,0.4-0.7,0.9-0.9c0.4-0.2,0.9-0.2,1.2-0.1c0.4,0.1,0.9,0.4,1,0.9
		C182.8,113.3,183.1,113.6,183,114z M181.4,98.1c-0.9,0.1-2.3-0.6-3.8-1.5s-2.7-1.8-2.8-2.1c-0.9-0.9,0.7-0.9,3.4-0.9s5.1-0.2,6,0.6
		C185.2,95,183.1,97.8,181.4,98.1z M187.5,111.3c-0.4,0.4-0.9,0.5-1.3,0.5c-0.4,0-0.9-0.2-1.2-0.6c-0.2-0.4-0.4-0.9-0.4-1.2
		s0.2-0.9,0.5-1.1c0.2-0.2,0.7-0.4,1.1-0.4c0.4,0,0.9,0.1,1.2,0.5c0.2,0.2,0.5,0.7,0.6,1.1C188.1,110.5,187.9,111,187.5,111.3z
		 M192.4,106.2c0,0.4-0.2,0.7-0.5,1c-0.2,0.2-0.7,0.2-1.1,0.2c-0.4-0.1-0.9-0.2-1.1-0.6c-0.2-0.2-0.5-0.9-0.4-1.2
		c0-0.4,0.2-0.9,0.6-1.2c0.4-0.2,0.9-0.4,1.3-0.2c0.4,0.1,0.9,0.2,1,0.7C192.3,105.2,192.4,105.7,192.4,106.2z M190.7,90.4
		c-0.5-0.6,1.1-1.6,3.1-2.1c0.9-0.2,2-0.1,2.7,0s1.1,0.4,0.9,0.9c-0.2,0.9-2,2.1-2.9,2.3C193.2,91.7,191.3,91,190.7,90.4z
		 M197.8,104.3c-0.2,0.2-0.9,0.6-1.2,0.6c-0.4,0.1-1,0-1.3-0.2c-0.4-0.2-0.6-0.6-0.7-1c-0.1-0.5-0.1-0.9,0.1-1.3
		c0.2-0.4,0.9-0.7,1.3-0.9c0.5-0.1,1.2,0,1.5,0.2c0.2,0.2,0.5,0.7,0.6,1.2C198.3,103.5,198.1,104,197.8,104.3z M204,104.2
		c-0.2,0.4-0.5,0.7-0.9,0.9c-0.4,0.1-0.9,0.2-1.2,0.1c-0.4-0.1-0.7-0.4-0.9-0.9c-0.2-0.4-0.2-0.9-0.2-1.3c0.1-0.5,0.2-0.9,0.7-1.1
		c0.4-0.2,0.9-0.2,1.3-0.1c0.5,0.2,0.9,0.5,1,0.9C204.3,103.4,204.3,103.7,204,104.2z M209.7,106.8c-0.2,0.4-0.5,0.9-0.9,1
		c-0.4,0.2-0.9,0.2-1.3,0c-0.5-0.2-0.9-0.5-0.9-0.9c-0.1-0.4-0.1-0.9,0.1-1.3c0.2-0.4,0.6-0.7,1-0.9c0.4-0.1,0.9-0.2,1.2,0
		c0.4,0.2,0.6,0.5,0.9,0.9C209.9,105.8,210,106.2,209.7,106.8z M208.7,93.2c-1.6,0.4-4.5-1.5-3.9-2.7c0.2-0.5,1-0.9,2-1.3
		c0.5-0.2,1-0.4,1.6-0.6s1.2-0.4,1.8-0.7c2.4-1,3.9-1.5,3.6-0.4c-0.1,0.2-0.9,1.5-2,2.8C210.6,91.7,209.4,93,208.7,93.2z
		 M215.9,107.9c0,0.5-0.2,0.9-0.6,1.2c-0.4,0.2-0.9,0.4-1.3,0.4c-0.5-0.1-0.9-0.2-1.1-0.7c-0.2-0.5-0.2-0.9-0.2-1.3
		c0.1-0.5,0.4-0.9,0.7-1.1c0.2-0.2,0.7-0.4,1.2-0.2c0.4,0,0.9,0.2,1,0.6C215.8,106.9,215.9,107.4,215.9,107.9z M217,96.3
		c-2.6,0.2-4.7,0.2-4.3-2.4c0.2-1.3,0.9-2.7,1.8-3.9c0.9-1.2,2-2.3,2.9-2.7c1.8-0.9,2.3-0.5,2.2,1c0,0.4-0.1,2.2-0.4,4.2
		C218.8,94.2,218.1,96,217,96.3z M221.9,109.1c-0.2,0.2-0.7,0.6-1.2,0.6s-0.9-0.2-1.2-0.5c-0.2-0.2-0.5-0.7-0.5-1.2s0.2-0.9,0.5-1.2
		c0.2-0.2,0.7-0.5,1.1-0.5c0.4,0,0.9,0.1,1.2,0.4c0.2,0.2,0.5,0.7,0.6,1.1C222.4,108.3,222.1,108.7,221.9,109.1z M228.5,107.9
		c-0.2,0.4-0.6,0.7-1.1,0.9c-0.5,0.1-1,0-1.3-0.2c-0.4-0.2-0.6-0.6-0.7-1.1c-0.1-0.5,0-0.9,0.2-1.3s0.6-0.6,1-0.7s0.9,0,1.2,0.2
		c0.4,0.2,0.7,0.6,0.9,1C228.8,107,228.6,107.4,228.5,107.9z M225.7,95.2c-2.7,1.1-3.9-0.1-4-1.6c-0.1-0.9,0-1.6,0.1-2.4
		c0.2-0.9,0.4-1.5,0.6-2s0.5-0.6,0.9-0.7c0.2-0.2,0.7-0.2,1.1-0.1c0.9,0.2,2.7,1.5,3.4,2.8C228.6,92.5,228.6,93.9,225.7,95.2
		C225.8,95,225.8,95,225.7,95.2C225.8,95,225.7,95,225.7,95.2z M234.8,105.1c-0.1,0.4-0.4,0.9-0.9,1.1c-0.4,0.2-0.9,0.2-1.5,0.1
		c-0.4-0.1-0.9-0.4-1-0.9c-0.2-0.4-0.2-0.9-0.1-1.3c0.1-0.4,0.4-0.7,0.9-0.9c0.4-0.2,0.9-0.2,1.2-0.1c0.4,0.1,0.9,0.4,1,0.9
		C234.8,104.2,234.9,104.7,234.8,105.1z M235.6,87.7c-0.2,0.4-0.5,0.9-0.9,1.1c-0.4,0.4-0.9,0.7-1.5,1.1c-1.1,0.7-2.8-0.2-4.4-1.5
		c-1.5-1.1-2.8-2.6-3.2-2.8c-1.1-1.1-1-1.7,0.9-2.2c1-0.2,2.4-0.2,3.9,0.1c1.5,0.2,3.1,0.9,4,1.7C235.7,86.2,236,87,235.6,87.7z
		 M233.3,82.2c-1.6-0.2-3.1-0.7-3.3-0.9c-0.5-0.2-0.5-0.5,0.1-0.9c0.5-0.2,1.5-0.7,2.7-1.2c0.6-0.2,1.2-0.5,1.8-0.7s1.1-0.5,1.5-0.6
		c0.9-0.2,1.7-0.5,2.3-0.2c1.1,0.4,0.2,3.9-1.1,4.7C236.6,82.5,234.9,82.3,233.3,82.2z M239.4,102.4c-0.4,0.2-0.9,0.4-1.3,0.4
		c-0.5-0.1-0.9-0.2-1.1-0.6s-0.4-0.9-0.2-1.2c0-0.4,0.2-0.9,0.6-1.1c0.4-0.2,0.9-0.4,1.2-0.2c0.4,0,0.9,0.2,1.2,0.5
		c0.4,0.2,0.5,0.9,0.4,1.2C240.1,101.6,239.9,102,239.4,102.4z M244.2,97.7c-0.2,0.4-0.9,0.6-1.2,0.6c-0.4,0-0.9-0.1-1.2-0.4
		c-0.4-0.2-0.5-0.7-0.6-1.1c0-0.4,0.1-0.9,0.4-1.2c0.2-0.2,0.7-0.5,1.1-0.5c0.4,0,0.9,0.1,1.3,0.2c0.4,0.2,0.6,0.7,0.7,1.1
		C244.7,96.9,244.7,97.4,244.2,97.7z M244.7,68.5c0.9-0.5,1.6-0.9,2.3-1c0.6-0.1,1.1,0,1.2,0.4c0,0.4-0.2,1.1-0.5,1.7
		c-0.2,0.6-0.9,1.2-1.2,1.5c-0.9,0.6-2.9,0.7-3.7,0.2C242.2,71.2,243.2,69.7,244.7,68.5z M248,92c-0.2,0.5-0.6,0.9-1,0.9
		c-0.4,0.1-0.9,0.1-1.3-0.1c-0.4-0.2-0.7-0.6-0.9-1c-0.1-0.4-0.1-0.9,0-1.2c0.2-0.4,0.5-0.6,0.9-0.9c0.4-0.2,0.9-0.2,1.3,0
		c0.4,0.2,0.9,0.5,1,0.9C248.2,91.1,248.2,91.6,248,92z M250.3,86.6c-0.2,0.2-0.5,0.6-0.9,0.7s-0.9,0.1-1.3-0.1
		c-0.4-0.2-0.7-0.5-0.9-0.9c-0.1-0.4-0.1-0.9,0.1-1.3c0.2-0.4,0.6-0.7,1.1-0.9c0.4-0.1,0.9,0,1.3,0.2c0.4,0.2,0.6,0.7,0.7,1
		C250.6,85.8,250.6,86.2,250.3,86.6z M254.8,81.6c-0.1,0.4-0.5,0.9-0.9,1.1c-0.2,0.2-0.9,0.4-1.3,0.2c-0.4-0.1-0.9-0.2-1.1-0.6
		c-0.2-0.4-0.4-0.9-0.4-1.2c0.1-0.4,0.5-1,0.9-1.3c0.4-0.2,1.1-0.4,1.5-0.2c0.4,0.1,0.9,0.4,1,0.9C254.8,80.7,254.8,81.1,254.8,81.6
		z M260.1,80.2c-0.2,0.2-0.6,0.5-1,0.6c-0.4,0-0.9-0.1-1.1-0.2c-0.2-0.2-0.6-0.6-0.7-1.1s0-0.9,0.2-1.3s0.7-0.6,1.2-0.6
		c0.5-0.1,0.9,0.1,1.3,0.4c0.2,0.2,0.5,0.7,0.5,1.2C260.6,79.4,260.5,79.8,260.1,80.2z M261.8,61.2c0,0.2-0.1,0.6-0.1,1
		c-0.1,0.4-0.1,0.7-0.2,1.1c-0.2,1.5-0.9,3.3-1.5,3.8s-1.8,0.6-2.8,0.5c-1-0.2-1.8-0.6-1.8-1.2s0.5-1.2,1.1-2.1
		c0.7-0.7,1.5-1.6,2.4-2.6c0.4-0.5,0.9-0.9,1.2-1.2c0.2-0.4,0.6-0.6,0.9-0.9c0.5-0.4,0.9-0.2,0.9,0.2
		C261.9,60.1,261.8,60.6,261.8,61.2z M266.3,80.1c-0.2,0.2-0.7,0.6-1.2,0.6s-0.9-0.2-1.2-0.5c-0.2-0.2-0.4-0.7-0.4-1.2
		s0.2-0.9,0.5-1.2c0.2-0.2,0.7-0.5,1.1-0.5s0.9,0.2,1.1,0.4c0.2,0.2,0.5,0.7,0.6,1.2C266.8,79.2,266.7,79.8,266.3,80.1z M268.7,66.3
		c-1,0.7-2.1,1.3-2.9,1.3c-0.9,0-1.5-0.4-2-1.6c-0.2-1.2-0.2-2.8-0.1-4.4c0.1-0.7,0.2-1.5,0.5-2.1c0.2-0.6,0.5-1.1,0.9-1.6
		c1.2-1.6,1.7-1.5,2.4-0.1c0.1,0.2,1,2.1,1.5,3.9c0.1,0.5,0.2,0.9,0.2,1.5c0.1,0.4,0.1,0.9,0.1,1.3
		C269.5,65.3,269.4,65.9,268.7,66.3z M272.8,78.6c-0.2,0.4-0.6,0.7-1,0.9c-0.5,0.1-0.9,0.1-1.3-0.1s-0.6-0.6-0.7-1
		c-0.1-0.5,0-0.9,0.2-1.3s0.5-0.7,0.9-0.9c0.4-0.1,0.9-0.1,1.2,0.1c0.4,0.2,0.7,0.5,0.9,1C273,77.6,273,78.1,272.8,78.6z
		 M278.8,75.7c-0.1,0.4-0.4,0.9-0.9,1.1c-0.4,0.2-0.9,0.2-1.3,0.2c-0.4-0.1-0.9-0.4-1-0.9c-0.2-0.4-0.2-0.9-0.1-1.3s0.4-0.9,0.9-1
		c0.4-0.2,0.9-0.2,1.2-0.2c0.4,0.1,0.9,0.4,1,0.9C278.8,74.7,279.1,75.1,278.8,75.7z M283.7,72.6c-0.4,0.2-0.9,0.5-1.3,0.5
		c-0.5,0-0.9-0.2-1.1-0.6s-0.4-0.9-0.2-1.3c0.1-0.4,0.2-0.9,0.6-1.1s0.9-0.4,1.2-0.4s0.9,0.2,1.2,0.5c0.2,0.2,0.5,0.9,0.4,1.2
		C284.2,71.9,284.1,72.4,283.7,72.6z M276,61.2c-2.1,2.2-3.4,1.6-4.4,0.2c-1-1.3-1.3-3.3-1.3-4.2c0-0.2,0-0.4,0.1-0.6
		s0.2-0.2,0.2-0.5c0.2-0.2,0.5-0.5,0.9-0.6c0.9-0.1,2.9,0.1,4.4,0.9c1.5,0.7,2.1,2.1,0.2,4.4L276,61C276.1,61.2,276,61.2,276,61.2z
		 M288.5,67.2c-0.2,0.4-0.7,0.7-1.2,0.9c-0.5,0.1-0.9,0-1.3-0.2s-0.6-0.7-0.7-1.1s0-0.9,0.2-1.2c0.2-0.4,0.6-0.6,1.1-0.7
		c0.4-0.1,0.9-0.1,1.3,0.2c0.4,0.2,0.7,0.6,0.9,1C288.9,66.3,288.9,66.7,288.5,67.2z M291.9,61c-0.2,0.5-0.6,0.9-1,1
		c-0.4,0.2-0.9,0.2-1.3,0c-0.5-0.2-0.7-0.5-0.9-0.9c-0.2-0.4-0.2-0.9,0-1.3c0.2-0.4,0.5-0.7,0.9-0.9s0.9-0.2,1.3-0.1
		c0.5,0.1,0.9,0.4,1,0.9C292.1,60,292.1,60.5,291.9,61z M293.9,54.3c-0.1,0.5-0.4,0.9-0.9,1.2c-0.4,0.2-0.9,0.4-1.3,0.2
		c-0.5-0.1-0.9-0.4-1.1-0.7c-0.2-0.4-0.2-0.9-0.2-1.2c0.1-0.4,0.2-0.9,0.7-1.1c0.5-0.2,0.9-0.4,1.3-0.4s0.9,0.2,1.1,0.6
		C293.8,53.4,293.9,53.8,293.9,54.3z M293.7,48.7c-0.2,0.4-0.7,0.6-1.2,0.6s-0.9-0.1-1.2-0.4c-0.2-0.2-0.5-0.6-0.6-1
		c0-0.4,0.1-0.9,0.4-1.2s0.6-0.6,1.1-0.7c0.5-0.1,0.9,0,1.3,0.2s0.6,0.6,0.7,1.1C294.1,48,293.9,48.4,293.7,48.7z M294.1,36.1
		c-0.2,0.4-0.6,0.9-0.9,1c-0.4,0.2-0.9,0.2-1.3,0.1c-0.5-0.1-0.9-0.4-1-0.9c-0.2-0.4-0.1-1.1,0.1-1.5s0.6-1,1-1.1s0.9-0.1,1.3,0.1
		c0.4,0.2,0.7,0.6,0.9,0.9C294.3,35,294.3,35.6,294.1,36.1z M297.3,31.5c-0.2,0.2-0.7,0.4-1.1,0.2c-0.4,0-0.9-0.2-1.2-0.5
		c-0.2-0.2-0.5-0.7-0.5-1.2c0-0.4,0.2-0.9,0.5-1.2c0.4-0.2,0.9-0.5,1.2-0.4c0.4,0,0.9,0.2,1.1,0.6s0.4,0.9,0.4,1.2
		C297.7,30.9,297.7,31.4,297.3,31.5z M295.5,8.7c-1.5-0.4-3.2-1.6-3.8-2.2c-0.2-0.2-0.4-0.7-0.2-1c-0.1-0.4,0-0.7,0.2-1
		c0.6-0.6,2.2-1.8,3.8-2.2c1.6-0.4,2.9,0.1,3.1,3.2c0,0.1,0,0.1,0,0.2s0,0.1,0,0.2C298.4,8.6,297,9.2,295.5,8.7z M302.1,27.8
		c-0.4,0.2-0.9,0.4-1.3,0.2c-0.4-0.1-0.9-0.2-1-0.7c-0.2-0.4-0.2-0.9-0.2-1.3c0.1-0.5,0.2-0.9,0.6-1.1c0.2-0.2,0.7-0.4,1.1-0.2
		c0.4,0,0.9,0.2,1.1,0.6s0.5,0.9,0.4,1.3C302.7,27.1,302.6,27.6,302.1,27.8z M306.9,22.7c-0.2,0.4-0.7,0.7-1.1,0.7
		c-0.4,0.1-0.9-0.1-1.2-0.4c-0.4-0.2-0.5-0.7-0.6-1.2c-0.1-0.4,0-0.9,0.2-1.3s0.6-0.6,1-0.7s0.9,0,1.3,0.2s0.7,0.7,0.7,1.1
		C307.1,21.7,307,22.2,306.9,22.7z M309.9,16.3c-0.2,0.5-0.5,0.9-0.9,1c-0.4,0.2-0.9,0.2-1.3-0.1c-0.4-0.2-0.7-0.6-0.9-1
		c-0.2-0.4-0.2-0.9,0-1.3c0.2-0.4,0.5-0.9,0.9-1s0.9-0.2,1.3-0.1c0.4,0.2,0.9,0.5,1,0.9C310.1,15.2,310.1,15.8,309.9,16.3z
		 M311.7,9.2c-0.1,0.5-0.2,1-0.7,1.2c-0.4,0.2-0.9,0.4-1.3,0.2c-0.5-0.1-0.9-0.4-1.1-0.9c-0.2-0.4-0.4-0.9-0.2-1.3
		c0.1-0.5,0.2-0.9,0.6-1.1c0.2-0.2,0.9-0.4,1.2-0.4c0.5,0,0.9,0.2,1.1,0.7C311.7,8.1,311.7,8.6,311.7,9.2z"/>
	<path class="st0" d="M138.3,37.4c-0.6-0.4-1.7-1.5-2.6-1.6c-1.1-0.1-1.7,0.9-2.5,1.2c-0.1,0-0.2,0-0.3,0.1v-0.4
		c0.4-0.1,0.9-0.3,1.3-0.5c0.9-0.6,1.6-1.7,0.9-2.9c-0.5-0.8-1.6-1.1-2.4-0.6c-0.5,0.3-0.8,0.9-0.7,1.5c0,0.3,0.3,0.6,0.5,0.8
		c0.4,0.4,0.9,0.4,1.3,0.2c0.5-0.3,0.5-0.7,0.5-1c0-0.1-0.1-0.2-0.2-0.2v0.1c0,0.2-0.1,0.4-0.4,0.6c-0.4,0.2-1,0-1.1-0.4
		c-0.2-0.6,0.3-1.1,0.8-1.1c0.5-0.1,1.1,0.2,1.3,0.6c0.2,0.4,0.3,1,0,1.5c-0.4,0.6-0.9,1.1-1.5,1.3c-0.1,0-0.2,0-0.3,0.1l0,0
		c0-0.1,0-0.3-0.1-0.3h-0.2c0,0-0.1,0.1-0.1,0.3v0.1c-0.1,0-0.2,0-0.3,0v-0.2c0-0.1,0-0.3-0.1-0.3h-0.2c-0.1,0-0.1,0.1-0.1,0.3v0.1
		c-0.2,0-0.5-0.1-0.7-0.3c-0.4-0.2-0.7-0.6-0.6-1c0.1-0.6,0.8-0.7,0.9,0c0,0.1,0,0.5,0.2,0.3c0.1-0.1,0.2-0.2,0.2-0.6
		c0-0.2-0.2-0.5-0.4-0.6s-0.4-0.2-0.8,0c-0.3,0.1-0.4,0.4-0.5,0.6c-0.1,0.4,0,0.7,0.2,1c0.1,0.2,0.3,0.4,0.4,0.4
		c0.2,0.2,0.5,0.3,0.7,0.3c0.1,0,0.3,0,0.4,0v0.4c-0.3,0-0.6-0.2-1-0.4c-0.2-0.2-0.5-0.5-1-0.4c-0.5,0-2.5,1.1-2.5,1.1
		s2,1.1,2.5,1.1c0.4,0,0.8-0.2,1-0.4c0.4-0.2,0.7-0.4,1-0.4v0.4c-0.1,0-0.3,0-0.4,0c-0.3,0-0.5,0.1-0.7,0.3
		c-0.2,0.1-0.4,0.3-0.4,0.4c-0.2,0.3-0.3,0.7-0.2,1c0,0.2,0.2,0.4,0.5,0.6c0.4,0.2,0.7,0.1,0.8,0c0.2-0.1,0.4-0.4,0.4-0.6
		c0-0.3-0.1-0.5-0.2-0.5c-0.3-0.2-0.2,0.1-0.3,0.3c-0.1,0.6-0.8,0.5-0.9,0c0-0.4,0.2-0.8,0.6-1c0.2-0.1,0.5-0.2,0.7-0.3v0.1
		c0,0.1,0,0.3,0.1,0.3h0.2c0.1,0,0.1-0.1,0.1-0.3v-0.1c0.1,0,0.2,0,0.3,0v0.1c0,0.1,0,0.3,0.1,0.3h0.2c0,0,0.1-0.1,0.1-0.3l0,0
		c0.1,0,0.2,0,0.3,0.1c0.7,0.3,1.1,0.7,1.5,1.3c0.2,0.4,0.2,1.1,0,1.5c-0.3,0.4-0.8,0.7-1.3,0.6c-0.5-0.1-1-0.6-0.8-1.1
		c0.2-0.4,0.7-0.7,1.1-0.4c0.3,0.1,0.3,0.4,0.4,0.6v0.1c0,0,0.1-0.1,0.2-0.2c0.1-0.3,0-0.7-0.5-1c-0.4-0.3-0.8-0.2-1.3,0.2
		c-0.3,0.2-0.4,0.5-0.5,0.8c-0.1,0.6,0.2,1.1,0.7,1.5c0.7,0.4,1.9,0.2,2.3-0.5c0.7-1.2,0-2.2-0.9-2.9c-0.4-0.3-0.8-0.4-1.3-0.5V38
		c0.1,0,0.2,0,0.3,0.1c0.8,0.3,1.5,1.3,2.5,1.2s2.1-1.2,2.7-1.6l0,0L138.3,37.4z M132.2,36.7c0.1,0,0.2,0,0.3,0v0.5
		c-0.1,0-0.2,0-0.3,0V36.7z M130.5,38c-0.2,0.1-0.3,0-0.4,0c-0.2,0-0.4-0.2-0.9-0.6l0,0c0.5-0.4,0.7-0.5,0.9-0.6
		c0.1,0,0.3-0.1,0.4,0c0.4,0.2,1,0.4,1.3,0.5v0.1C131.4,37.6,130.8,37.8,130.5,38z M132.4,38.2c-0.1,0-0.2,0-0.3,0v-0.4
		c0.1,0,0.2,0,0.3,0V38.2z M135.1,38.4H135c-0.4,0-0.7-0.2-1.3-0.6c-0.1-0.1-0.4-0.3-0.9-0.4v-0.1c0.4-0.1,0.7-0.3,0.9-0.4
		c0.6-0.4,0.8-0.6,1.3-0.6h0.1c0.5,0.1,1.2,0.5,1.9,1C136.4,37.9,135.7,38.4,135.1,38.4z"/>
	<path class="st0" d="M200.7,36.3c-0.4,0-0.8,0.2-1,0.4c-0.4,0.2-0.7,0.4-1,0.4v-0.4c0.1,0,0.3,0,0.4,0c0.3,0,0.5-0.1,0.7-0.3
		c0.2-0.1,0.4-0.3,0.4-0.4c0.2-0.3,0.3-0.7,0.2-1c0-0.2-0.2-0.4-0.5-0.6c-0.4-0.2-0.7-0.1-0.8,0c-0.2,0.1-0.4,0.4-0.4,0.6
		c0,0.3,0.1,0.5,0.2,0.5c0.2,0.2,0.2-0.2,0.2-0.3c0.1-0.6,0.8-0.5,0.9,0c0,0.4-0.2,0.8-0.6,1c-0.2,0.1-0.5,0.2-0.7,0.3v-0.1
		c0-0.1,0-0.3-0.1-0.3h-0.2c-0.1,0-0.1,0.1-0.1,0.3v0.1c-0.1,0-0.2,0-0.3,0v-0.1c0-0.1,0-0.3-0.1-0.3h-0.2c0,0-0.1,0.1-0.1,0.3l0,0
		c-0.1,0-0.2,0-0.3-0.1c-0.7-0.3-1.1-0.7-1.5-1.3c-0.2-0.4-0.2-1.1,0-1.5c0.3-0.4,0.8-0.7,1.3-0.6c0.5,0.1,1,0.6,0.8,1.1
		c-0.2,0.4-0.7,0.7-1.1,0.4c-0.3-0.1-0.3-0.4-0.4-0.6v-0.1c0,0-0.1,0.1-0.2,0.2c-0.1,0.3,0,0.7,0.5,1c0.4,0.3,0.8,0.2,1.3-0.2
		c0.3-0.2,0.4-0.5,0.5-0.8c0.1-0.6-0.2-1.1-0.7-1.5c-0.7-0.4-1.9-0.2-2.3,0.5c-0.7,1.2,0,2.2,0.9,2.9c0.4,0.3,0.8,0.4,1.3,0.5v0.4
		c-0.1,0-0.2,0-0.3-0.1c-0.8-0.3-1.5-1.3-2.5-1.2s-2.1,1.2-2.7,1.6l0,0l0,0c0.6,0.4,1.7,1.5,2.7,1.6c1.1,0.1,1.7-0.9,2.5-1.2
		c0.1,0,0.2,0,0.3-0.1v0.4c-0.4,0.1-0.9,0.3-1.3,0.5c-0.9,0.6-1.6,1.7-0.9,2.9c0.5,0.8,1.6,1,2.3,0.5c0.5-0.3,0.8-0.9,0.7-1.5
		c0-0.3-0.3-0.6-0.5-0.8c-0.4-0.4-0.9-0.4-1.3-0.2c-0.5,0.3-0.6,0.7-0.5,1c0,0.1,0.1,0.2,0.2,0.2v-0.1c0-0.2,0.1-0.4,0.4-0.6
		c0.4-0.2,1,0,1.1,0.4c0.2,0.6-0.3,1.1-0.8,1.1c-0.5,0.1-1.1-0.2-1.3-0.6c-0.2-0.4-0.3-1,0-1.5c0.4-0.6,0.9-1.1,1.5-1.3
		c0.1,0,0.2,0,0.3-0.1l0,0c0,0.1,0,0.3,0.1,0.3h0.2c0,0,0.1-0.1,0.1-0.3v-0.1c0.1,0,0.2,0,0.3,0v0.1c0,0.1,0,0.3,0.1,0.3h0.2
		c0.1,0,0.1-0.1,0.1-0.3V38c0.3,0,0.5,0.1,0.7,0.3c0.4,0.2,0.7,0.6,0.6,1c-0.1,0.6-0.8,0.7-0.9,0c0-0.1,0-0.5-0.2-0.3
		c0,0-0.2,0.2-0.2,0.5s0.2,0.5,0.4,0.6s0.4,0.2,0.8,0c0.3-0.1,0.4-0.4,0.5-0.6c0.1-0.3,0-0.7-0.2-1c-0.1-0.2-0.3-0.4-0.4-0.4
		c-0.2-0.1-0.5-0.2-0.7-0.3c-0.1,0-0.3,0-0.4,0v-0.4c0.3,0,0.6,0.2,1,0.4c0.3,0.2,0.6,0.5,1,0.4s2.5-1.1,2.5-1.1
		S201.1,36.4,200.7,36.3z M198.1,36.7c0.1,0,0.2,0,0.3,0v0.4c-0.1,0-0.2,0-0.3,0V36.7z M196.8,37.8c-0.6,0.4-0.8,0.6-1.3,0.6h-0.1
		c-0.5-0.1-1.2-0.5-1.9-1c0.6-0.4,1.3-0.9,1.9-1h0.1c0.4,0,0.7,0.2,1.3,0.6c0.1,0.1,0.4,0.3,0.9,0.4v0.1
		C197.2,37.6,196.9,37.8,196.8,37.8z M198.3,38.2c-0.1,0-0.2,0-0.3,0v-0.4c0.1,0,0.2,0,0.3,0V38.2z M200.5,38c-0.1,0-0.3,0.1-0.4,0
		c-0.4-0.2-1-0.4-1.3-0.5v-0.1c0.4-0.1,1-0.3,1.3-0.5c0.2-0.1,0.3,0,0.4,0c0.2,0,0.4,0.2,0.9,0.6l0,0C200.9,37.8,200.7,38,200.5,38z
		"/>
	<text transform="matrix(1 0 0 1 140.3383 40.5961)" class="st2 st3 st4">第　　　　話</text>
</g>
<g id="素材">
</g>
</svg>
