<?xml version="1.0" encoding="utf-8"?>
<!-- Generator: Adobe Illustrator 24.2.3, SVG Export Plug-In . SVG Version: 6.00 Build 0)  -->
<svg version="1.1" id="レイヤー_1" xmlns="http://www.w3.org/2000/svg" xmlns:xlink="http://www.w3.org/1999/xlink" x="0px"
	 y="0px" viewBox="0 0 42.519684 42.519684" style="enable-background:new 0 0 42.519684 42.519684;" xml:space="preserve">
<style type="text/css">
	.st0{fill:#C5C6C6;}
</style>
<g>
	<path class="st0" d="M15.617472,7.8854c1.849876,2.204596,6.366833,12.766548,5.642366,13.374447
		c-0.724449,0.607885-10.341582-5.674509-12.191459-7.879105C7.21849,11.17613,7.184926,8.158784,8.993406,6.641288
		S13.767581,5.680788,15.617472,7.8854z"/>
	<path class="st0" d="M6.856041,19.459055c2.834183-0.499748,14.239582,0.869446,14.403797,1.800793
		c0.164232,0.931332-10.085047,6.118834-12.919244,6.618567c-2.834167,0.499737-5.464066-0.979874-5.874005-3.3048
		C2.056635,22.248672,4.021859,19.958805,6.856041,19.459055z"/>
	<path class="st0" d="M12.498422,32.833519c0.984293-2.704361,7.87275-11.897133,8.761416-11.573671
		c0.888681,0.323446,0.256552,11.793329-0.727755,14.497675s-3.580643,4.242081-5.799077,3.434635
		C12.514585,38.384727,11.514132,35.537849,12.498422,32.833519z"/>
	<path class="st0" d="M26.902222,34.634281c-1.849876-2.204597-6.366833-12.766548-5.642384-13.374434
		c0.724466-0.607899,10.341599,5.674494,12.191475,7.879089c1.849888,2.204613,1.883438,5.221972,0.074955,6.73947
		C31.717789,37.395901,28.752111,36.838894,26.902222,34.634281z"/>
	<path class="st0" d="M35.663651,23.060625c-2.834183,0.499748-14.23958-0.869446-14.403812-1.800777
		c-0.164215-0.931347,10.085062-6.118849,12.919243-6.618568c2.834183-0.499749,5.464085,0.97986,5.874008,3.3048
		C40.463039,20.271021,38.497833,22.560875,35.663651,23.060625z"/>
	<path class="st0" d="M30.021254,9.686175c-0.984276,2.704348-7.872734,11.897119-8.761415,11.573672
		c-0.888666-0.323462-0.256535-11.793344,0.727772-14.497688s3.580626-4.242068,5.799059-3.434622
		C30.005106,4.134953,31.00556,6.98183,30.021254,9.686175z"/>
</g>
</svg>
