<?xml version="1.0" encoding="utf-8"?>
<!-- Generator: Adobe Illustrator 24.2.1, SVG Export Plug-In . SVG Version: 6.00 Build 0)  -->
<svg version="1.1" id="レイヤー_1" xmlns="http://www.w3.org/2000/svg" xmlns:xlink="http://www.w3.org/1999/xlink" x="0px"
	 y="0px" viewBox="0 0 39.7 39.7" style="enable-background:new 0 0 39.7 39.7;" xml:space="preserve">
<style type="text/css">
	.st0{fill:#AAAAAA;}
	.st1{enable-background:new    ;}
	.st2{fill:#FFFFFF;}
</style>
<rect x="-24.5" y="8.4" transform="matrix(0.7071 -0.7071 0.7071 0.7071 -6.1353 14.9018)" class="st0" width="78.8" height="12.9"/>
<g class="st1">
	<path class="st2" d="M8.2,26.1c-0.7,0.7-1.4,1.1-2.2,1.1c-0.8,0-1.6-0.3-2.3-1.1c-0.7-0.7-1.1-1.5-1.1-2.3c0-0.8,0.4-1.5,1.1-2.2
		c0.3-0.3,0.6-0.6,0.9-0.8c0.1-0.1,0.3-0.1,0.4-0.1c0.2,0,0.3,0.1,0.4,0.2l0,0c0.1,0.1,0.1,0.2,0.1,0.3s-0.1,0.2-0.2,0.3
		C5,21.7,4.7,22,4.5,22.2c-0.4,0.4-0.6,0.9-0.6,1.4s0.3,1,0.8,1.5c0.5,0.5,1,0.8,1.6,0.8c0.5,0,1-0.2,1.4-0.6
		c0.3-0.3,0.5-0.6,0.7-0.8c0.1-0.1,0.2-0.2,0.3-0.2c0.1,0,0.2,0,0.3,0.1l0,0c0.1,0.1,0.2,0.2,0.2,0.4s0,0.3-0.1,0.4
		C8.8,25.5,8.5,25.8,8.2,26.1z"/>
	<path class="st2" d="M12.6,20.9c0,0.6-0.3,1.1-0.8,1.7s-1.1,0.8-1.7,0.8c-0.6,0-1.1-0.2-1.6-0.8c-0.5-0.5-0.8-1.1-0.8-1.6
		c0-0.6,0.3-1.1,0.8-1.7c0.5-0.5,1.1-0.8,1.7-0.8c0.6,0,1.1,0.2,1.6,0.8C12.3,19.8,12.6,20.4,12.6,20.9z M9.9,19.6
		c-0.3,0-0.6,0.1-0.8,0.3c-0.3,0.3-0.4,0.5-0.3,0.8c0,0.3,0.2,0.6,0.6,1c0.4,0.4,0.7,0.6,1,0.6c0.3,0,0.6-0.1,0.8-0.3
		c0.3-0.3,0.4-0.5,0.3-0.8c0-0.3-0.2-0.6-0.6-1C10.5,19.8,10.2,19.6,9.9,19.6z"/>
	<path class="st2" d="M14.6,19.6c-0.1,0.1-0.2,0.2-0.4,0.2c-0.1,0-0.3,0-0.4-0.1l-3.8-3.8c-0.1-0.1-0.1-0.2-0.1-0.4
		c0-0.1,0.1-0.3,0.2-0.4l0.2-0.2c0.1-0.1,0.2-0.2,0.4-0.2c0.1,0,0.3,0,0.4,0.1l3.8,3.8c0.1,0.1,0.1,0.2,0.1,0.4s-0.1,0.3-0.2,0.4
		L14.6,19.6z"/>
	<path class="st2" d="M17.4,16.9c-0.4,0.4-0.8,0.6-1.1,0.6c-0.4,0-0.8-0.3-1.3-0.7l-1.6-1.6c-0.1-0.1-0.1-0.2-0.1-0.4
		c0-0.1,0.1-0.3,0.2-0.4l0.1-0.1c0.1-0.1,0.2-0.2,0.4-0.2s0.3,0,0.4,0.1l1.5,1.5c0.3,0.3,0.5,0.4,0.7,0.5c0.2,0,0.4-0.1,0.6-0.3
		c0.2-0.2,0.3-0.4,0.3-0.7c0-0.3-0.1-0.5-0.2-0.7l-1.6-1.6c-0.1-0.1-0.1-0.2-0.1-0.4s0.1-0.3,0.2-0.4l0.1-0.1
		c0.1-0.1,0.2-0.2,0.4-0.2c0.1,0,0.3,0,0.3,0.1l2.4,2.4c0.1,0.1,0.1,0.2,0.1,0.3c0,0.1-0.1,0.3-0.2,0.4l-0.1,0.1
		c-0.1,0.1-0.2,0.2-0.4,0.2c-0.1,0-0.3,0-0.4-0.1l0,0c0,0,0,0,0,0c0,0,0,0,0,0C18,16,17.8,16.5,17.4,16.9z"/>
	<path class="st2" d="M20.6,13.7c-0.1,0.1-0.2,0.2-0.4,0.2c-0.1,0-0.3,0-0.3-0.1l-2.4-2.4c-0.1-0.1-0.1-0.2-0.1-0.3
		c0-0.1,0.1-0.3,0.2-0.4l0.1-0.1c0.1-0.1,0.2-0.2,0.4-0.2c0.1,0,0.3,0,0.4,0.1l0,0c0,0,0,0,0,0c0,0,0,0,0,0c0-0.5,0.1-1,0.4-1.3
		c0.2-0.2,0.4-0.3,0.6-0.4c0.2-0.1,0.4,0,0.7,0c0,0,0,0,0,0c0,0,0,0,0,0c0-0.6,0.1-1.1,0.5-1.4c0.4-0.4,0.7-0.5,1.1-0.5
		c0.3,0,0.7,0.2,1.2,0.7l1.6,1.6c0.1,0.1,0.1,0.2,0.1,0.3c0,0.1-0.1,0.3-0.2,0.4L24.2,10c-0.1,0.1-0.2,0.2-0.4,0.2s-0.3,0-0.4-0.1
		L22,8.5C21.7,8.2,21.5,8,21.3,8c-0.2,0-0.3,0-0.5,0.2c-0.1,0.1-0.2,0.3-0.2,0.5c0,0.2,0,0.4,0.1,0.5l1.8,1.8
		c0.1,0.1,0.1,0.2,0.1,0.4c0,0.1-0.1,0.3-0.2,0.4l-0.1,0.1C22.3,11.9,22.2,12,22,12c-0.1,0-0.3,0-0.3-0.1l-1.5-1.5
		c-0.3-0.3-0.5-0.4-0.7-0.5c-0.2,0-0.3,0-0.5,0.2c-0.1,0.1-0.2,0.3-0.2,0.5s0,0.4,0.1,0.5l1.8,1.8c0.1,0.1,0.1,0.2,0.1,0.4
		c0,0.1-0.1,0.3-0.2,0.4L20.6,13.7z"/>
	<path class="st2" d="M26,8.3c-0.1,0.1-0.2,0.2-0.4,0.2c-0.1,0-0.3,0-0.4-0.1l-2.4-2.4c-0.1-0.1-0.1-0.2-0.1-0.4
		c0-0.1,0.1-0.3,0.2-0.4L22.9,5c0.1-0.1,0.2-0.2,0.4-0.2c0.1,0,0.3,0,0.4,0.1l0,0c0,0,0,0,0,0c0,0,0,0,0,0c0-0.6,0.2-1.1,0.6-1.5
		c0.4-0.4,0.8-0.6,1.2-0.6c0.4,0,0.8,0.3,1.3,0.8l1.5,1.5c0.1,0.1,0.1,0.2,0.1,0.4c0,0.1-0.1,0.3-0.2,0.4L28.2,6
		c-0.1,0.1-0.2,0.2-0.4,0.2c-0.1,0-0.3,0-0.3-0.1L26,4.6c-0.3-0.3-0.5-0.5-0.7-0.5c-0.2,0-0.4,0.1-0.6,0.3c-0.2,0.2-0.3,0.4-0.3,0.7
		c0,0.3,0.1,0.5,0.2,0.7l1.6,1.6c0.1,0.1,0.1,0.2,0.1,0.4c0,0.1-0.1,0.3-0.2,0.4L26,8.3z"/>
</g>
</svg>
