<?xml version="1.0" encoding="utf-8"?>
<!-- Generator: Adobe Illustrator 24.2.0, SVG Export Plug-In . SVG Version: 6.00 Build 0)  -->
<svg version="1.1" id="レイヤー_1" xmlns="http://www.w3.org/2000/svg" xmlns:xlink="http://www.w3.org/1999/xlink" x="0px"
	 y="0px" viewBox="0 0 340.2 28.3" style="enable-background:new 0 0 340.2 28.3;" xml:space="preserve">
<style type="text/css">
	.st0{fill:#4D4D4D;}
	.st1{fill:#404040;}
	.st2{fill:#333333;}
</style>
<g id="_x31_1">
	<polygon class="st0" points="302.3,28.3 339.8,28.3 334.3,16.7 339.8,5.3 302.3,5.3 	"/>
	<polygon class="st1" points="302.3,5.3 327.8,5.3 327.8,24.9 315.4,28.3 302.3,28.3 	"/>
	<polygon class="st2" points="302.3,28.3 326.4,22.7 302.3,5.3 	"/>
	<polygon class="st0" points="37.9,28.3 0.4,28.3 5.9,16.7 0.4,5.3 37.9,5.3 	"/>
	<polygon class="st1" points="37.9,5.3 12.4,5.3 12.4,24.9 24.8,28.3 37.9,28.3 	"/>
	<polygon class="st2" points="37.9,5.3 13.8,22.7 37.9,28.3 	"/>
</g>
<g id="レイヤー_1_1_">
	<polygon class="st0" points="326.4,22.7 170.1,22.7 13.8,22.7 13.8,0 170.1,0 326.4,0 	"/>
</g>
</svg>
