<?xml version="1.0" encoding="utf-8"?>
<!-- Generator: Adobe Illustrator 24.2.3, SVG Export Plug-In . SVG Version: 6.00 Build 0)  -->
<svg version="1.1" id="レイヤー_1" xmlns="http://www.w3.org/2000/svg" xmlns:xlink="http://www.w3.org/1999/xlink" x="0px"
	 y="0px" viewBox="0 0 331.7 170.1" style="enable-background:new 0 0 331.7 170.1;" xml:space="preserve">
<style type="text/css">
	.st0{fill:#E6E6E6;stroke:#E6E6E6;stroke-width:4.8189;stroke-linecap:round;stroke-linejoin:round;stroke-miterlimit:10;}
	.st1{fill:#FFFFFF;}
	.st2{fill:#E6E6E6;}
	.st3{fill:#727171;}
	.st4{font-family:'RoundedMplus1c-Medium';}
	.st5{font-size:8.5039px;}
</style>
<path class="st0" d="M313.6,11.1c0.4-0.5,0.6-1.2,0.9-2c0.1-0.7,0.2-1.5,0.1-2.3c-0.1-0.9-0.2-1.5-0.7-2.1s-0.9-1.1-1.3-1.5
	c0.5-1.2,0.5-2.7,0-4.2c-0.2-0.7-0.7-1.3-1.1-1.8c-0.5-0.5-1-0.9-1.5-1.1c0.1-0.6,0.1-1.3,0-2.1c-0.1-0.7-0.4-1.5-0.9-2.1
	c-0.4-0.6-0.9-1.1-1.5-1.5s-1.1-0.6-1.7-0.7c-0.1-0.6-0.2-1.3-0.5-2.1c-0.4-0.6-0.9-1.2-1.5-1.7c-0.2-0.2-0.7-0.5-0.9-0.6
	c-0.2-0.1-0.5-0.2-0.9-0.2c-0.5-0.1-1-0.1-1.5,0c-0.1-0.6-0.2-1.1-0.4-1.5c-0.1-0.4-0.5-0.9-0.9-1.1c-0.7-0.6-1.5-0.6-2.3-0.6
	c0.2-0.9,0.4-1.7,0.1-2.7c-0.4-0.9-1.1-1.5-2-1.8c0.7-0.6,1.1-1.2,1.2-2.1c0-0.4,0-0.9-0.2-1.5c-0.2-0.5-0.4-0.9-0.7-1.5
	c0.5-0.2,0.9-0.6,1.1-1c0.2-0.2,0.2-0.4,0.4-0.7c0.1-0.2,0.2-0.7,0.2-1.1c0.1-0.9,0-1.5-0.1-2.2c-0.2-0.7-0.6-1.3-1-1.8
	c0.4-0.5,0.6-1,0.9-1.7c0.2-0.6,0.2-1.3,0.1-2.1c-0.1-0.7-0.4-1.5-0.9-2.1c-0.4-0.6-0.9-1.1-1.5-1.5c0.2-0.5,0.4-1.1,0.4-1.8
	s-0.1-1.3-0.4-2.1c-0.6-1.3-1.6-2.4-2.8-2.9c0.2-1.2,0.1-2.7-0.9-3.9c-0.4-0.6-1-1.2-1.5-1.6c-0.6-0.4-1.2-0.7-2-0.9
	c0-0.7-0.2-1.3-0.6-2c-0.2-0.6-0.9-1.2-1.5-1.7c-1.1-1-2.6-1.5-3.8-1.3c-0.4-1.2-1.3-2.3-2.6-3.1c-0.6-0.4-1.3-0.6-2-0.6
	c-0.6-0.1-1.3,0-1.8,0.2c-0.2-0.5-0.7-1.1-1.2-1.5s-1.1-0.9-1.8-1c-0.7-0.2-1.5-0.2-2.1-0.2c-0.7,0.1-1.2,0.2-1.8,0.6
	c-0.4-0.5-0.9-0.9-1.6-1.2c-0.6-0.2-1.3-0.5-2.1-0.5c-0.4,0-0.9,0-1.1,0.1s-0.5,0.2-0.7,0.2c-0.5,0.2-0.9,0.6-1.2,1
	c-0.9-0.9-1.7-1.3-2.6-1.5c-0.9-0.1-1.5,0.2-2.2,0.9c-0.2-0.9-0.6-1.6-1.5-2.1s-1.6-0.6-2.6-0.5c0.2-0.9,0.2-1.6-0.1-2.4
	c-0.4-0.7-1.2-1.5-2.2-1.8c0.2-0.5,0.4-1,0.4-1.5c0-0.2,0-0.5,0-0.9c-0.1-0.2-0.2-0.7-0.2-1c-0.2-0.7-0.7-1.3-1.2-1.8
	c-0.5-0.4-1.1-0.9-1.7-1c0.1-0.6,0-1.2-0.1-1.8c-0.2-0.6-0.5-1.2-0.9-1.8c-0.2-0.2-0.5-0.5-0.7-0.7s-0.5-0.4-0.9-0.5
	c-0.6-0.2-1.2-0.5-1.8-0.5c0-0.6-0.2-1.2-0.5-1.7c-0.2-0.6-0.7-1.1-1.3-1.5c-1.1-0.9-2.4-1.2-3.7-1.1c-0.2-1.1-1.1-2.2-2.4-3.1
	c-0.6-0.2-1.3-0.5-2.1-0.6c-0.7-0.1-1.5,0-2.1,0.2c-0.2-0.5-0.9-1-1.3-1.5c-0.2-0.2-0.6-0.4-0.9-0.5c-0.2-0.2-0.7-0.2-1-0.2
	c-1.5-0.2-2.8-0.1-3.9,0.6c-0.9-0.9-2.1-1.6-3.4-1.6c-0.7,0-1.5,0.1-2,0.2c-0.6,0.2-1.1,0.5-1.5,0.9c-0.5-0.4-1-0.7-1.7-0.9
	c-0.6-0.2-1.3-0.2-2.1-0.1c-0.7,0.1-1.3,0.2-2,0.7c-0.5,0.2-1,0.9-1.3,1.3c-0.6-0.2-1.2-0.4-2-0.4s-1.5,0.1-2.1,0.5
	c-0.2,0.2-0.7,0.4-0.9,0.5c-0.2,0.2-0.4,0.4-0.5,0.6c-0.2,0.4-0.6,0.9-0.7,1.5c-1-0.4-2.1-0.5-2.8-0.2c-0.9,0.2-1.2,0.9-1.7,1.6
	c-0.6-0.7-1.2-1.2-2.1-1.5c-0.9-0.2-1.7,0.1-2.6,0.6c-0.2-0.9-0.4-1.6-1-2.1s-1.6-0.9-2.7-0.7c0-0.5,0-1-0.2-1.5
	c-0.1-0.2-0.2-0.5-0.2-0.7c-0.2-0.2-0.4-0.6-0.7-0.9c-0.5-0.6-1.2-0.9-1.8-1.2c-0.6-0.2-1.3-0.2-2-0.2c-0.1-0.6-0.4-1.1-0.9-1.6
	c-0.4-0.5-0.9-0.9-1.5-1.3c-0.6-0.2-1.3-0.5-2-0.6c-0.6-0.1-1.3,0-1.8,0.2c-0.2-0.5-0.6-1-1.1-1.5c-0.5-0.4-1.1-0.7-1.7-0.9
	c-1.3-0.4-2.7-0.2-3.8,0.2c-0.7-0.9-2-1.6-3.3-1.8c-0.7-0.1-1.5,0-2.1,0.1c-0.7,0.2-1.3,0.5-1.7,0.9c-0.5-0.4-1.1-0.7-1.7-0.9
	c-0.6-0.2-1.5-0.2-2.1-0.1c-1.5,0.2-2.7,0.9-3.3,1.8c-1.1-0.5-2.4-0.7-3.8-0.2c-0.7,0.2-1.2,0.5-1.7,0.9s-0.9,0.9-1.1,1.5
	c-0.6-0.2-1.2-0.2-1.8-0.2c-0.6,0.1-1.3,0.2-2,0.6c-0.6,0.2-1.1,0.9-1.5,1.3c-0.4,0.5-0.7,1.1-0.9,1.6c-0.6,0-1.3,0-2,0.2
	c-0.6,0.2-1.3,0.6-1.8,1.2c-0.2,0.2-0.5,0.6-0.7,0.9c-0.1,0.2-0.2,0.5-0.2,0.7c-0.2,0.5-0.2,1-0.2,1.5c-1.1,0-2.1,0.2-2.7,0.7
	c-0.7,0.5-0.9,1.2-1,2.1c-0.9-0.5-1.6-0.7-2.6-0.6c-0.9,0.2-1.6,0.7-2.1,1.5c-0.5-0.9-0.9-1.5-1.7-1.6c-0.9-0.2-1.8-0.2-2.8,0.2
	c-0.2-0.5-0.4-1-0.7-1.5c-0.2-0.2-0.2-0.4-0.5-0.6c-0.2-0.2-0.6-0.4-0.9-0.5c-0.7-0.2-1.5-0.5-2.1-0.5c-0.7,0-1.3,0.2-2,0.4
	c-0.2-0.5-0.9-0.9-1.3-1.3c-0.5-0.2-1.2-0.6-2-0.7c-0.7-0.1-1.5-0.1-2.1,0.1s-1.2,0.5-1.7,0.9c-0.4-0.4-0.9-0.7-1.5-0.9
	c-0.6-0.2-1.3-0.2-2-0.2c-1.5,0-2.7,0.7-3.4,1.6c-1-0.6-2.3-0.9-3.9-0.6c-0.2,0.1-0.7,0.2-1,0.2c-0.2,0.2-0.6,0.2-0.9,0.5
	c-0.6,0.4-1,0.9-1.3,1.5C100.5-93,99.8-93,99-93c-0.7,0.1-1.5,0.2-2.1,0.6c-1.3,0.7-2.1,1.8-2.4,3.1c-1.2-0.1-2.7,0.2-3.7,1.1
	c-0.5,0.4-1,1-1.3,1.5C89.3-86.1,89-85.5,89-85c-0.6,0-1.2,0.2-1.8,0.5c-0.2,0.1-0.6,0.2-0.9,0.5c-0.2,0.2-0.5,0.5-0.7,0.7
	c-0.4,0.6-0.9,1.2-0.9,1.8c-0.2,0.6-0.2,1.2-0.1,1.8c-0.6,0.2-1.2,0.5-1.7,1s-0.9,1-1.2,1.8c-0.1,0.2-0.2,0.7-0.2,1
	c0,0.2,0,0.5,0,0.9c0,0.5,0.2,1,0.4,1.5c-1,0.4-1.8,1-2.2,1.8c-0.4,0.7-0.2,1.5-0.1,2.4c-0.9-0.1-1.7-0.1-2.6,0.5
	c-0.9,0.5-1.2,1.2-1.5,2.1c-0.7-0.5-1.3-0.9-2.2-0.9c-0.9,0.1-1.7,0.6-2.6,1.5c-0.4-0.4-0.9-0.7-1.2-1c-0.2-0.1-0.5-0.2-0.7-0.2
	c0,0-0.5,0-0.8,0c-0.9,0-1.5,0.2-2.1,0.5c-0.6,0.2-1.1,0.7-1.6,1.2c-0.5-0.2-1.1-0.5-1.8-0.6c-0.6-0.1-1.3,0-2.1,0.2
	c-0.7,0.2-1.3,0.6-1.8,1s-0.9,0.9-1.2,1.5c-0.5-0.2-1.1-0.2-1.7-0.2c-0.6,0.1-1.3,0.2-2,0.6c-1.2,0.7-2.1,2-2.6,3.1
	c-1.2-0.1-2.6,0.2-3.8,1.3c-0.6,0.5-1,1.1-1.5,1.7c-0.2,0.6-0.6,1.3-0.6,2c-0.6,0.1-1.3,0.4-2,0.9c-0.6,0.4-1.1,0.9-1.5,1.6
	c-0.9,1.2-1.1,2.7-0.9,3.9c-1.1,0.5-2.2,1.6-2.8,2.9c-0.2,0.7-0.4,1.5-0.4,2.1c0,0.7,0.2,1.3,0.4,1.8c-0.5,0.4-1,0.9-1.5,1.5
	c-0.4,0.6-0.6,1.3-0.9,2.1c-0.1,0.7-0.1,1.5,0.1,2.1c0.2,0.6,0.4,1.2,0.9,1.7c-0.4,0.5-0.9,1.1-1,1.8c-0.2,0.7-0.2,1.5-0.1,2.2
	c0.1,0.4,0.1,0.9,0.2,1.1c0.1,0.2,0.2,0.5,0.4,0.7c0.2,0.4,0.7,0.9,1.1,1c-0.2,0.4-0.6,0.9-0.7,1.5c-0.1,0.5-0.2,0.9-0.2,1.5
	c0.1,0.9,0.5,1.5,1.2,2.1c-0.9,0.4-1.5,0.9-2,1.8c-0.4,0.9-0.2,1.8,0.1,2.7c-0.9,0-1.6,0.1-2.3,0.6c-0.2,0.2-0.6,0.7-0.9,1.1
	c-0.2,0.4-0.4,1-0.4,1.5c-0.5-0.1-1-0.1-1.5,0c-0.2,0-0.5,0.1-0.9,0.2c-0.2,0.1-0.6,0.4-0.9,0.6c-0.6,0.5-1.1,1.1-1.5,1.7
	s-0.5,1.3-0.5,2.1c-0.6,0.1-1.2,0.2-1.7,0.7c-0.6,0.4-1.1,0.9-1.5,1.5s-0.7,1.3-0.9,2.1c-0.1,0.7-0.1,1.5,0,2.1
	c-0.4,0.1-1,0.5-1.5,1C20.7-2.3,20.2-1.7,20-1c-0.5,1.5-0.4,2.9,0,4.2c-0.5,0.4-0.9,0.9-1.3,1.5s-0.2,1.3-0.3,2S18.3,8.3,18.5,9
	c0.2,0.7,0.5,1.6,0.9,2.1c-0.4,0.5-0.6,1.2-0.9,2c-0.1,0.7-0.2,1.5-0.1,2.3c0.1,0.9,0.2,1.5,0.7,2.1c0.5,0.6,0.9,1.1,1.3,1.5
	c-0.5,1.2-0.5,2.7,0,4.2c0.2,0.7,0.7,1.3,1.1,1.8c0.5,0.5,1,0.9,1.5,1.1c-0.1,0.6-0.1,1.3,0,2.1s0.4,1.5,0.9,2.1
	c0.4,0.6,0.9,1.1,1.5,1.5c0.6,0.4,1.1,0.6,1.7,0.7c0.1,0.6,0.2,1.3,0.5,2.1c0.4,0.6,0.9,1.2,1.5,1.7c0.2,0.2,0.7,0.5,0.9,0.6
	c0.2,0.1,0.5,0.2,0.9,0.2c0.5,0.1,1,0.1,1.5,0c0.1,0.6,0.2,1.1,0.4,1.5c0.2,0.4,0.5,0.9,0.9,1.1c0.7,0.6,1.5,0.6,2.3,0.6
	c-0.2,0.9-0.4,1.7-0.1,2.7c0.4,0.9,1.1,1.5,2,1.8c-0.7,0.6-1.1,1.2-1.2,2.1c0,0.4,0,0.9,0.2,1.5s0.4,0.9,0.7,1.5
	c-0.4,0.2-0.9,0.6-1.1,1c-0.2,0.2-0.2,0.4-0.4,0.7c-0.1,0.2-0.2,0.7-0.2,1.1c-0.1,0.9,0,1.5,0.1,2.2c0.2,0.7,0.6,1.3,1,1.8
	c-0.4,0.5-0.6,1-0.9,1.7c-0.2,0.6-0.2,1.3-0.1,2.1s0.4,1.5,0.9,2.1c0.4,0.6,0.9,1.1,1.5,1.5c-0.2,0.5-0.4,1.1-0.4,1.8
	c0,0.7,0.1,1.3,0.4,2.1c0.6,1.3,1.6,2.4,2.8,2.9c-0.2,1.2-0.1,2.7,0.9,3.9c0.4,0.6,1,1.2,1.5,1.6c0.6,0.4,1.2,0.7,2,0.9
	c0,0.7,0.2,1.3,0.6,2c0.2,0.6,0.9,1.2,1.5,1.7c1.1,1,2.6,1.5,3.8,1.3c0.4,1.2,1.3,2.3,2.6,3.1c0.6,0.4,1.3,0.6,2,0.6
	c0.6,0.1,1.3,0,1.8-0.2c0.2,0.5,0.7,1.1,1.2,1.5s1.1,0.9,1.8,1c0.7,0.2,1.5,0.2,2.1,0.2c0.7-0.1,1.2-0.2,1.8-0.6
	c0.4,0.5,0.9,0.9,1.6,1.2c0.6,0.2,1.3,0.5,2.1,0.5c0.4,0,0.9,0,1.1-0.1s0.5-0.2,0.7-0.2c0.5-0.2,0.9-0.6,1.2-1
	c0.9,0.9,1.7,1.3,2.6,1.5s1.5-0.2,2.2-0.9c0.2,0.9,0.6,1.6,1.5,2.1s1.6,0.6,2.6,0.5c-0.2,0.9-0.2,1.6,0.1,2.4
	c0.4,0.7,1.2,1.5,2.2,1.8c-0.2,0.5-0.4,1-0.4,1.5c0,0.2,0,0.5,0,0.9c0.1,0.2,0.2,0.7,0.2,1c0.2,0.7,0.7,1.3,1.2,1.8
	c0.5,0.4,1.1,0.9,1.7,1c-0.1,0.6,0,1.2,0.1,1.8c0.2,0.6,0.5,1.2,0.9,1.8c0.2,0.2,0.5,0.5,0.7,0.7s0.5,0.4,0.9,0.5
	c0.6,0.2,1.2,0.5,1.8,0.5c0,0.6,0.2,1.2,0.5,1.7c0.2,0.6,0.7,1.1,1.3,1.5c1.1,0.9,2.4,1.2,3.7,1.1c0.2,1.1,1.1,2.2,2.4,3.1
	c0.6,0.2,1.3,0.5,2.1,0.6c0.7,0.1,1.5,0,2.1-0.2c0.2,0.5,0.9,1,1.3,1.5c0.2,0.2,0.6,0.4,0.9,0.5c0.2,0.2,0.7,0.2,1,0.2
	c1.5,0.2,2.8,0.1,3.9-0.6c0.9,0.9,2.1,1.6,3.4,1.6c0.7,0,1.5-0.1,2-0.2c0.6-0.2,1.1-0.5,1.5-0.9c0.5,0.4,1,0.7,1.7,0.9
	c0.6,0.2,1.3,0.2,2.1,0.1c0.7-0.1,1.3-0.2,2-0.7c0.5-0.2,1-0.9,1.3-1.3c0.6,0.2,1.2,0.4,2,0.4s1.5-0.1,2.1-0.5
	c0.2-0.2,0.7-0.4,0.9-0.5c0.2-0.2,0.4-0.4,0.5-0.6c0.2-0.4,0.6-0.9,0.7-1.5c1,0.4,2.1,0.5,2.8,0.2c0.9-0.2,1.2-0.9,1.7-1.6
	c0.6,0.7,1.2,1.2,2.1,1.5c0.9,0.2,1.7-0.1,2.6-0.6c0.2,0.9,0.4,1.6,1,2.1s1.6,0.9,2.7,0.7c0,0.5,0,1,0.2,1.5
	c0.1,0.2,0.2,0.5,0.2,0.7c0.2,0.2,0.4,0.6,0.7,0.9c0.5,0.6,1.2,0.9,1.8,1.2c0.6,0.2,1.3,0.2,2,0.2c0.1,0.6,0.4,1.1,0.9,1.6
	c0.4,0.5,0.9,0.9,1.5,1.3c0.6,0.2,1.3,0.5,2,0.6c0.6,0.1,1.3,0,1.8-0.2c0.2,0.5,0.6,1,1.1,1.5s1.1,0.7,1.7,0.9
	c1.3,0.4,2.7,0.2,3.8-0.2c0.7,0.9,2,1.6,3.3,1.8c0.7,0.1,1.5,0,2.1-0.1c0.7-0.2,1.3-0.5,1.7-0.9c0.5,0.4,1.1,0.7,1.7,0.9
	c0.6,0.2,1.5,0.2,2.1,0.1c1.5-0.2,2.7-0.9,3.3-1.8c1.1,0.5,2.4,0.7,3.8,0.2c0.7-0.2,1.2-0.5,1.7-0.9s0.9-0.9,1.1-1.5
	c0.6,0.2,1.2,0.2,1.8,0.2c0.6-0.1,1.3-0.2,2-0.6c0.6-0.2,1.1-0.9,1.5-1.3c0.4-0.5,0.7-1.1,0.9-1.6c0.6,0,1.3,0,2-0.2
	c0.6-0.2,1.3-0.6,1.8-1.2c0.2-0.2,0.5-0.6,0.7-0.9c0.1-0.2,0.2-0.5,0.2-0.7c0.2-0.5,0.2-1,0.2-1.5c1.1,0,2.1-0.2,2.7-0.7
	c0.7-0.5,0.9-1.2,1-2.1c0.9,0.5,1.6,0.7,2.6,0.6c0.9-0.2,1.6-0.7,2.1-1.5c0.5,0.9,0.9,1.5,1.7,1.6c0.9,0.2,1.8,0.2,2.8-0.2
	c0.2,0.5,0.4,1,0.7,1.5c0.2,0.2,0.2,0.4,0.5,0.6c0.2,0.2,0.6,0.4,0.9,0.5c0.7,0.2,1.5,0.5,2.1,0.5c0.7,0,1.3-0.2,2-0.4
	c0.2,0.5,0.9,0.9,1.3,1.3c0.5,0.2,1.2,0.6,2,0.7c0.7,0.1,1.5,0.1,2.1-0.1s1.2-0.5,1.7-0.9c0.4,0.4,0.9,0.7,1.5,0.9
	c0.6,0.1,1.3,0.2,2,0.2c1.5,0,2.7-0.7,3.4-1.6c1,0.6,2.3,0.9,3.9,0.6c0.2-0.1,0.7-0.2,1-0.2c0.2-0.2,0.6-0.2,0.9-0.5
	c0.6-0.4,1-0.9,1.3-1.5c0.6,0.2,1.3,0.2,2.1,0.2c0.7-0.1,1.5-0.2,2.1-0.6c1.3-0.7,2.1-1.8,2.4-3.1c1.2,0.1,2.7-0.2,3.7-1.1
	c0.5-0.4,1-1,1.3-1.5c0.2-0.6,0.5-1.2,0.5-1.7c0.6,0,1.2-0.2,1.8-0.5c0.2-0.1,0.6-0.2,0.9-0.5s0.5-0.5,0.7-0.7
	c0.4-0.6,0.9-1.2,0.9-1.8c0.2-0.6,0.2-1.2,0.1-1.8c0.6-0.2,1.2-0.5,1.7-1s0.9-1,1.2-1.8c0.1-0.2,0.2-0.7,0.2-1s0-0.5,0-0.9
	c0-0.5-0.2-1-0.4-1.5c1-0.4,1.8-1,2.2-1.8c0.4-0.7,0.2-1.5,0.1-2.4c0.9,0.1,1.7,0.1,2.6-0.5c0.9-0.5,1.2-1.2,1.5-2.1
	c0.7,0.5,1.3,0.9,2.2,0.9c0.9-0.1,1.7-0.6,2.6-1.5c0.4,0.4,0.9,0.7,1.2,1c0.2,0.1,0.5,0.2,0.7,0.2c0.2,0.1,0.7,0.1,1.1,0.1
	c0.9,0,1.5-0.2,2.1-0.5c0.6-0.2,1.1-0.7,1.6-1.2c0.5,0.2,1.1,0.5,1.8,0.6c0.6,0.1,1.3,0,2.1-0.2c0.7-0.2,1.3-0.6,1.8-1
	s0.9-0.9,1.2-1.5c0.6,0.2,1.2,0.2,1.8,0.2c0.6-0.1,1.3-0.2,2-0.6c1.2-0.7,2.1-2,2.6-3.1c1.2,0.1,2.6-0.2,3.8-1.3
	c0.6-0.5,1-1.1,1.5-1.7c0.2-0.6,0.6-1.3,0.6-2c0.6-0.1,1.3-0.4,2-0.9c0.6-0.4,1.1-0.9,1.5-1.6c0.9-1.2,1.1-2.7,0.9-3.9
	c1.1-0.5,2.2-1.6,2.8-2.9c0.2-0.7,0.4-1.5,0.4-2.1c0-0.7-0.2-1.3-0.4-1.8c0.5-0.4,1-0.9,1.5-1.5c0.4-0.6,0.6-1.3,0.9-2.1
	c0.1-0.7,0.1-1.5-0.1-2.1s-0.4-1.2-0.9-1.7c0.4-0.5,0.9-1.1,1-1.8c0.2-0.7,0.2-1.5,0.1-2.2c-0.1-0.4-0.1-0.9-0.2-1.1
	c-0.1-0.2-0.2-0.5-0.4-0.7c-0.2-0.4-0.7-0.9-1.1-1c0.2-0.4,0.6-0.9,0.7-1.5c0.1-0.5,0.2-0.9,0.2-1.5c-0.1-0.9-0.5-1.5-1.2-2.1
	c0.9-0.4,1.5-0.9,2-1.8c0.4-0.9,0.2-1.8-0.1-2.7c0.9,0,1.6-0.1,2.3-0.6c0.2-0.2,0.6-0.7,0.9-1.1c0.2-0.4,0.4-1,0.4-1.5
	c0.5,0.1,1,0.1,1.5,0c0.2,0,0.5-0.1,0.9-0.2c0.4-0.1,0.6-0.4,0.9-0.6c0.6-0.5,1.1-1.1,1.5-1.7c0.4-0.6,0.5-1.3,0.5-2.1
	c0.6-0.1,1.2-0.2,1.7-0.7c0.6-0.4,1.1-0.9,1.5-1.5s0.7-1.3,0.9-2.1c0.1-0.7,0.1-1.5,0-2.1c0.5-0.2,1.1-0.6,1.5-1.1s0.9-1.1,1.1-1.8
	c0.5-1.5,0.4-2.9,0-4.2c0.5-0.4,0.9-0.9,1.3-1.5s0.6-1.3,0.7-2.1c0.1-0.9,0.1-1.6-0.1-2.3C314.5,12.3,314.1,11.7,313.6,11.1z"/>
<path class="st1" d="M313.6,11.1c0.4-0.5,0.6-1.2,0.9-2c0.1-0.7,0.2-1.5,0.1-2.3c-0.1-0.9-0.2-1.5-0.7-2.1s-0.9-1.1-1.3-1.5
	c0.5-1.2,0.5-2.7,0-4.2c-0.2-0.7-0.7-1.3-1.1-1.8c-0.5-0.5-1-0.9-1.5-1.1c0.1-0.6,0.1-1.3,0-2.1c-0.1-0.7-0.4-1.5-0.9-2.1
	c-0.4-0.6-0.9-1.1-1.5-1.5s-1.1-0.6-1.7-0.7c-0.1-0.6-0.2-1.3-0.5-2.1c-0.4-0.6-0.9-1.2-1.5-1.7c-0.2-0.2-0.7-0.5-0.9-0.6
	c-0.2-0.1-0.5-0.2-0.9-0.2c-0.5-0.1-1-0.1-1.5,0c-0.1-0.6-0.2-1.1-0.4-1.5c-0.1-0.4-0.5-0.9-0.9-1.1c-0.7-0.6-1.5-0.6-2.3-0.6
	c0.2-0.9,0.4-1.7,0.1-2.7c-0.4-0.9-1.1-1.5-2-1.8c0.7-0.6,1.1-1.2,1.2-2.1c0-0.4,0-0.9-0.2-1.5c-0.2-0.5-0.4-0.9-0.7-1.5
	c0.5-0.2,0.9-0.6,1.1-1c0.2-0.2,0.2-0.4,0.4-0.7c0.1-0.2,0.2-0.7,0.2-1.1c0.1-0.9,0-1.5-0.1-2.2c-0.2-0.7-0.6-1.3-1-1.8
	c0.4-0.5,0.6-1,0.9-1.7c0.2-0.6,0.2-1.3,0.1-2.1c-0.1-0.7-0.4-1.5-0.9-2.1c-0.4-0.6-0.9-1.1-1.5-1.5c0.2-0.5,0.4-1.1,0.4-1.8
	s-0.1-1.3-0.4-2.1c-0.6-1.3-1.6-2.4-2.8-2.9c0.2-1.2,0.1-2.7-0.9-3.9c-0.4-0.6-1-1.2-1.5-1.6c-0.6-0.4-1.2-0.7-2-0.9
	c0-0.7-0.2-1.3-0.6-2c-0.2-0.6-0.9-1.2-1.5-1.7c-1.1-1-2.6-1.5-3.8-1.3c-0.4-1.2-1.3-2.3-2.6-3.1c-0.6-0.4-1.3-0.6-2-0.6
	c-0.6-0.1-1.3,0-1.8,0.2c-0.2-0.5-0.7-1.1-1.2-1.5s-1.1-0.9-1.8-1c-0.7-0.2-1.5-0.2-2.1-0.2c-0.7,0.1-1.2,0.2-1.8,0.6
	c-0.4-0.5-0.9-0.9-1.6-1.2c-0.6-0.2-1.3-0.5-2.1-0.5c-0.4,0-0.9,0-1.1,0.1s-0.5,0.2-0.7,0.2c-0.5,0.2-0.9,0.6-1.2,1
	c-0.9-0.9-1.7-1.3-2.6-1.5c-0.9-0.1-1.5,0.2-2.2,0.9c-0.2-0.9-0.6-1.6-1.5-2.1s-1.6-0.6-2.6-0.5c0.2-0.9,0.2-1.6-0.1-2.4
	c-0.4-0.7-1.2-1.5-2.2-1.8c0.2-0.5,0.4-1,0.4-1.5c0-0.2,0-0.5,0-0.9c-0.1-0.2-0.2-0.7-0.2-1c-0.2-0.7-0.7-1.3-1.2-1.8
	c-0.5-0.4-1.1-0.9-1.7-1c0.1-0.6,0-1.2-0.1-1.8c-0.2-0.6-0.5-1.2-0.9-1.8c-0.2-0.2-0.5-0.5-0.7-0.7s-0.5-0.4-0.9-0.5
	c-0.6-0.2-1.2-0.5-1.8-0.5c0-0.6-0.2-1.2-0.5-1.7c-0.2-0.6-0.7-1.1-1.3-1.5c-1.1-0.9-2.4-1.2-3.7-1.1c-0.2-1.1-1.1-2.2-2.4-3.1
	c-0.6-0.2-1.3-0.5-2.1-0.6c-0.7-0.1-1.5,0-2.1,0.2c-0.2-0.5-0.9-1-1.3-1.5c-0.2-0.2-0.6-0.4-0.9-0.5c-0.2-0.2-0.7-0.2-1-0.2
	c-1.5-0.2-2.8-0.1-3.9,0.6c-0.9-0.9-2.1-1.6-3.4-1.6c-0.7,0-1.5,0.1-2,0.2c-0.6,0.2-1.1,0.5-1.5,0.9c-0.5-0.4-1-0.7-1.7-0.9
	c-0.6-0.2-1.3-0.2-2.1-0.1c-0.7,0.1-1.3,0.2-2,0.7c-0.5,0.2-1,0.9-1.3,1.3c-0.6-0.2-1.2-0.4-2-0.4s-1.5,0.1-2.1,0.5
	c-0.2,0.2-0.7,0.4-0.9,0.5c-0.2,0.2-0.4,0.4-0.5,0.6c-0.2,0.4-0.6,0.9-0.7,1.5c-1-0.4-2.1-0.5-2.8-0.2c-0.9,0.2-1.2,0.9-1.7,1.6
	c-0.6-0.7-1.2-1.2-2.1-1.5c-0.9-0.2-1.7,0.1-2.6,0.6c-0.2-0.9-0.4-1.6-1-2.1s-1.6-0.9-2.7-0.7c0-0.5,0-1-0.2-1.5
	c-0.1-0.2-0.2-0.5-0.2-0.7c-0.2-0.2-0.4-0.6-0.7-0.9c-0.5-0.6-1.2-0.9-1.8-1.2c-0.6-0.2-1.3-0.2-2-0.2c-0.1-0.6-0.4-1.1-0.9-1.6
	c-0.4-0.5-0.9-0.9-1.5-1.3c-0.6-0.2-1.3-0.5-2-0.6c-0.6-0.1-1.3,0-1.8,0.2c-0.2-0.5-0.6-1-1.1-1.5c-0.5-0.4-1.1-0.7-1.7-0.9
	c-1.3-0.4-2.7-0.2-3.8,0.2c-0.7-0.9-2-1.6-3.3-1.8c-0.7-0.1-1.5,0-2.1,0.1c-0.7,0.2-1.3,0.5-1.7,0.9c-0.5-0.4-1.1-0.7-1.7-0.9
	c-0.6-0.2-1.5-0.2-2.1-0.1c-1.5,0.2-2.7,0.9-3.3,1.8c-1.1-0.5-2.4-0.7-3.8-0.2c-0.7,0.2-1.2,0.5-1.7,0.9s-0.9,0.9-1.1,1.5
	c-0.6-0.2-1.2-0.2-1.8-0.2c-0.6,0.1-1.3,0.2-2,0.6c-0.6,0.2-1.1,0.9-1.5,1.3c-0.4,0.5-0.7,1.1-0.9,1.6c-0.6,0-1.3,0-2,0.2
	c-0.6,0.2-1.3,0.6-1.8,1.2c-0.2,0.2-0.5,0.6-0.7,0.9c-0.1,0.2-0.2,0.5-0.2,0.7c-0.2,0.5-0.2,1-0.2,1.5c-1.1,0-2.1,0.2-2.7,0.7
	c-0.7,0.5-0.9,1.2-1,2.1c-0.9-0.5-1.6-0.7-2.6-0.6c-0.9,0.2-1.6,0.7-2.1,1.5c-0.5-0.9-0.9-1.5-1.7-1.6c-0.9-0.2-1.8-0.2-2.8,0.2
	c-0.2-0.5-0.4-1-0.7-1.5c-0.2-0.2-0.2-0.4-0.5-0.6c-0.2-0.2-0.6-0.4-0.9-0.5c-0.7-0.2-1.5-0.5-2.1-0.5c-0.7,0-1.3,0.2-2,0.4
	c-0.2-0.5-0.9-0.9-1.3-1.3c-0.5-0.2-1.2-0.6-2-0.7c-0.7-0.1-1.5-0.1-2.1,0.1s-1.2,0.5-1.7,0.9c-0.4-0.4-0.9-0.7-1.5-0.9
	c-0.6-0.2-1.3-0.2-2-0.2c-1.5,0-2.7,0.7-3.4,1.6c-1-0.6-2.3-0.9-3.9-0.6c-0.2,0.1-0.7,0.2-1,0.2c-0.2,0.2-0.6,0.2-0.9,0.5
	c-0.6,0.4-1,0.9-1.3,1.5C100.5-93,99.8-93,99-93c-0.7,0.1-1.5,0.2-2.1,0.6c-1.3,0.7-2.1,1.8-2.4,3.1c-1.2-0.1-2.7,0.2-3.7,1.1
	c-0.5,0.4-1,1-1.3,1.5C89.3-86.1,89-85.5,89-85c-0.6,0-1.2,0.2-1.8,0.5c-0.2,0.1-0.6,0.2-0.9,0.5c-0.2,0.2-0.5,0.5-0.7,0.7
	c-0.4,0.6-0.9,1.2-0.9,1.8c-0.2,0.6-0.2,1.2-0.1,1.8c-0.6,0.2-1.2,0.5-1.7,1s-0.9,1-1.2,1.8c-0.1,0.2-0.2,0.7-0.2,1
	c0,0.2,0,0.5,0,0.9c0,0.5,0.2,1,0.4,1.5c-1,0.4-1.8,1-2.2,1.8c-0.4,0.7-0.2,1.5-0.1,2.4c-0.9-0.1-1.7-0.1-2.6,0.5
	c-0.9,0.5-1.2,1.2-1.5,2.1c-0.7-0.5-1.3-0.9-2.2-0.9c-0.9,0.1-1.7,0.6-2.6,1.5c-0.4-0.4-0.9-0.7-1.2-1c-0.2-0.1-0.5-0.2-0.7-0.2
	c0,0-0.5,0-0.8,0c-0.9,0-1.5,0.2-2.1,0.5c-0.6,0.2-1.1,0.7-1.6,1.2c-0.5-0.2-1.1-0.5-1.8-0.6c-0.6-0.1-1.3,0-2.1,0.2
	c-0.7,0.2-1.3,0.6-1.8,1s-0.9,0.9-1.2,1.5c-0.5-0.2-1.1-0.2-1.7-0.2c-0.6,0.1-1.3,0.2-2,0.6c-1.2,0.7-2.1,2-2.6,3.1
	c-1.2-0.1-2.6,0.2-3.8,1.3c-0.6,0.5-1,1.1-1.5,1.7c-0.2,0.6-0.6,1.3-0.6,2c-0.6,0.1-1.3,0.4-2,0.9c-0.6,0.4-1.1,0.9-1.5,1.6
	c-0.9,1.2-1.1,2.7-0.9,3.9c-1.1,0.5-2.2,1.6-2.8,2.9c-0.2,0.7-0.4,1.5-0.4,2.1c0,0.7,0.2,1.3,0.4,1.8c-0.5,0.4-1,0.9-1.5,1.5
	c-0.4,0.6-0.6,1.3-0.9,2.1c-0.1,0.7-0.1,1.5,0.1,2.1c0.2,0.6,0.4,1.2,0.9,1.7c-0.4,0.5-0.9,1.1-1,1.8c-0.2,0.7-0.2,1.5-0.1,2.2
	c0.1,0.4,0.1,0.9,0.2,1.1c0.1,0.2,0.2,0.5,0.4,0.7c0.2,0.4,0.7,0.9,1.1,1c-0.2,0.4-0.6,0.9-0.7,1.5c-0.1,0.5-0.2,0.9-0.2,1.5
	c0.1,0.9,0.5,1.5,1.2,2.1c-0.9,0.4-1.5,0.9-2,1.8c-0.4,0.9-0.2,1.8,0.1,2.7c-0.9,0-1.6,0.1-2.3,0.6c-0.2,0.2-0.6,0.7-0.9,1.1
	c-0.2,0.4-0.4,1-0.4,1.5c-0.5-0.1-1-0.1-1.5,0c-0.2,0-0.5,0.1-0.9,0.2c-0.2,0.1-0.6,0.4-0.9,0.6c-0.6,0.5-1.1,1.1-1.5,1.7
	s-0.5,1.3-0.5,2.1c-0.6,0.1-1.2,0.2-1.7,0.7c-0.6,0.4-1.1,0.9-1.5,1.5s-0.7,1.3-0.9,2.1c-0.1,0.7-0.1,1.5,0,2.1
	c-0.4,0.1-1,0.5-1.5,1C20.7-2.3,20.2-1.7,20-1c-0.5,1.5-0.4,2.9,0,4.2c-0.5,0.4-0.9,0.9-1.3,1.5s-0.2,1.3-0.3,2S18.3,8.3,18.5,9
	c0.2,0.7,0.5,1.6,0.9,2.1c-0.4,0.5-0.6,1.2-0.9,2c-0.1,0.7-0.2,1.5-0.1,2.3c0.1,0.9,0.2,1.5,0.7,2.1c0.5,0.6,0.9,1.1,1.3,1.5
	c-0.5,1.2-0.5,2.7,0,4.2c0.2,0.7,0.7,1.3,1.1,1.8c0.5,0.5,1,0.9,1.5,1.1c-0.1,0.6-0.1,1.3,0,2.1s0.4,1.5,0.9,2.1
	c0.4,0.6,0.9,1.1,1.5,1.5c0.6,0.4,1.1,0.6,1.7,0.7c0.1,0.6,0.2,1.3,0.5,2.1c0.4,0.6,0.9,1.2,1.5,1.7c0.2,0.2,0.7,0.5,0.9,0.6
	c0.2,0.1,0.5,0.2,0.9,0.2c0.5,0.1,1,0.1,1.5,0c0.1,0.6,0.2,1.1,0.4,1.5c0.2,0.4,0.5,0.9,0.9,1.1c0.7,0.6,1.5,0.6,2.3,0.6
	c-0.2,0.9-0.4,1.7-0.1,2.7c0.4,0.9,1.1,1.5,2,1.8c-0.7,0.6-1.1,1.2-1.2,2.1c0,0.4,0,0.9,0.2,1.5s0.4,0.9,0.7,1.5
	c-0.4,0.2-0.9,0.6-1.1,1c-0.2,0.2-0.2,0.4-0.4,0.7c-0.1,0.2-0.2,0.7-0.2,1.1c-0.1,0.9,0,1.5,0.1,2.2c0.2,0.7,0.6,1.3,1,1.8
	c-0.4,0.5-0.6,1-0.9,1.7c-0.2,0.6-0.2,1.3-0.1,2.1s0.4,1.5,0.9,2.1c0.4,0.6,0.9,1.1,1.5,1.5c-0.2,0.5-0.4,1.1-0.4,1.8
	c0,0.7,0.1,1.3,0.4,2.1c0.6,1.3,1.6,2.4,2.8,2.9c-0.2,1.2-0.1,2.7,0.9,3.9c0.4,0.6,1,1.2,1.5,1.6c0.6,0.4,1.2,0.7,2,0.9
	c0,0.7,0.2,1.3,0.6,2c0.2,0.6,0.9,1.2,1.5,1.7c1.1,1,2.6,1.5,3.8,1.3c0.4,1.2,1.3,2.3,2.6,3.1c0.6,0.4,1.3,0.6,2,0.6
	c0.6,0.1,1.3,0,1.8-0.2c0.2,0.5,0.7,1.1,1.2,1.5s1.1,0.9,1.8,1c0.7,0.2,1.5,0.2,2.1,0.2c0.7-0.1,1.2-0.2,1.8-0.6
	c0.4,0.5,0.9,0.9,1.6,1.2c0.6,0.2,1.3,0.5,2.1,0.5c0.4,0,0.9,0,1.1-0.1s0.5-0.2,0.7-0.2c0.5-0.2,0.9-0.6,1.2-1
	c0.9,0.9,1.7,1.3,2.6,1.5s1.5-0.2,2.2-0.9c0.2,0.9,0.6,1.6,1.5,2.1s1.6,0.6,2.6,0.5c-0.2,0.9-0.2,1.6,0.1,2.4
	c0.4,0.7,1.2,1.5,2.2,1.8c-0.2,0.5-0.4,1-0.4,1.5c0,0.2,0,0.5,0,0.9c0.1,0.2,0.2,0.7,0.2,1c0.2,0.7,0.7,1.3,1.2,1.8
	c0.5,0.4,1.1,0.9,1.7,1c-0.1,0.6,0,1.2,0.1,1.8c0.2,0.6,0.5,1.2,0.9,1.8c0.2,0.2,0.5,0.5,0.7,0.7s0.5,0.4,0.9,0.5
	c0.6,0.2,1.2,0.5,1.8,0.5c0,0.6,0.2,1.2,0.5,1.7c0.2,0.6,0.7,1.1,1.3,1.5c1.1,0.9,2.4,1.2,3.7,1.1c0.2,1.1,1.1,2.2,2.4,3.1
	c0.6,0.2,1.3,0.5,2.1,0.6c0.7,0.1,1.5,0,2.1-0.2c0.2,0.5,0.9,1,1.3,1.5c0.2,0.2,0.6,0.4,0.9,0.5c0.2,0.2,0.7,0.2,1,0.2
	c1.5,0.2,2.8,0.1,3.9-0.6c0.9,0.9,2.1,1.6,3.4,1.6c0.7,0,1.5-0.1,2-0.2c0.6-0.2,1.1-0.5,1.5-0.9c0.5,0.4,1,0.7,1.7,0.9
	c0.6,0.2,1.3,0.2,2.1,0.1c0.7-0.1,1.3-0.2,2-0.7c0.5-0.2,1-0.9,1.3-1.3c0.6,0.2,1.2,0.4,2,0.4s1.5-0.1,2.1-0.5
	c0.2-0.2,0.7-0.4,0.9-0.5c0.2-0.2,0.4-0.4,0.5-0.6c0.2-0.4,0.6-0.9,0.7-1.5c1,0.4,2.1,0.5,2.8,0.2c0.9-0.2,1.2-0.9,1.7-1.6
	c0.6,0.7,1.2,1.2,2.1,1.5c0.9,0.2,1.7-0.1,2.6-0.6c0.2,0.9,0.4,1.6,1,2.1s1.6,0.9,2.7,0.7c0,0.5,0,1,0.2,1.5
	c0.1,0.2,0.2,0.5,0.2,0.7c0.2,0.2,0.4,0.6,0.7,0.9c0.5,0.6,1.2,0.9,1.8,1.2c0.6,0.2,1.3,0.2,2,0.2c0.1,0.6,0.4,1.1,0.9,1.6
	c0.4,0.5,0.9,0.9,1.5,1.3c0.6,0.2,1.3,0.5,2,0.6c0.6,0.1,1.3,0,1.8-0.2c0.2,0.5,0.6,1,1.1,1.5s1.1,0.7,1.7,0.9
	c1.3,0.4,2.7,0.2,3.8-0.2c0.7,0.9,2,1.6,3.3,1.8c0.7,0.1,1.5,0,2.1-0.1c0.7-0.2,1.3-0.5,1.7-0.9c0.5,0.4,1.1,0.7,1.7,0.9
	c0.6,0.2,1.5,0.2,2.1,0.1c1.5-0.2,2.7-0.9,3.3-1.8c1.1,0.5,2.4,0.7,3.8,0.2c0.7-0.2,1.2-0.5,1.7-0.9s0.9-0.9,1.1-1.5
	c0.6,0.2,1.2,0.2,1.8,0.2c0.6-0.1,1.3-0.2,2-0.6c0.6-0.2,1.1-0.9,1.5-1.3c0.4-0.5,0.7-1.1,0.9-1.6c0.6,0,1.3,0,2-0.2
	c0.6-0.2,1.3-0.6,1.8-1.2c0.2-0.2,0.5-0.6,0.7-0.9c0.1-0.2,0.2-0.5,0.2-0.7c0.2-0.5,0.2-1,0.2-1.5c1.1,0,2.1-0.2,2.7-0.7
	c0.7-0.5,0.9-1.2,1-2.1c0.9,0.5,1.6,0.7,2.6,0.6c0.9-0.2,1.6-0.7,2.1-1.5c0.5,0.9,0.9,1.5,1.7,1.6c0.9,0.2,1.8,0.2,2.8-0.2
	c0.2,0.5,0.4,1,0.7,1.5c0.2,0.2,0.2,0.4,0.5,0.6c0.2,0.2,0.6,0.4,0.9,0.5c0.7,0.2,1.5,0.5,2.1,0.5c0.7,0,1.3-0.2,2-0.4
	c0.2,0.5,0.9,0.9,1.3,1.3c0.5,0.2,1.2,0.6,2,0.7c0.7,0.1,1.5,0.1,2.1-0.1s1.2-0.5,1.7-0.9c0.4,0.4,0.9,0.7,1.5,0.9
	c0.6,0.1,1.3,0.2,2,0.2c1.5,0,2.7-0.7,3.4-1.6c1,0.6,2.3,0.9,3.9,0.6c0.2-0.1,0.7-0.2,1-0.2c0.2-0.2,0.6-0.2,0.9-0.5
	c0.6-0.4,1-0.9,1.3-1.5c0.6,0.2,1.3,0.2,2.1,0.2c0.7-0.1,1.5-0.2,2.1-0.6c1.3-0.7,2.1-1.8,2.4-3.1c1.2,0.1,2.7-0.2,3.7-1.1
	c0.5-0.4,1-1,1.3-1.5c0.2-0.6,0.5-1.2,0.5-1.7c0.6,0,1.2-0.2,1.8-0.5c0.2-0.1,0.6-0.2,0.9-0.5s0.5-0.5,0.7-0.7
	c0.4-0.6,0.9-1.2,0.9-1.8c0.2-0.6,0.2-1.2,0.1-1.8c0.6-0.2,1.2-0.5,1.7-1s0.9-1,1.2-1.8c0.1-0.2,0.2-0.7,0.2-1s0-0.5,0-0.9
	c0-0.5-0.2-1-0.4-1.5c1-0.4,1.8-1,2.2-1.8c0.4-0.7,0.2-1.5,0.1-2.4c0.9,0.1,1.7,0.1,2.6-0.5c0.9-0.5,1.2-1.2,1.5-2.1
	c0.7,0.5,1.3,0.9,2.2,0.9c0.9-0.1,1.7-0.6,2.6-1.5c0.4,0.4,0.9,0.7,1.2,1c0.2,0.1,0.5,0.2,0.7,0.2c0.2,0.1,0.7,0.1,1.1,0.1
	c0.9,0,1.5-0.2,2.1-0.5c0.6-0.2,1.1-0.7,1.6-1.2c0.5,0.2,1.1,0.5,1.8,0.6c0.6,0.1,1.3,0,2.1-0.2c0.7-0.2,1.3-0.6,1.8-1
	s0.9-0.9,1.2-1.5c0.6,0.2,1.2,0.2,1.8,0.2c0.6-0.1,1.3-0.2,2-0.6c1.2-0.7,2.1-2,2.6-3.1c1.2,0.1,2.6-0.2,3.8-1.3
	c0.6-0.5,1-1.1,1.5-1.7c0.2-0.6,0.6-1.3,0.6-2c0.6-0.1,1.3-0.4,2-0.9c0.6-0.4,1.1-0.9,1.5-1.6c0.9-1.2,1.1-2.7,0.9-3.9
	c1.1-0.5,2.2-1.6,2.8-2.9c0.2-0.7,0.4-1.5,0.4-2.1c0-0.7-0.2-1.3-0.4-1.8c0.5-0.4,1-0.9,1.5-1.5c0.4-0.6,0.6-1.3,0.9-2.1
	c0.1-0.7,0.1-1.5-0.1-2.1s-0.4-1.2-0.9-1.7c0.4-0.5,0.9-1.1,1-1.8c0.2-0.7,0.2-1.5,0.1-2.2c-0.1-0.4-0.1-0.9-0.2-1.1
	c-0.1-0.2-0.2-0.5-0.4-0.7c-0.2-0.4-0.7-0.9-1.1-1c0.2-0.4,0.6-0.9,0.7-1.5c0.1-0.5,0.2-0.9,0.2-1.5c-0.1-0.9-0.5-1.5-1.2-2.1
	c0.9-0.4,1.5-0.9,2-1.8c0.4-0.9,0.2-1.8-0.1-2.7c0.9,0,1.6-0.1,2.3-0.6c0.2-0.2,0.6-0.7,0.9-1.1c0.2-0.4,0.4-1,0.4-1.5
	c0.5,0.1,1,0.1,1.5,0c0.2,0,0.5-0.1,0.9-0.2c0.4-0.1,0.6-0.4,0.9-0.6c0.6-0.5,1.1-1.1,1.5-1.7c0.4-0.6,0.5-1.3,0.5-2.1
	c0.6-0.1,1.2-0.2,1.7-0.7c0.6-0.4,1.1-0.9,1.5-1.5s0.7-1.3,0.9-2.1c0.1-0.7,0.1-1.5,0-2.1c0.5-0.2,1.1-0.6,1.5-1.1s0.9-1.1,1.1-1.8
	c0.5-1.5,0.4-2.9,0-4.2c0.5-0.4,0.9-0.9,1.3-1.5s0.6-1.3,0.7-2.1c0.1-0.9,0.1-1.6-0.1-2.3C314.5,12.3,314.1,11.7,313.6,11.1z
	 M311,6.1c0.4,0.2,0.6,0.7,0.7,1.2s-0.1,1-0.2,1.5c-0.2,0.4-0.7,0.6-1.1,0.7c-0.5,0-0.9-0.1-1.2-0.4c-0.2-0.2-0.6-0.7-0.6-1.1
	c-0.1-0.5,0.1-0.9,0.2-1.3c0.1-0.5,0.6-0.7,1.1-0.9C310.2,5.7,310.6,5.8,311,6.1z M307.6-0.7c0.4-0.2,0.9-0.2,1.3-0.1
	c0.4,0.2,0.7,0.5,0.9,1c0.2,0.5,0.1,1,0,1.5c-0.2,0.4-0.5,0.9-1,0.9c-0.4,0.2-0.9,0.1-1.3-0.1s-0.7-0.5-0.9-1
	c-0.2-0.4-0.1-0.9,0-1.3C307,0,307.4-0.5,307.6-0.7z M303.8-5.3c0.1-0.4,0.2-0.9,0.6-1.2c0.4-0.2,0.9-0.4,1.2-0.4
	c0.4,0.1,0.9,0.2,1.1,0.7c0.2,0.4,0.2,0.9,0.2,1.5c-0.1,0.5-0.2,0.9-0.7,1.1c-0.3,0.3-0.8,0.3-1.3,0.3c-0.4-0.1-0.9-0.2-1-0.7
	C303.8-4.3,303.6-4.8,303.8-5.3z M299.7-10.8c0.2-0.4,0.6-0.6,1-0.7s0.9,0,1.3,0.2s0.6,0.9,0.7,1.2c0,0.5-0.1,0.9-0.4,1.3
	c-0.2,0.4-0.7,0.5-1.1,0.6c-0.4,0-0.9-0.1-1.1-0.2c-0.2-0.2-0.5-0.6-0.6-1.1C299.4-10.1,299.4-10.5,299.7-10.8z M294.9-14.9
	c0.2-0.2,0.9-0.5,1.2-0.5c0.4,0,0.9,0.1,1.1,0.2c0.2,0.2,0.5,0.7,0.5,1.1s-0.1,0.9-0.4,1.2c-0.2,0.4-0.7,0.6-1.1,0.6
	s-0.9-0.1-1.2-0.4s-0.5-0.9-0.5-1.2C294.4-14.1,294.6-14.5,294.9-14.9z M290.2,46c0.2-0.2,0.7-0.5,1.2-0.5s0.9,0.2,1.2,0.5
	c0.4,0.2,0.5,0.6,0.5,1s-0.1,0.9-0.4,1.1s-0.7,0.6-1.1,0.6c-0.5,0.1-0.9-0.1-1.2-0.2c-0.2-0.2-0.6-0.7-0.6-1.2
	C289.9,46.9,289.9,46.4,290.2,46z M288,27.8c-0.9,0.5-1.8,0.6-2.2,0.1s-0.4-1.2-0.2-2.2c0-0.5,0.1-1,0.2-1.5c0-0.6,0.1-1.1,0.1-1.8
	c0.1-1.2,0.2-2.2,0.2-2.7c0.1-0.6,0.4-0.7,0.9-0.2c0.1,0.1,0.4,0.4,0.7,0.9c0.2,0.5,0.7,1.1,1.1,1.8c0.4,0.7,0.7,1.5,0.9,2.1
	c0.1,0.2,0.2,0.6,0.2,0.9c0,0.2,0,0.5,0,0.7C289.7,26.5,288.9,27.3,288,27.8z M289.4,19.2c-0.9-1.3-1.3-2.6-1.3-3.6
	c-0.2-2,0.2-2.2,1.7-1.5c0.2,0.2,2.1,0.9,3.8,2c1.5,1,2.9,2.4,2.7,3.7c-0.2,0.6-0.2,1.2-0.6,1.6c-0.2,0.5-0.5,0.9-0.9,1.2
	c-0.6,0.6-1.5,0.6-2.6-0.1C291.1,21.8,290.2,20.5,289.4,19.2z M270.5,58c0-0.2,0-0.4,0.2-0.6c0.2-0.2,0.4-0.5,0.9-0.9
	c0.7-0.7,2.1-1.3,3.4-1.7c0.4-0.1,0.7-0.2,1.1-0.2c0.4-0.1,0.7-0.1,1.1-0.2c0.7-0.1,1.5-0.1,2.1,0c1.3,0.2,1.8,0.9,2,1.6
	c0.1,0.9-0.2,2-0.9,3.1c-0.6,1.1-2.7,1.2-4.5,0.9c-0.9-0.1-2-0.4-2.7-0.6s-1.3-0.4-1.5-0.4C271,58.6,270.5,58.4,270.5,58z
	 M272.8,52.1c0.2-0.5,0.9-1.3,1.7-2.3c0.4-0.5,0.9-1,1.1-1.5s0.6-0.9,1-1.3c0.6-0.7,1.2-1.3,1.8-1.3c0.6-0.1,1.2,0.7,1.5,1.6
	c0.2,1,0.4,2.1,0,2.8s-2.1,1.5-3.4,2c-1.5,0.5-2.9,0.9-3.3,0.9C272.6,53,272.6,52.6,272.8,52.1z M278.7,38.7c-0.9,0-0.9-1.7-0.1-3.3
	c0.6-1.6,2-2.8,2.4-2.3c0.5,0.6,0.9,2.6,0.5,3.6C281.2,37.5,279.3,38.7,278.7,38.7z M271.7-36.5c0.2-0.1,0.7-0.2,1.5-0.4
	c0.7-0.2,1.7-0.4,2.7-0.6c2-0.2,3.9-0.2,4.5,0.9c0.6,1.1,1,2.2,0.9,3.1c-0.1,0.9-0.6,1.5-2,1.6c-0.6,0.1-1.3,0.1-2.1,0
	c-0.4,0-0.7-0.1-1.1-0.2c-0.4-0.1-0.7-0.2-1.1-0.2c-1.5-0.4-2.7-1-3.4-1.7c-0.2-0.4-0.6-0.6-0.9-0.9c-0.2-0.2-0.2-0.5-0.2-0.6
	C270.5-36,271-36.4,271.7-36.5z M273.1-30.7c0.2,0,1.7,0.2,3.3,0.9c1.5,0.5,3.2,1.2,3.4,2c0.4,0.7,0.2,1.8,0,2.8s-0.9,1.7-1.5,1.6
	s-1.2-0.6-1.8-1.3c-0.2-0.4-0.6-0.9-1-1.3s-0.7-0.9-1.1-1.5c-0.9-1-1.5-1.7-1.7-2.3C272.6-30.4,272.6-30.7,273.1-30.7z M278.7-16.5
	c0.9,0,2.4,1.2,2.8,2.1c0.2,1,0,2.9-0.5,3.6c-0.5,0.6-1.8-0.6-2.4-2.3C277.9-14.7,277.9-16.5,278.7-16.5z M289.9-3.6
	c0,0.2,0,0.4,0,0.7c-0.1,0.2-0.1,0.6-0.2,0.9c-0.2,0.7-0.6,1.5-0.9,2.1c-0.4,0.7-0.9,1.3-1.1,1.8s-0.6,0.9-0.7,0.9
	c-0.4,0.4-0.7,0.2-0.9-0.2c-0.1-0.6-0.2-1.5-0.2-2.7c0-0.6-0.1-1.2-0.1-1.8c-0.1-0.5-0.1-1.1-0.2-1.5c-0.1-0.9,0-1.7,0.2-2.2
	c0.4-0.5,1.3-0.2,2.2,0.1C288.9-5.1,289.7-4.2,289.9-3.6z M289.9-25.1c0-0.5,0.2-0.9,0.6-1.2c0.2-0.2,0.9-0.4,1.2-0.2
	c0.5,0.1,0.9,0.2,1.1,0.6c0.2,0.2,0.4,0.7,0.4,1.1s-0.2,0.7-0.5,1c-0.2,0.2-0.7,0.5-1.2,0.5s-0.9-0.1-1.2-0.5
	C289.9-24.2,289.9-24.5,289.9-25.1z M288,6.6c0-0.9,0.5-2.2,1.3-3.6s1.7-2.6,2.8-3.3s2-0.7,2.6-0.1c0.2,0.2,0.6,0.7,0.9,1.2
	s0.4,1,0.6,1.6c0.2,1.2-1.1,2.7-2.7,3.7s-3.4,1.8-3.8,2C288.4,8.8,287.8,8.4,288,6.6z M294.1-18c-0.2,0.4-0.4,0.7-0.9,0.9
	c-0.4,0.2-0.9,0.2-1.3,0.1s-0.9-0.7-1-1.1c-0.2-0.4-0.2-1.1-0.1-1.5s0.5-0.7,1-0.9c0.4-0.1,0.9-0.1,1.3,0.1s0.7,0.6,0.9,1
	C294.3-19.1,294.3-18.5,294.1-18z M294.1-30.9c-0.1,0.5-0.2,0.9-0.7,1.1c-0.4,0.2-0.9,0.2-1.3,0.2c-0.5-0.1-0.9-0.4-1.1-0.7
	c-0.2-0.4-0.4-0.9-0.4-1.2c0.1-0.4,0.2-0.9,0.6-1c0.2-0.2,0.9-0.4,1.2-0.4c0.5,0,0.9,0.2,1.2,0.6C293.9-31.9,294.1-31.4,294.1-30.9z
	 M293.2-39c0.4,0.2,0.7,0.7,0.9,1.2c0.1,0.5-0.1,1-0.2,1.3c-0.2,0.2-0.7,0.6-1.1,0.6c-0.5,0-0.9-0.1-1.3-0.4
	c-0.4-0.2-0.6-0.6-0.7-1.1c-0.1-0.4,0-0.9,0.2-1.2c0.2-0.2,0.6-0.6,1.1-0.7C292.3-39.3,292.6-39.2,293.2-39z M289.5-45.5
	c0.4-0.2,0.9-0.2,1.3,0s0.9,0.5,1,1c0.2,0.5,0.2,0.9,0,1.5c-0.2,0.4-0.5,0.7-1,0.9c-0.5,0.1-0.9,0.1-1.3-0.1
	c-0.4-0.2-0.7-0.5-0.9-0.9c-0.2-0.4-0.2-0.9,0-1.3C288.9-44.9,289-45.3,289.5-45.5z M288.5-50.7c0.2,0.4,0.4,0.9,0.2,1.5
	c-0.1,0.4-0.4,0.9-0.9,1s-0.9,0.2-1.3,0.2c-0.4-0.1-0.9-0.2-1.1-0.7c-0.2-0.4-0.2-0.9-0.2-1.2c0.1-0.4,0.2-0.9,0.7-1.1
	c0.4-0.2,0.9-0.4,1.3-0.2C287.8-51.5,288.3-51.1,288.5-50.7z M281.2-56c0.2-0.4,0.7-0.6,1.1-0.6s0.9,0.1,1.3,0.5
	c0.4,0.2,0.6,0.9,0.7,1.3c0,0.5-0.1,0.9-0.4,1.2s-0.9,0.5-1.2,0.5c-0.4,0-0.9-0.1-1.2-0.4c-0.2-0.2-0.5-0.7-0.6-1.1
	C280.9-55,280.9-55.6,281.2-56z M275.7-59.4c0.2-0.4,0.5-0.7,1-0.9c0.4-0.1,0.9-0.1,1.3,0.2c0.4,0.2,0.7,0.6,0.9,1.1
	c0.1,0.4,0.1,0.9-0.2,1.3c-0.2,0.4-0.6,0.7-1,0.9c-0.4,0.1-0.9,0.1-1.2-0.2c-0.4-0.2-0.7-0.6-0.9-1
	C275.5-58.6,275.5-59.1,275.7-59.4z M276-44.9C276-44.7,276.1-44.7,276-44.9l0.2,0.2c2,2.3,1.2,3.7-0.2,4.4
	c-1.5,0.7-3.4,0.9-4.4,0.9c-0.4,0-0.7-0.2-0.9-0.6c-0.1-0.1-0.2-0.2-0.2-0.5c-0.1-0.2-0.1-0.4-0.1-0.6c0-0.9,0.5-2.9,1.3-4.2
	C272.6-46.5,273.9-46.9,276-44.9z M269.8-61.8c0.1-0.5,0.4-0.9,0.7-1c0.4-0.2,0.9-0.2,1.3-0.1c0.5,0.2,0.9,0.5,1,0.9
	c0.2,0.4,0.2,0.9,0.1,1.3c-0.2,0.4-0.5,0.9-0.9,1c-0.4,0.2-0.9,0.2-1.2,0.1c-0.4-0.1-0.7-0.4-0.9-0.9
	C269.8-60.9,269.5-61.3,269.8-61.8z M268.7-49.6c0.5,0.4,0.7,1,0.9,1.8c0,0.4,0,0.9-0.1,1.3c-0.1,0.4-0.2,0.9-0.2,1.5
	c-0.5,1.8-1.5,3.6-1.5,3.9c-0.6,1.5-1.2,1.5-2.4-0.1c-0.2-0.4-0.6-0.9-0.9-1.6c-0.2-0.6-0.4-1.3-0.5-2.1c-0.2-1.5-0.2-3.2,0.1-4.4
	s1-1.7,2-1.6C266.7-51,267.7-50.4,268.7-49.6z M263.8-63.6c0.2-0.2,0.7-0.5,1.2-0.5s0.9,0.2,1.2,0.6c0.2,0.2,0.5,0.9,0.4,1.2
	c0,0.5-0.2,0.9-0.6,1.2c-0.2,0.2-0.7,0.4-1.1,0.4s-0.9-0.2-1.1-0.5c-0.2-0.2-0.5-0.7-0.5-1.2S263.7-63.3,263.8-63.6z M257.3-62.9
	c0.1-0.5,0.4-0.9,0.7-1.1c0.2-0.2,0.7-0.4,1.1-0.2c0.4,0,0.9,0.2,1,0.6c0.2,0.2,0.4,0.7,0.4,1.2s-0.2,0.9-0.5,1.2
	c-0.2,0.2-0.9,0.5-1.3,0.4c-0.5,0-0.9-0.2-1.2-0.6C257.3-61.9,257.3-62.2,257.3-62.9z M257.3-51c1-0.2,2.2-0.1,2.8,0.5
	c0.6,0.5,1.1,2.1,1.5,3.8c0.1,0.4,0.2,0.9,0.2,1.1c0,0.4,0.1,0.7,0.1,1c0.1,0.6,0.1,1,0.1,1.2c0,0.6-0.2,0.6-0.9,0.2
	c-0.2-0.2-0.5-0.5-0.9-0.9c-0.2-0.2-0.9-0.7-1.2-1.2c-0.9-0.9-1.7-1.8-2.4-2.6c-0.7-0.7-1.1-1.5-1.1-2.1
	C255.5-50.4,256.3-50.9,257.3-51z M251.7-65.8c0.2-0.4,0.7-0.6,1.1-0.6c0.4-0.1,0.9,0.1,1.3,0.2c0.2,0.2,0.7,0.7,0.9,1.1
	c0.1,0.4,0,0.9-0.2,1.3c-0.2,0.4-0.6,0.7-1,0.9c-0.4,0.1-1.1-0.1-1.5-0.2c-0.4-0.2-0.9-0.9-0.9-1.3
	C251.3-64.9,251.3-65.3,251.7-65.8z M249.3-70.7c0.4,0.1,0.7,0.4,0.9,0.7c0.2,0.4,0.2,0.7,0.1,1.1c-0.1,0.4-0.4,0.9-0.7,1
	c-0.4,0.2-0.9,0.4-1.3,0.2c-0.4-0.1-0.9-0.4-1.1-0.9c-0.2-0.4-0.2-0.9-0.1-1.3c0.1-0.4,0.4-0.9,0.9-0.9
	C248.6-70.8,249-70.8,249.3-70.7z M248.2-51.5c0,0.4-0.5,0.5-1.2,0.4c-0.6-0.1-1.5-0.4-2.3-1c-1.5-1-2.7-2.7-2-3.1
	c0.7-0.4,2.7-0.2,3.7,0.2c0.4,0.2,0.9,0.9,1.2,1.5C248.1-52.6,248.2-51.8,248.2-51.5z M245.5-76.3c0.4-0.2,0.9-0.2,1.3-0.1
	c0.4,0.1,0.9,0.4,1,0.9c0.2,0.5,0.2,0.9,0,1.3s-0.5,0.7-1,0.9c-0.4,0.2-0.9,0.2-1.3,0c-0.4-0.2-0.7-0.4-0.9-0.9
	c-0.2-0.4-0.2-0.9,0-1.2C244.9-75.7,245.3-76.1,245.5-76.3z M241.9-81.3c0.4-0.2,0.9-0.5,1.2-0.4c0.4,0,0.9,0.2,1.2,0.6
	c0.4,0.4,0.4,0.9,0.4,1.3c-0.1,0.4-0.2,0.9-0.7,1.1c-0.4,0.2-0.9,0.2-1.3,0.2c-0.4,0-0.9-0.2-1.1-0.5c-0.2-0.2-0.4-0.7-0.4-1.2
	C241.4-80.6,241.5-81,241.9-81.3z M237.1-85.6c0.2-0.4,0.7-0.6,1.1-0.6s0.9,0.1,1.3,0.4c0.4,0.2,0.6,0.7,0.6,1.2
	c0,0.4-0.1,0.9-0.4,1.2c-0.2,0.2-0.7,0.5-1.2,0.5c-0.4,0-0.9-0.1-1.2-0.2c-0.4-0.2-0.5-0.7-0.6-1.1
	C236.6-84.8,236.8-85.1,237.1-85.6z M237.3-65.7c1.5,0.9,2.2,4.2,1.1,4.7c-0.6,0.2-1.3,0-2.3-0.2c-0.5-0.2-1-0.4-1.5-0.6
	c-0.6-0.2-1.2-0.4-1.8-0.7c-1.2-0.5-2.2-0.9-2.7-1.2c-0.5-0.2-0.6-0.6-0.1-0.9c0.2-0.1,1.7-0.5,3.3-0.9
	C234.9-65.8,236.6-66,237.3-65.7z M231.5-88.9c0.2-0.4,0.5-0.7,1-0.9c0.4-0.1,0.9-0.1,1.5,0.1c0.4,0.2,0.7,0.6,0.9,1.1
	c0.1,0.4,0.1,0.9-0.2,1.3c-0.2,0.4-0.6,0.6-1,0.9c-0.4,0.1-0.9,0.1-1.2-0.1c-0.4-0.2-0.7-0.5-0.9-0.9
	C231.3-88,231.3-88.5,231.5-88.9z M233.3-73.5c0.5,0.2,1,0.7,1.5,1.1c0.4,0.4,0.7,0.9,0.9,1.1c0.4,0.9,0.2,1.6-0.9,2.4
	c-1,0.9-2.6,1.5-4,1.7s-3.1,0.4-3.9,0.1c-2-0.6-2.1-1.1-0.9-2.2c0.2-0.2,1.5-1.6,3.2-2.8C230.3-73.3,232.2-74.2,233.3-73.5z
	 M225.2-90.9c0.1-0.5,0.2-0.9,0.7-1.1c0.4-0.2,0.9-0.2,1.3-0.2c0.5,0.1,0.9,0.4,1.1,0.9c0.2,0.5,0.2,0.9,0.2,1.3
	c-0.1,0.4-0.4,0.9-0.9,1c-0.4,0.2-0.9,0.2-1.2,0.2c-0.4,0-0.9-0.4-1-0.7C225.2-89.9,225.2-90.4,225.2-90.9z M225.7-78.5
	c0.1,0,0.1,0,0.2,0.1c0.1,0,0.1,0,0.2,0.1c2.7,1.1,2.7,2.7,2,3.9c-0.9,1.3-2.7,2.4-3.4,2.8c-0.4,0.2-0.9,0.1-1.1-0.1
	c-0.4-0.1-0.7-0.2-0.9-0.7c-0.2-0.4-0.4-1.1-0.6-2c-0.2-0.9-0.2-1.7-0.1-2.4C221.9-78.4,222.9-79.6,225.7-78.5z M219.3-92.7
	c0.2-0.2,0.9-0.5,1.2-0.5c0.5,0,0.9,0.2,1.2,0.6c0.2,0.2,0.5,0.9,0.4,1.3c0,0.5-0.2,0.9-0.6,1.1c-0.2,0.2-0.7,0.4-1.2,0.4
	c-0.4,0-0.9-0.2-1.1-0.5c-0.2-0.2-0.5-0.7-0.5-1.2C218.8-92,219.1-92.4,219.3-92.7z M219.3-75.7c0.4,2,0.4,3.9,0.4,4.2
	c0.1,1.5-0.4,2-2.2,1c-0.9-0.4-2.1-1.5-2.9-2.7s-1.6-2.7-1.8-3.9c-0.4-2.7,1.7-2.7,4.3-2.4C218.1-79.5,218.8-77.7,219.3-75.7z
	 M212.7-92.1c0.2-0.4,0.6-0.6,1.1-0.7s0.9,0.1,1.3,0.4c0.4,0.2,0.6,0.7,0.6,1.2s-0.1,0.9-0.2,1.2c-0.2,0.2-0.6,0.6-1,0.6
	c-0.4,0.1-0.9-0.1-1.2-0.2c-0.2-0.2-0.6-0.6-0.7-1.1C212.5-91.4,212.6-91.9,212.7-92.1z M206.6-90.2c0.1-0.4,0.4-0.7,0.9-0.9
	c0.5-0.2,0.9-0.2,1.3,0c0.4,0.2,0.7,0.5,0.9,1c0.2,0.4,0.1,0.9,0,1.3c-0.2,0.4-0.4,0.7-0.9,0.9c-0.4,0.2-0.9,0.1-1.2,0
	c-0.4-0.1-0.9-0.4-1-0.9S206.5-89.8,206.6-90.2z M208.7-76.7c0.9,0.2,2,1.5,2.9,2.7c1,1.3,1.8,2.7,2,2.8c0.5,1.1-1,0.6-3.6-0.4
	c-0.6-0.2-1.2-0.5-1.8-0.7s-1.1-0.4-1.6-0.6c-0.9-0.4-1.6-0.9-2-1.3C204-75.1,207.1-77.2,208.7-76.7z M201.2-88
	c0.2-0.4,0.5-0.6,0.9-0.9c0.4-0.1,0.9-0.1,1.2,0.1c0.4,0.2,0.7,0.5,0.9,0.9s0.2,0.9,0,1.3s-0.5,0.7-1,0.9c-0.5,0.2-0.9,0.1-1.3-0.1
	c-0.4-0.2-0.6-0.6-0.7-1.1C200.8-87.2,201-87.6,201.2-88z M194.6-87.1c0.1-0.4,0.4-0.9,0.7-1c0.2-0.2,0.9-0.2,1.3-0.2
	c0.5,0,0.9,0.2,1.2,0.6c0.2,0.2,0.4,0.7,0.2,1.2c0,0.5-0.2,0.9-0.6,1.2c-0.2,0.2-1.1,0.4-1.5,0.2c-0.5-0.1-1.1-0.4-1.3-0.9
	C194.5-86.2,194.3-86.7,194.6-87.1z M194.3-75c1.1,0.2,2.7,1.5,2.9,2.3c0.1,0.4-0.2,0.7-0.9,0.9c-0.7,0.2-1.6,0.2-2.7,0
	c-2-0.2-3.6-1.5-3.1-2.1C191.3-74.4,193.2-75.1,194.3-75z M189.6-90.3c0.2-0.2,0.7-0.5,1.1-0.6c0.4,0,0.9,0,1.1,0.2
	c0.2,0.2,0.5,0.6,0.5,1s0,0.9-0.2,1.2c-0.2,0.4-0.6,0.7-1,0.7c-0.4,0.1-0.9,0-1.3-0.2c-0.5-0.2-0.6-0.7-0.6-1.2
	C189-89.6,189.2-89.9,189.6-90.3z M185-94.6c0.2-0.4,0.7-0.6,1.2-0.6c0.4,0,0.9,0.1,1.3,0.5c0.4,0.4,0.5,0.9,0.5,1.2
	s-0.2,0.9-0.6,1.1c-0.2,0.2-0.9,0.5-1.2,0.5c-0.4,0-0.9-0.1-1.1-0.4c-0.2-0.2-0.4-0.7-0.5-1.1C184.6-93.8,184.8-94.2,185-94.6z
	 M179.7-97.9c0.2-0.4,0.6-0.7,1-0.9c0.4-0.1,0.9-0.1,1.3,0.1c0.4,0.2,0.7,0.6,0.9,1c0.1,0.4,0,0.9-0.2,1.3s-0.6,0.6-1,0.9
	c-0.4,0.1-0.9,0.1-1.2-0.1c-0.4-0.2-0.6-0.5-0.9-0.9C179.4-96.9,179.4-97.4,179.7-97.9z M181.4-81.5c1.6,0.2,3.8,3.1,2.8,3.9
	c-0.9,0.9-3.3,0.6-6,0.6c-2.7,0.1-4.3,0-3.4-0.9c0.2-0.2,1.5-1.1,2.8-2.1C179-80.9,180.5-81.6,181.4-81.5z M173.8-100
	c0.1-0.4,0.4-0.9,0.9-1s0.9-0.2,1.3-0.1s0.9,0.5,1,0.9c0.2,0.4,0.2,0.9,0,1.3s-0.5,0.9-0.9,1c-0.4,0.2-0.9,0.2-1.2,0.1
	c-0.4-0.1-0.7-0.4-0.9-0.9C173.5-99.1,173.5-99.5,173.8-100z M172.8-86.6c0.6-0.5,1.2-0.9,2-0.7c2.6,0.5,4.5,1.5,3.2,3.8
	c-0.6,1.1-1.8,2.2-3.2,3.2c-0.6,0.4-1.3,0.9-2,1c-0.6,0.2-1.2,0.5-1.7,0.5c-2.1,0.2-2.4-0.2-1.7-1.7c0.2-0.2,0.9-2.1,2-3.8
	C171.6-85.3,172.1-86.1,172.8-86.6z M168-102.3c0.4-0.2,0.9-0.4,1.3-0.4c0.5,0.1,0.9,0.2,1.2,0.7c0.2,0.4,0.4,0.9,0.2,1.3
	s-0.2,0.9-0.7,1.1c-0.2,0.2-0.9,0.4-1.2,0.2c-0.4-0.1-0.9-0.2-1.1-0.6c-0.2-0.2-0.4-0.9-0.4-1.2C167.5-101.6,167.7-101.9,168-102.3z
	 M165.9-89.3c0.1,0,0.1,0,0.2,0c2.9,0.1,3.6,1.5,3.2,3.1c-0.2,1.5-1.6,3.3-2.2,3.9c-0.2,0.2-0.7,0.4-1.1,0.2c-0.4,0.1-0.9,0-1.1-0.2
	c-0.7-0.6-2-2.3-2.2-3.9C162.5-87.7,163-89.2,165.9-89.3C165.8-89.3,165.8-89.3,165.9-89.3z M161.2-101.9c0.2-0.4,0.7-0.6,1.2-0.7
	s1,0.1,1.3,0.4c0.2,0.2,0.6,0.7,0.6,1.1c0,0.5-0.1,0.9-0.4,1.2c-0.2,0.2-0.6,0.5-1.1,0.6c-0.4,0.1-0.9-0.1-1.2-0.2
	c-0.2-0.2-0.6-0.6-0.7-1.1C160.9-101.2,161-101.6,161.2-101.9z M154.9-100.2c0.2-0.4,0.5-0.7,1-0.9c0.5-0.1,0.9-0.1,1.3,0.1
	c0.5,0.2,0.7,0.6,0.9,1c0.1,0.5,0.1,0.9-0.1,1.3c-0.2,0.5-0.5,0.7-0.9,0.9c-0.4,0.1-0.9,0.1-1.2-0.1c-0.4-0.2-0.7-0.5-0.9-1
	C154.7-99.3,154.8-99.8,154.9-100.2z M157.1-87.3c0.6-0.1,1.3,0.2,2,0.7c0.6,0.5,1.2,1.3,1.7,2.1c1,1.6,1.7,3.4,2,3.8
	c0.7,1.5,0.4,2-1.7,1.7c-0.5,0-1.1-0.2-1.7-0.5c-0.6-0.2-1.3-0.6-2-1c-1.3-0.9-2.6-2-3.2-3.2C152.7-85.9,154.7-86.7,157.1-87.3z
	 M148.9-97.5c0.1-0.4,0.4-0.9,0.9-1c0.4-0.2,0.9-0.2,1.3-0.1c0.4,0.1,0.9,0.4,1,0.9c0.2,0.4,0.2,0.9,0.1,1.3
	c-0.1,0.4-0.4,0.7-0.9,0.9c-0.4,0.2-0.9,0.2-1.2,0.1c-0.4-0.1-0.9-0.4-1-0.9C148.9-96.7,148.9-97,148.9-97.5z M150.5-81.5
	c0.9-0.1,2.3,0.6,3.8,1.5s2.7,1.8,2.8,2.1c0.9,0.9-0.7,0.9-3.4,0.9s-5.1,0.2-6-0.6C146.6-78.5,148.9-81.3,150.5-81.5z M144.4-94.7
	c0.2-0.4,0.9-0.5,1.3-0.5c0.4,0,0.9,0.2,1.2,0.6c0.4,0.4,0.4,0.9,0.4,1.2s-0.2,0.9-0.5,1.1c-0.2,0.2-0.7,0.4-1.1,0.4
	c-0.4,0-0.9-0.1-1.2-0.5c-0.2-0.2-0.5-0.7-0.6-1.1C143.8-94,143.9-94.3,144.4-94.7z M139.5-89.6c0-0.4,0.2-0.7,0.5-1
	c0.2-0.2,0.7-0.2,1.1-0.2c0.4,0.1,0.9,0.2,1.1,0.6c0.2,0.2,0.5,0.9,0.4,1.2c0,0.4-0.2,0.9-0.6,1.2c-0.4,0.2-0.9,0.4-1.3,0.2
	c-0.5-0.1-0.9-0.2-1-0.7C139.5-88.7,139.5-89.2,139.5-89.6z M141.1-73.8c0.5,0.6-1.1,1.6-3.1,2.1c-0.9,0.2-2,0.1-2.7,0
	s-1.1-0.4-0.9-0.9c0.2-0.9,2-2.1,2.9-2.3C138.8-75.1,140.6-74.4,141.1-73.8z M134-87.7c0.2-0.2,0.9-0.6,1.2-0.6c0.4-0.1,1,0,1.3,0.2
	c0.2,0.2,0.6,0.6,0.7,1c0.1,0.5,0.1,0.9-0.1,1.3c-0.2,0.5-0.9,0.7-1.3,0.9c-0.5,0.1-1.2,0-1.5-0.2s-0.5-0.7-0.6-1.2
	C133.6-87,133.7-87.3,134-87.7z M127.6-87.7c0.2-0.4,0.5-0.7,0.9-0.9c0.4-0.2,0.9-0.2,1.2-0.1s0.7,0.4,0.9,0.9
	c0.2,0.4,0.2,0.9,0.2,1.3c-0.1,0.5-0.2,0.9-0.7,1.1c-0.4,0.2-0.9,0.2-1.3,0.1c-0.5-0.2-0.9-0.5-1-0.9
	C127.5-86.7,127.5-87.2,127.6-87.7z M122.1-90.2c0.2-0.4,0.5-0.9,0.9-1c0.4-0.2,0.9-0.2,1.3,0c0.5,0.2,0.9,0.5,0.9,0.9
	c0.1,0.4,0.1,0.9-0.1,1.3s-0.6,0.7-1,0.9c-0.4,0.1-0.9,0.2-1.2,0c-0.4-0.2-0.6-0.5-0.9-0.9C122-89.2,122-89.8,122.1-90.2z
	 M123.2-76.7c1.6-0.4,4.5,1.5,3.9,2.7c-0.2,0.5-1,0.9-2,1.3c-0.5,0.2-1,0.4-1.6,0.6s-1.2,0.4-1.8,0.7c-2.4,1-3.9,1.5-3.6,0.4
	c0.1-0.2,0.9-1.5,2-2.8C121.2-75.2,122.5-76.6,123.2-76.7z M116-91.4c0-0.5,0.2-0.9,0.6-1.2c0.4-0.2,0.9-0.4,1.3-0.4
	c0.5,0.1,0.9,0.2,1.1,0.7c0.2,0.4,0.2,0.9,0.2,1.3c-0.1,0.5-0.4,0.9-0.7,1.1c-0.2,0.2-0.7,0.4-1.2,0.2c-0.4,0-0.9-0.2-1-0.6
	C116-90.4,116-90.9,116-91.4z M114.9-79.8c2.6-0.2,4.7-0.2,4.3,2.4c-0.2,1.3-0.9,2.7-1.8,3.9c-0.9,1.2-2,2.3-2.9,2.7
	c-1.8,0.9-2.3,0.5-2.2-1c0-0.4,0.1-2.2,0.4-4.2C113-77.7,113.7-79.5,114.9-79.8z M110-92.5c0.2-0.2,0.7-0.6,1.2-0.6s0.9,0.2,1.2,0.5
	c0.2,0.2,0.5,0.7,0.5,1.2s-0.2,0.9-0.5,1.2c-0.2,0.2-0.7,0.5-1.1,0.5s-0.9-0.1-1.2-0.4c-0.2-0.2-0.5-0.7-0.6-1.1
	C109.5-91.8,109.7-92.1,110-92.5z M103.5-91.4c0.2-0.4,0.6-0.7,1.1-0.9c0.5-0.1,1,0,1.3,0.2c0.4,0.2,0.6,0.6,0.7,1.1s0,0.9-0.2,1.3
	s-0.6,0.6-1,0.7s-0.9,0-1.2-0.2c-0.4-0.2-0.7-0.6-0.9-1C103.1-90.4,103.2-91,103.5-91.4z M106.2-78.5c2.7-1.1,3.9,0.1,4,1.6
	c0.1,0.9,0,1.6-0.1,2.4c-0.2,0.9-0.4,1.5-0.6,2c-0.2,0.4-0.5,0.6-0.9,0.7c-0.2,0.2-0.7,0.2-1.1,0.1c-0.9-0.2-2.7-1.5-3.4-2.8
	C103.2-75.8,103.2-77.3,106.2-78.5C106.1-78.4,106.1-78.4,106.2-78.5C106.1-78.5,106.2-78.5,106.2-78.5z M97.1-88.6
	c0.1-0.4,0.4-0.9,0.9-1.1c0.4-0.2,0.9-0.2,1.5-0.1c0.4,0.1,0.9,0.4,1,0.9c0.2,0.4,0.2,0.9,0.1,1.3s-0.4,0.7-0.9,0.9
	c-0.4,0.2-0.9,0.2-1.2,0.1s-0.9-0.4-1-0.9C97.1-87.7,97-88.1,97.1-88.6z M96.3-71.2c0.2-0.4,0.5-0.9,0.9-1.1
	c0.4-0.4,0.9-0.7,1.5-1.1c1.1-0.7,2.8,0.2,4.4,1.5c1.5,1.1,2.8,2.6,3.2,2.8c1.1,1.1,1,1.7-0.9,2.2c-1,0.2-2.4,0.2-3.9-0.1
	c-1.5-0.2-3.1-0.9-4-1.7C96.1-69.6,95.9-70.5,96.3-71.2z M98.6-65.6c1.6,0.2,3.1,0.7,3.3,0.9c0.5,0.2,0.5,0.5-0.1,0.9
	c-0.5,0.2-1.5,0.7-2.7,1.2c-0.6,0.2-1.2,0.5-1.8,0.7c-0.6,0.2-1.1,0.5-1.5,0.6c-0.9,0.2-1.7,0.5-2.3,0.2c-1.1-0.4-0.2-3.9,1.1-4.7
	C95-66,97-65.8,98.6-65.6z M92.3-85.9c0.4-0.2,0.9-0.4,1.3-0.4c0.5,0.1,0.9,0.2,1.1,0.6s0.4,0.9,0.2,1.2c0,0.4-0.2,0.9-0.6,1.1
	s-0.9,0.4-1.2,0.2c-0.4,0-0.9-0.2-1.2-0.5s-0.5-0.9-0.4-1.2C91.7-85,92-85.6,92.3-85.9z M87.6-81.2c0.2-0.4,0.9-0.6,1.2-0.6
	s0.9,0.1,1.2,0.4s0.5,0.7,0.6,1.1c0,0.4-0.1,0.9-0.4,1.2c-0.2,0.2-0.7,0.5-1.1,0.5s-0.9-0.1-1.3-0.2c-0.4-0.2-0.6-0.7-0.7-1.1
	C87-80.2,87.2-80.9,87.6-81.2z M87.2-52.1c-0.9,0.5-1.6,0.9-2.3,1c-0.6,0.1-1.1,0-1.2-0.4c0-0.4,0.2-1.1,0.5-1.7
	c0.2-0.6,0.9-1.2,1.2-1.5c0.9-0.6,2.9-0.7,3.7-0.2C89.7-54.7,88.7-53.1,87.2-52.1z M83.9-75.5c0.2-0.5,0.6-0.9,1-0.9
	c0.4-0.1,0.9-0.1,1.3,0.1s0.7,0.6,0.9,1s0.1,0.9,0,1.2c-0.2,0.4-0.5,0.6-0.9,0.9c-0.4,0.2-0.9,0.2-1.3,0s-0.9-0.5-1-0.9
	C83.7-74.6,83.7-75,83.9-75.5z M81.5-70.1c0.2-0.2,0.5-0.6,0.9-0.7s0.9-0.1,1.3,0.1s0.7,0.5,0.9,0.9c0.1,0.4,0.1,0.9-0.1,1.3
	s-0.6,0.7-1.1,0.9c-0.4,0.1-0.9,0-1.3-0.2s-0.6-0.7-0.7-1C81.3-69.3,81.3-69.6,81.5-70.1z M77-65.1c0.1-0.4,0.5-0.9,0.9-1.1
	c0.2-0.2,0.9-0.4,1.3-0.2c0.4,0.1,0.9,0.2,1.1,0.6s0.4,0.9,0.4,1.2c-0.1,0.4-0.5,1-0.9,1.3c-0.4,0.2-1.1,0.4-1.5,0.2
	c-0.4-0.1-0.9-0.4-1-0.9C77-64.1,76.8-64.7,77-65.1z M71.8-63.6c0.2-0.2,0.6-0.5,1-0.6c0.4,0,0.9,0.1,1.1,0.2
	c0.2,0.2,0.6,0.6,0.7,1.1s0,0.9-0.2,1.3S73.7-61,73.2-61c-0.5,0.1-0.9-0.1-1.3-0.4c-0.2-0.2-0.5-0.7-0.5-1.2
	C71.3-62.9,71.4-63.3,71.8-63.6z M69.9-44.6c0-0.2,0.1-0.6,0.1-1c0.1-0.4,0.1-0.7,0.2-1.1c0.2-1.5,0.9-3.3,1.5-3.8s1.8-0.6,2.8-0.5
	c1,0.2,1.8,0.6,1.8,1.2c0,0.6-0.5,1.2-1.1,2.1c-0.7,0.7-1.5,1.6-2.4,2.6c-0.4,0.5-0.9,0.9-1.2,1.2c-0.2,0.4-0.6,0.6-0.9,0.9
	c-0.5,0.4-0.9,0.2-0.9-0.2C69.9-43.6,69.9-44,69.9-44.6z M60.1,58.7c-0.2,0.1-0.7,0.2-1.5,0.4c-0.7,0.2-1.6,0.4-2.6,0.6
	c-2,0.2-3.9,0.2-4.5-0.9c-0.6-1.1-1-2.2-0.9-3.1c0.1-0.9,0.6-1.5,2-1.6c0.6-0.1,1.3-0.1,2.1,0c0.4,0,0.7,0.1,1.1,0.2
	c0.4,0.1,0.7,0.2,1.1,0.2c1.5,0.4,2.7,1,3.4,1.7c0.2,0.4,0.6,0.6,0.9,0.9c0.2,0.2,0.2,0.5,0.2,0.6C61.2,58.4,60.9,58.6,60.1,58.7z
	 M58.7,53c-0.2,0-1.7-0.2-3.3-0.9c-1.5-0.5-3.2-1.2-3.4-2c-0.4-0.7-0.2-1.8,0-2.8s0.9-1.7,1.5-1.6s1.2,0.6,1.8,1.3
	c0.2,0.4,0.6,0.9,1,1.3c0.4,0.4,0.7,0.9,1.1,1.5c0.9,1,1.5,1.7,1.7,2.3C59.3,52.6,59.3,53,58.7,53z M53.2,38.7
	c-0.9,0-2.4-1.2-2.8-2.1c-0.2-1,0-2.9,0.5-3.6c0.5-0.6,1.8,0.6,2.4,2.3C53.9,36.9,53.9,38.8,53.2,38.7z M41.9,25.7
	c0-0.2,0-0.4,0-0.7c0.1-0.2,0.1-0.6,0.2-0.9c0.2-0.7,0.6-1.5,0.9-2.1c0.4-0.7,0.9-1.3,1.1-1.8c0.2-0.5,0.6-0.9,0.7-0.9
	c0.4-0.4,0.7-0.2,0.9,0.2c0.1,0.6,0.2,1.5,0.2,2.7c0,0.6,0.1,1.2,0.1,1.8c0.1,0.5,0.1,1.1,0.2,1.5c0.1,0.9,0,1.7-0.2,2.2
	c-0.4,0.5-1.3,0.2-2.2-0.1C43,27.3,42.1,26.5,41.9,25.7z M42,47.3c0,0.5-0.2,0.9-0.6,1.2c-0.2,0.2-0.9,0.4-1.2,0.2
	c-0.5-0.1-0.9-0.2-1.1-0.6c-0.2-0.2-0.4-0.7-0.4-1.1s0.2-0.7,0.5-1s0.7-0.5,1.2-0.5s0.9,0.2,1.2,0.5C41.9,46.4,42,46.9,42,47.3z
	 M39.6,22.5c-1.1,0.7-2,0.7-2.6,0.1c-0.2-0.2-0.6-0.7-0.9-1.2c-0.2-0.5-0.4-1-0.6-1.6c-0.2-1.2,1.1-2.7,2.7-3.7s3.4-1.8,3.8-2
	c1.5-0.7,2-0.4,1.7,1.5c0,0.9-0.5,2.2-1.3,3.6C41.7,20.5,40.7,21.8,39.6,22.5z M41.5-23.9c-0.2,0.2-0.7,0.5-1.2,0.5
	s-0.9-0.2-1.2-0.5s-0.5-0.6-0.5-1s0.1-0.9,0.4-1.1c0.2-0.2,0.7-0.6,1.1-0.6c0.5-0.1,0.9,0.1,1.2,0.2c0.2,0.2,0.6,0.7,0.6,1.2
	C42-24.5,41.9-24.2,41.5-23.9z M43.9-5.4c0.9-0.5,1.8-0.6,2.2-0.1s0.3,1.2,0.2,2.2c0,0.5-0.1,1-0.2,1.5C46.1-1.2,46-0.7,46,0
	c-0.1,1.2-0.2,2.2-0.2,2.7c-0.1,0.6-0.4,0.7-0.9,0.2c-0.1-0.1-0.4-0.4-0.7-0.9c-0.2-0.6-0.7-1.2-1.1-2s-0.6-1.3-0.7-2
	C42-2.2,42-2.6,42-2.9c0-0.2,0-0.5,0-0.7C42.1-4.2,43-5.1,43.9-5.4z M42.4,3c0.9,1.3,1.3,2.6,1.3,3.6c0.2,2-0.2,2.2-1.7,1.5
	c-0.2-0.2-2.1-0.9-3.8-2s-2.9-2.4-2.7-3.7c0.2-0.6,0.2-1.2,0.6-1.6c0.2-0.5,0.5-0.9,0.9-1.2C37.6-1,38.5-1,39.6-0.3
	C40.7,0.6,41.7,1.8,42.4,3z M53.4-23.4c-0.6,0.1-1.2-0.7-1.5-1.6c-0.2-1-0.4-2.1,0-2.8s2.1-1.5,3.4-2c1.5-0.5,2.9-0.9,3.3-0.9
	c0.6,0,0.7,0.2,0.4,0.9c-0.2,0.5-0.9,1.3-1.7,2.3c-0.4,0.5-0.9,1-1.1,1.5c-0.2,0.5-0.6,0.9-1,1.3C54.6-24.2,54-23.6,53.4-23.4z
	 M53.2-13.1c-0.6,1.6-2,2.8-2.4,2.3c-0.5-0.6-0.9-2.6-0.5-3.6c0.4-0.9,2.1-2.1,2.8-2.1C53.9-16.5,53.9-14.7,53.2-13.1z M56.8-32.4
	c-0.4,0.1-0.7,0.2-1.1,0.2c-0.4,0.1-0.7,0.1-1.1,0.2c-0.7,0.1-1.5,0.1-2.1,0c-1.3-0.2-1.8-0.9-2-1.6c-0.1-0.9,0.2-2,0.9-3.1
	s2.7-1.2,4.5-0.9c0.9,0.1,2,0.4,2.7,0.6c0.7,0.2,1.3,0.4,1.5,0.4c0.7,0.2,1.2,0.5,1.2,0.9c0,0.2,0,0.4-0.2,0.6s-0.4,0.5-0.9,0.9
	C59.7-33.5,58.3-32.9,56.8-32.4z M65.5-63.5c0.2-0.2,0.7-0.6,1.2-0.6s0.9,0.2,1.2,0.5c0.2,0.2,0.4,0.7,0.4,1.2s-0.2,0.9-0.5,1.2
	c-0.2,0.2-0.7,0.5-1.1,0.5s-0.9-0.2-1.1-0.4c-0.2-0.2-0.5-0.7-0.6-1.2C65-62.9,65.2-63.2,65.5-63.5z M63.1-49.6
	c1-0.7,2.1-1.3,2.9-1.3c0.9,0,1.5,0.4,2,1.6c0.2,1.2,0.2,2.8,0.1,4.4c-0.1,0.7-0.2,1.5-0.5,2.1c-0.2,0.6-0.5,1.1-0.9,1.6
	c-1.2,1.6-1.7,1.5-2.4,0.1c-0.1-0.2-1-2.1-1.5-3.9c-0.1-0.5-0.2-0.9-0.2-1.5c-0.1-0.4-0.1-0.9-0.1-1.3
	C62.2-48.7,62.5-49.4,63.1-49.6z M59-62c0.2-0.4,0.6-0.7,1-0.9c0.5-0.1,0.9-0.1,1.3,0.1c0.4,0.2,0.6,0.6,0.7,1
	c0.1,0.5,0,0.9-0.2,1.3s-0.5,0.7-0.9,0.9c-0.4,0.1-0.9,0.1-1.2-0.1c-0.4-0.2-0.7-0.5-0.9-1C58.8-61.1,58.8-61.6,59-62z M53-59.1
	c0.1-0.4,0.4-0.9,0.9-1.1c0.4-0.2,0.9-0.2,1.3-0.2c0.4,0.1,0.9,0.4,1,0.9c0.2,0.4,0.2,0.9,0.1,1.3c-0.1,0.4-0.4,0.9-0.9,1
	C55-57,54.5-57,54.2-57c-0.4-0.1-0.9-0.4-1-0.9C52.9-58.1,52.8-58.7,53-59.1z M48.1-56.1c0.4-0.2,0.9-0.5,1.3-0.5
	c0.4,0,0.9,0.2,1.1,0.6c0.2,0.4,0.4,0.9,0.2,1.3c-0.1,0.4-0.2,0.9-0.6,1.1s-0.9,0.4-1.2,0.4s-0.9-0.2-1.2-0.5
	c-0.2-0.2-0.5-0.9-0.4-1.2C47.5-55.3,47.8-55.8,48.1-56.1z M55.7-44.9c2.1-2.2,3.4-1.6,4.4-0.2c0.9,1.3,1.3,3.3,1.3,4.2
	c0,0.2,0,0.4-0.1,0.6c-0.1,0.2-0.2,0.2-0.2,0.5c-0.2,0.2-0.5,0.5-0.9,0.6c-0.9,0.1-2.9-0.1-4.4-0.9c-1.5-0.7-2.1-2.1-0.2-4.4
	l0.1-0.1C55.6-44.7,55.7-44.7,55.7-44.9z M43.4-50.7c0.2-0.4,0.7-0.7,1.2-0.9c0.5-0.1,0.9,0,1.3,0.2c0.4,0.2,0.6,0.7,0.7,1.1
	c0.1,0.4,0,0.9-0.2,1.2s-0.6,0.6-1.1,0.7c-0.4,0.1-0.9,0.1-1.3-0.2c-0.4-0.2-0.7-0.6-0.9-1C43-49.8,43-50.2,43.4-50.7z M40.1-44.4
	c0.2-0.5,0.6-0.9,1-1s0.9-0.2,1.3,0c0.5,0.2,0.7,0.5,0.9,0.9s0.2,0.9,0,1.3c-0.2,0.4-0.5,0.7-0.9,0.9c-0.4,0.1-0.9,0.2-1.3,0.1
	s-0.9-0.4-1-0.9C39.8-43.5,39.8-44,40.1-44.4z M38-37.8c0.1-0.5,0.4-0.9,0.9-1.2c0.4-0.2,0.9-0.4,1.3-0.2c0.5,0.1,0.9,0.4,1.1,0.7
	s0.2,0.9,0.2,1.2c-0.1,0.4-0.2,0.9-0.7,1.1C40.3-36,39.9-36,39.5-36s-0.9-0.2-1.1-0.6C38.1-36.8,38-37.3,38-37.8z M38.2-32.2
	c0.2-0.4,0.7-0.6,1.2-0.6s0.9,0.1,1.2,0.4c0.2,0.2,0.5,0.6,0.6,1c0,0.4-0.1,0.9-0.4,1.2c-0.2,0.4-0.6,0.6-1.1,0.7
	c-0.5,0.1-0.9,0-1.3-0.2c-0.4-0.2-0.6-0.6-0.7-1.1C37.6-31.4,37.9-31.9,38.2-32.2z M37.6-19.5c0.2-0.4,0.6-0.9,0.9-1
	c0.4-0.2,0.9-0.2,1.3-0.1c0.5,0.1,0.9,0.4,1,0.9s0.1,1.1-0.1,1.5c-0.2,0.4-0.6,1-1,1.1s-0.9,0.1-1.3-0.1c-0.4-0.2-0.7-0.6-0.9-0.9
	C37.5-18.5,37.6-19.1,37.6-19.5z M34.6-15c0.2-0.2,0.7-0.4,1.1-0.2c0.4,0,0.9,0.2,1.2,0.5c0.2,0.2,0.5,0.7,0.5,1.2
	c0,0.4-0.2,0.9-0.5,1.2c-0.4,0.2-0.9,0.5-1.2,0.4c-0.4,0-0.9-0.2-1.1-0.6c-0.2-0.4-0.4-0.9-0.4-1.2C34.1-14.4,34.2-14.7,34.6-15z
	 M29.8-11.4c0.4-0.2,0.9-0.4,1.3-0.2c0.4,0.1,0.9,0.2,1,0.7c0.2,0.4,0.2,0.9,0.2,1.3c-0.1,0.5-0.2,0.9-0.6,1.1
	c-0.2,0.2-0.7,0.4-1.1,0.2c-0.4,0-0.9-0.2-1.1-0.6c-0.2-0.4-0.5-0.9-0.4-1.3C29.2-10.6,29.3-11.1,29.8-11.4z M25.1-6
	c0.2-0.4,0.7-0.7,1.1-0.7c0.4-0.1,0.9,0.1,1.2,0.4c0.4,0.2,0.5,0.7,0.6,1.2c0.1,0.4,0,0.9-0.2,1.3c-0.2,0.4-0.6,0.6-1,0.7
	s-0.8,0-1.3-0.2c-0.4-0.2-0.7-0.7-0.7-1.1C24.8-5.2,24.9-5.7,25.1-6z M21.9,0.2c0.2-0.5,0.5-0.9,0.9-1C23.2-1,23.7-1,24.1-0.7
	c0.4,0.2,0.7,0.6,0.9,1c0.1,0.4,0.2,0.9,0,1.4c-0.2,0.4-0.5,0.9-0.9,1s-0.9,0.2-1.3,0.1c-0.4-0.2-0.9-0.5-1-0.9
	C21.8,1.3,21.8,0.7,21.9,0.2z M20.2,7.3c0.1-0.5,0.2-1,0.7-1.2c0.4-0.2,0.9-0.4,1.3-0.2c0.4,0.1,0.7,0.4,1,0.9
	c0.2,0.4,0.4,0.9,0.2,1.3c-0.2,0.4-0.2,0.9-0.6,1.1c-0.2,0.2-0.9,0.4-1.2,0.4c-0.5,0-0.9-0.2-1.1-0.7C20.2,8.4,20.1,7.8,20.2,7.3z
	 M20.8,16.1c-0.4-0.2-0.6-0.7-0.7-1.2s0.1-1,0.2-1.5c0.2-0.4,0.7-0.6,1.1-0.7c0.5,0,0.9,0.1,1.2,0.4c0.2,0.2,0.6,0.7,0.6,1.1
	c0.2,0.5,0,0.8-0.2,1.3c-0.2,0.4-0.6,0.7-1.1,0.9C21.6,16.6,21.2,16.5,20.8,16.1z M24.1,23c-0.4,0.2-0.9,0.2-1.3,0.1
	c-0.4-0.2-0.7-0.5-0.9-1c-0.2-0.5-0.1-1,0-1.5c0.2-0.4,0.5-0.9,1-0.9c0.4-0.2,0.9-0.1,1.3,0.1s0.7,0.5,0.9,1c0.2,0.4,0.1,0.9,0,1.3
	C24.9,22.4,24.5,22.7,24.1,23z M28.1,27.5c-0.1,0.4-0.2,0.9-0.6,1.2c-0.4,0.2-0.9,0.4-1.2,0.4c-0.4-0.1-0.9-0.2-1.1-0.7
	C25,28,25,27.5,25,26.9c0.1-0.5,0.4-0.9,0.7-1.1c0.4-0.2,0.9-0.2,1.3-0.2c0.4,0.1,0.9,0.2,1,0.7C28.1,26.7,28.2,27,28.1,27.5z
	 M32.1,33.1c-0.2,0.4-0.6,0.6-1,0.7c-0.4,0.1-0.9,0-1.3-0.2s-0.6-0.9-0.7-1.2c0-0.5,0.1-0.9,0.4-1.3c0.2-0.5,0.7-0.5,1.1-0.6
	c0.4,0,0.9,0.1,1.1,0.2c0.2,0.2,0.5,0.6,0.6,1.1S32.4,32.8,32.1,33.1z M33.3,11.1c0-0.1,0-0.1,0-0.2c0.1-2.9,1.5-3.4,3.1-3.2
	c1.5,0.5,3.1,1.7,3.7,2.3c0.2,0.2,0.4,0.7,0.2,1c0.1,0.4,0,0.7-0.2,1c-0.6,0.6-2.2,1.8-3.8,2.2C34.8,14.7,33.5,14.2,33.3,11.1
	C33.3,11.2,33.3,11.2,33.3,11.1z M36.9,37.1c-0.2,0.2-0.9,0.5-1.2,0.5s-0.9-0.1-1.1-0.2c-0.2-0.2-0.5-0.7-0.5-1.1
	c0-0.4,0.1-0.9,0.4-1.2c0.2-0.4,0.7-0.6,1.1-0.6c0.4,0,0.9,0.1,1.2,0.4s0.5,0.9,0.5,1.2C37.4,36.4,37.1,36.8,36.9,37.1z M37.6,40.4
	c0.2-0.4,0.4-0.7,0.9-0.9c0.4-0.2,0.9-0.2,1.3-0.1c0.4,0.1,0.9,0.7,1,1.1c0.2,0.4,0.2,1.1,0.1,1.5c-0.2,0.4-0.5,0.7-1,0.9
	C39.5,43,39,43,38.6,42.8c-0.4-0.2-0.7-0.6-0.9-1C37.6,41.3,37.5,40.7,37.6,40.4z M37.7,53.1c0.1-0.5,0.2-0.9,0.7-1.1
	c0.4-0.2,0.9-0.2,1.3-0.2c0.5,0.1,0.9,0.4,1.1,0.7s0.4,0.9,0.4,1.2c-0.1,0.4-0.2,0.9-0.6,1c-0.2,0.2-0.9,0.4-1.2,0.4
	c-0.5,0-0.9-0.2-1.2-0.6C37.9,54.1,37.6,53.7,37.7,53.1z M38.8,61.2c-0.4-0.2-0.7-0.7-0.9-1.2c-0.1-0.5,0.1-1,0.2-1.3
	c0.2-0.2,0.7-0.6,1.1-0.6c0.5,0,0.9,0.1,1.3,0.4c0.4,0.2,0.6,0.6,0.7,1.1c0.1,0.4,0,0.9-0.2,1.2c-0.2,0.2-0.6,0.6-1.1,0.7
	C39.6,61.5,39.2,61.5,38.8,61.2z M42.4,67.7c-0.4,0.2-0.9,0.2-1.3,0c-0.4-0.2-0.9-0.5-1-1c-0.2-0.5-0.2-0.9,0-1.5
	c0.2-0.4,0.5-0.7,1-0.9c0.5-0.1,0.9-0.1,1.3,0.1c0.4,0.2,0.7,0.5,0.9,0.9s0.2,0.9,0,1.3C43,67.2,42.8,67.5,42.4,67.7z M43.4,72.9
	c-0.2-0.4-0.4-0.9-0.2-1.5c0.1-0.4,0.4-0.9,0.9-1c0.4-0.2,0.9-0.2,1.3-0.2c0.4,0.1,0.9,0.2,1.1,0.7c0.2,0.4,0.2,0.9,0.2,1.2
	c-0.1,0.4-0.2,0.9-0.7,1.1c-0.5,0.4-0.9,0.5-1.5,0.4C44.1,73.5,43.6,73.4,43.4,72.9z M50.6,78.2c-0.2,0.4-0.7,0.6-1.1,0.6
	s-0.9-0.1-1.3-0.5c-0.4-0.2-0.6-0.9-0.7-1.3c0-0.5,0.1-0.9,0.4-1.2c0.2-0.2,0.9-0.5,1.2-0.5c0.4,0,0.9,0.1,1.2,0.4
	c0.2,0.2,0.5,0.7,0.6,1.1C51,77.3,50.8,77.7,50.6,78.2z M56.2,81.8c-0.2,0.4-0.5,0.7-1,0.9c-0.4,0.1-0.9,0.1-1.3-0.2
	c-0.4-0.2-0.7-0.6-0.9-1.1c-0.1-0.4-0.1-0.9,0.2-1.3c0.2-0.4,0.6-0.7,1-0.9c0.4-0.1,0.9-0.1,1.2,0.2c0.4,0.2,0.7,0.6,0.9,1
	C56.4,80.8,56.4,81.3,56.2,81.8z M55.7,66.9C55.7,66.9,55.6,66.9,55.7,66.9l-0.2-0.2c-2-2.3-1.2-3.7,0.2-4.4
	c1.5-0.7,3.4-0.9,4.4-0.9c0.4,0,0.7,0.2,0.9,0.6c0.1,0.1,0.2,0.2,0.2,0.5c0.1,0.2,0.1,0.4,0.1,0.6c0,0.9-0.5,2.9-1.3,4.2
	C59.2,68.8,57.8,69.3,55.7,66.9z M62.2,84c-0.1,0.5-0.4,0.9-0.7,1c-0.4,0.2-0.9,0.2-1.3,0.1c-0.5-0.2-0.9-0.5-1-0.9
	s-0.2-0.9-0.1-1.3c0.1-0.5,0.5-0.9,0.9-1c0.4-0.2,0.9-0.2,1.2-0.1c0.4,0.1,0.7,0.4,0.9,0.9C62.2,83.1,62.2,83.6,62.2,84z M63.1,72
	c-0.5-0.4-0.7-1-0.9-1.8c0-0.4,0-0.9,0.1-1.3c0.1-0.4,0.2-0.9,0.2-1.5c0.5-1.8,1.5-3.6,1.5-3.9c0.6-1.5,1.2-1.5,2.4,0.1
	c0.2,0.4,0.6,0.9,0.9,1.6c0.2,0.6,0.4,1.3,0.5,2.1c0.2,1.5,0.2,3.2-0.1,4.4c-0.4,1.2-1,1.7-2,1.6C65.2,73.3,64.1,72.7,63.1,72z
	 M68,85.9c-0.2,0.2-0.7,0.5-1.2,0.5s-0.9-0.2-1.2-0.6c-0.2-0.2-0.5-0.9-0.4-1.2c0-0.5,0.2-0.9,0.6-1.2c0.2-0.2,0.7-0.4,1.1-0.4
	s0.9,0.2,1.1,0.5c0.2,0.2,0.5,0.7,0.5,1.2C68.5,85.1,68.2,85.5,68,85.9z M74.6,84.9c-0.1,0.5-0.4,0.9-0.7,1.1
	c-0.2,0.2-0.7,0.4-1.1,0.2c-0.4,0-0.9-0.2-1-0.6c-0.2-0.2-0.4-0.7-0.4-1.2s0.2-0.9,0.5-1.2c0.2-0.4,0.9-0.5,1.3-0.4
	c0.5,0,0.9,0.2,1.2,0.6C74.6,84.1,74.7,84.6,74.6,84.9z M74.6,73.2c-1,0.2-2.2,0.1-2.8-0.5c-0.6-0.5-1.1-2.1-1.5-3.8
	c-0.1-0.4-0.2-0.9-0.2-1.1c0-0.4-0.1-0.7-0.1-1c-0.1-0.6-0.1-1-0.1-1.2c0-0.6,0.2-0.6,0.9-0.2c0.2,0.2,0.5,0.5,0.9,0.9
	c0.2,0.2,0.9,0.7,1.2,1.2c0.9,0.9,1.7,1.8,2.4,2.6c0.7,0.7,1.1,1.5,1.1,2.1C76.6,72.6,75.6,73.1,74.6,73.2z M80.2,88
	c-0.2,0.4-0.7,0.6-1.1,0.6c-0.4,0.1-0.9-0.1-1.3-0.2c-0.2-0.2-0.7-0.7-0.9-1.1c-0.1-0.4,0-0.9,0.2-1.3s0.6-0.7,1-0.9
	c0.4-0.1,1.1,0.1,1.5,0.2c0.4,0.2,0.9,0.9,0.9,1.3C80.7,87.3,80.6,87.6,80.2,88z M82.6,93c-0.4-0.1-0.7-0.4-0.9-0.7
	c-0.2-0.4-0.2-0.7-0.1-1.1s0.4-0.9,0.7-1c0.4-0.2,0.9-0.4,1.3-0.2c0.4,0.1,0.9,0.4,1.1,0.9c0.2,0.4,0.2,0.9,0.1,1.3
	s-0.4,0.9-0.9,0.9C83.3,93.1,82.9,93.1,82.6,93z M83.7,73.5c0-0.4,0.5-0.5,1.2-0.4c0.6,0.1,1.5,0.4,2.3,1c1.5,1,2.7,2.7,2,3.1
	s-2.7,0.2-3.7-0.2c-0.4-0.2-0.9-0.9-1.2-1.5C83.8,74.8,83.7,74,83.7,73.5z M86.2,98.5c-0.4,0.2-0.9,0.2-1.3,0.1s-0.9-0.4-1-0.9
	c-0.2-0.5-0.2-0.9,0-1.3s0.5-0.7,1-0.9c0.4-0.2,0.9-0.2,1.3,0s0.7,0.4,0.9,0.9c0.2,0.4,0.2,0.9,0,1.2C87,98,86.7,98.3,86.2,98.5z
	 M90,103.5c-0.4,0.2-0.9,0.5-1.2,0.4c-0.4,0-0.9-0.2-1.2-0.6s-0.4-0.9-0.4-1.3c0.1-0.4,0.2-0.9,0.7-1.1s0.9-0.2,1.3-0.2
	s0.9,0.2,1.1,0.5c0.2,0.2,0.4,0.7,0.4,1.2C90.5,102.9,90.4,103.3,90,103.5z M94.8,107.8c-0.2,0.4-0.7,0.6-1.1,0.6s-0.9-0.1-1.3-0.4
	c-0.5-0.2-0.6-0.7-0.6-1.2c0-0.4,0.1-0.9,0.4-1.2c0.2-0.2,0.7-0.5,1.2-0.5c0.4,0,0.9,0.1,1.2,0.2c0.4,0.2,0.5,0.7,0.6,1.1
	C95,107.1,95,107.5,94.8,107.8z M94.6,87.9c-1.5-0.9-2.2-4.2-1.1-4.7c0.6-0.2,1.3,0,2.3,0.2c0.5,0.2,1,0.4,1.5,0.6
	c0.6,0.2,1.2,0.4,1.8,0.7c1.2,0.5,2.2,0.9,2.7,1.2c0.5,0.2,0.6,0.6,0.1,0.9c-0.2,0.1-1.7,0.5-3.3,0.9C97,88,95,88.2,94.6,87.9z
	 M100.4,111.1c-0.2,0.4-0.5,0.7-1,0.9c-0.4,0.1-0.9,0.1-1.5-0.1c-0.4-0.2-0.7-0.6-0.9-1.1c-0.1-0.4-0.1-0.9,0.2-1.3s0.6-0.6,1-0.9
	c0.4-0.1,0.9-0.1,1.2,0.1c0.4,0.2,0.7,0.5,0.9,0.9C100.6,110.2,100.6,110.7,100.4,111.1z M98.7,95.7c-0.5-0.2-1-0.7-1.5-1.1
	s-0.7-0.9-0.9-1.1c-0.4-0.9-0.2-1.6,0.9-2.4c1-0.9,2.6-1.5,4-1.7c1.5-0.2,3.1-0.4,3.9-0.1c2,0.6,2.1,1.1,0.9,2.2
	c-0.2,0.2-1.5,1.6-3.2,2.8C101.5,95.5,99.7,96.3,98.7,95.7z M106.6,113.1c-0.1,0.5-0.2,0.9-0.7,1.1c-0.4,0.2-0.9,0.2-1.3,0.2
	c-0.5-0.1-0.9-0.4-1.1-0.9c-0.2-0.4-0.2-0.9-0.2-1.3c0.1-0.4,0.4-0.9,0.9-1c0.4-0.2,0.9-0.2,1.2-0.2c0.4,0.1,0.9,0.4,1,0.7
	C106.6,112.1,106.7,112.6,106.6,113.1z M106.2,100.9c-0.1,0-0.1,0-0.2-0.1c-0.1,0-0.1,0-0.2-0.1c-2.7-1.1-2.7-2.7-2-3.9
	c0.9-1.3,2.7-2.4,3.4-2.8c0.4-0.2,0.9-0.1,1.1,0.1c0.4,0.1,0.7,0.2,0.9,0.7c0.2,0.4,0.4,1.1,0.6,2s0.2,1.7,0.1,2.4
	C110,100.7,109,101.8,106.2,100.9z M112.4,114.8c-0.2,0.2-0.9,0.5-1.2,0.5c-0.5,0-0.9-0.2-1.2-0.6c-0.2-0.2-0.5-0.9-0.4-1.3
	c0-0.5,0.2-0.9,0.6-1.1c0.2-0.2,0.7-0.4,1.2-0.4c0.4,0,0.9,0.2,1.1,0.5c0.2,0.2,0.5,0.7,0.5,1.2C113,114.2,112.8,114.6,112.4,114.8z
	 M112.6,98c-0.4-2-0.4-3.9-0.4-4.2c-0.1-1.5,0.4-2,2.2-1c0.9,0.4,2.1,1.5,2.9,2.7c0.9,1.2,1.6,2.7,1.8,3.9c0.4,2.7-1.7,2.7-4.3,2.4
	C113.7,101.7,113,99.9,112.6,98z M119,114.4c-0.2,0.4-0.6,0.6-1.1,0.7s-0.9-0.1-1.3-0.4c-0.5-0.2-0.6-0.7-0.6-1.2s0.1-0.9,0.2-1.2
	c0.2-0.2,0.6-0.6,1-0.6c0.4-0.1,0.9,0.1,1.2,0.2c0.2,0.2,0.6,0.6,0.7,1.1C119.4,113.7,119.3,114.1,119,114.4z M125.3,112.5
	c-0.1,0.4-0.4,0.7-0.9,0.9c-0.5,0.2-0.9,0.2-1.3,0c-0.5-0.2-0.7-0.5-0.9-1c-0.2-0.4-0.1-0.9,0-1.3c0.2-0.4,0.4-0.7,0.9-0.9
	c0.4-0.2,0.9-0.1,1.2,0c0.4,0.1,0.7,0.4,1,0.9C125.4,111.5,125.4,112,125.3,112.5z M123.2,98.9c-0.9-0.2-2-1.5-2.9-2.7
	c-1-1.3-1.8-2.7-2-2.8c-0.5-1.1,1-0.6,3.6,0.4c0.6,0.2,1.2,0.5,1.8,0.7c0.6,0.2,1.1,0.4,1.6,0.6c0.9,0.4,1.6,0.9,2,1.3
	C127.9,97.4,124.8,99.3,123.2,98.9z M130.6,110.2c-0.2,0.4-0.5,0.6-0.9,0.9c-0.4,0.1-0.9,0.1-1.2-0.1c-0.4-0.2-0.7-0.5-0.9-0.9
	c-0.2-0.4-0.2-0.9,0-1.3s0.5-0.7,1-0.9c0.5-0.2,0.9-0.1,1.3,0.1c0.4,0.2,0.6,0.6,0.7,1.1C131,109.4,130.9,109.9,130.6,110.2z
	 M137.3,109.4c-0.1,0.4-0.4,0.9-0.7,1c-0.4,0.1-0.9,0.2-1.3,0.2s-0.9-0.2-1.2-0.6c-0.2-0.2-0.4-0.7-0.2-1.2c0-0.5,0.2-0.9,0.6-1.2
	c0.2-0.2,1.1-0.4,1.5-0.2c0.5,0.1,1.1,0.4,1.3,0.9C137.4,108.4,137.4,108.8,137.3,109.4z M137.5,97.2c-1.1-0.2-2.7-1.5-2.9-2.3
	c-0.1-0.4,0.2-0.7,0.9-0.9c0.7-0.2,1.6-0.2,2.7,0c2,0.2,3.6,1.5,3.1,2.1C140.6,96.7,138.8,97.4,137.5,97.2z M142.3,112.5
	c-0.2,0.2-0.7,0.5-1.1,0.6c-0.4,0-0.9,0-1.1-0.2c-0.2-0.2-0.5-0.6-0.5-1s0-0.9,0.2-1.2s0.6-0.7,1-0.7c0.4-0.1,0.9,0,1.3,0.2
	c0.4,0.2,0.6,0.7,0.6,1.2C142.9,111.8,142.6,112.2,142.3,112.5z M146.8,116.8c-0.2,0.4-0.7,0.6-1.2,0.6c-0.4,0-0.9-0.1-1.3-0.5
	c-0.4-0.4-0.5-0.9-0.5-1.2s0.2-0.9,0.6-1.1c0.2-0.2,0.9-0.5,1.2-0.5c0.4,0,0.9,0.1,1.1,0.4c0.2,0.2,0.4,0.7,0.5,1.1
	C147.1,116,147.1,116.4,146.8,116.8z M152,120.1c-0.2,0.4-0.6,0.7-1,0.9c-0.4,0.1-0.9,0.1-1.3-0.1c-0.4-0.2-0.7-0.6-0.9-1
	c-0.1-0.4,0-0.9,0.2-1.3s0.6-0.6,1-0.9c0.4-0.1,0.9-0.1,1.2,0.1c0.4,0.2,0.6,0.5,0.9,0.9C152.5,119.2,152.2,119.6,152,120.1z
	 M150.5,103.8c-1.6-0.2-3.8-3.1-2.8-3.9c0.9-0.9,3.3-0.6,6-0.6c2.7-0.1,4.3,0,3.4,0.9c-0.2,0.2-1.5,1.1-2.8,2.1
	C152.7,103.1,151.2,103.9,150.5,103.8z M158.1,122.2c-0.1,0.4-0.4,0.9-0.9,1c-0.4,0.2-0.9,0.2-1.3,0.1c-0.5-0.1-0.9-0.5-1-0.9
	c-0.2-0.4-0.2-0.9,0-1.3s0.5-0.9,0.9-1c0.4-0.2,0.9-0.2,1.2-0.1c0.4,0.1,0.7,0.4,0.9,0.9C158.1,121.3,158.1,121.8,158.1,122.2z
	 M159.1,108.8c-0.6,0.5-1.2,0.9-2,0.7c-2.6-0.5-4.5-1.5-3.2-3.8c0.6-1.1,1.8-2.2,3.2-3.2c0.6-0.4,1.3-0.9,2-1
	c0.6-0.2,1.2-0.5,1.7-0.5c2.1-0.2,2.4,0.2,1.7,1.7c-0.2,0.2-0.9,2.1-2,3.8C160.2,107.5,159.7,108.3,159.1,108.8z M163.9,124.4
	c-0.4,0.2-0.9,0.4-1.3,0.4c-0.5-0.1-0.9-0.2-1.2-0.7c-0.4-0.5-0.4-0.9-0.2-1.3c0.1-0.5,0.2-0.9,0.7-1.1c0.2-0.2,0.9-0.4,1.2-0.2
	c0.4,0.1,0.9,0.2,1.1,0.6c0.2,0.2,0.4,0.9,0.4,1.2C164.5,123.8,164.2,124.1,163.9,124.4z M165.9,111.6c-0.1,0-0.1,0-0.2,0
	c-2.9-0.1-3.6-1.5-3.2-3.1c0.2-1.5,1.6-3.3,2.2-3.9c0.2-0.2,0.7-0.4,1.1-0.2c0.4-0.1,0.9,0,1.1,0.2c0.7,0.6,2,2.3,2.2,3.9
	C169.4,110,168.9,111.5,165.9,111.6L165.9,111.6z M170.5,124.1c-0.2,0.4-0.7,0.6-1.2,0.7s-1-0.1-1.3-0.4c-0.2-0.2-0.6-0.7-0.6-1.1
	c0-0.5,0.1-0.9,0.4-1.2c0.2-0.2,0.6-0.5,1.1-0.6c0.4-0.1,0.9,0.1,1.2,0.2c0.2,0.2,0.6,0.6,0.7,1.1
	C171,123.3,170.8,123.9,170.5,124.1z M177,122.5c-0.2,0.4-0.5,0.7-1,0.9c-0.5,0.1-0.9,0.1-1.3-0.1c-0.4-0.2-0.7-0.6-0.9-1
	c-0.1-0.5-0.1-0.9,0.1-1.3c0.2-0.4,0.5-0.7,0.9-0.9c0.4-0.1,0.9-0.1,1.2,0.1c0.4,0.2,0.7,0.5,0.9,1C177.1,121.7,177.1,122,177,122.5
	z M174.6,109.4c-0.6,0.1-1.3-0.2-2-0.7s-1.2-1.3-1.7-2.1c-1-1.6-1.7-3.4-2-3.8c-0.7-1.5-0.4-2,1.7-1.7c0.5,0,1.1,0.2,1.7,0.5
	c0.6,0.2,1.3,0.6,2,1c1.3,0.9,2.6,2,3.2,3.2C179.2,108.1,177.1,108.9,174.6,109.4z M183,119.7c-0.1,0.4-0.4,0.9-0.9,1
	s-0.9,0.2-1.3,0.1c-0.4-0.1-0.9-0.4-1-0.9c-0.2-0.4-0.2-0.9-0.1-1.3c0.1-0.4,0.4-0.7,0.9-0.9c0.4-0.2,0.9-0.2,1.2-0.1
	c0.4,0.1,0.9,0.4,1,0.9C182.8,119,183.1,119.3,183,119.7z M181.4,103.8c-0.9,0.1-2.3-0.6-3.8-1.5s-2.7-1.8-2.8-2.1
	c-0.9-0.9,0.7-0.9,3.4-0.9s5.1-0.2,6,0.6C185.2,100.7,183.1,103.5,181.4,103.8z M187.5,117c-0.4,0.4-0.9,0.5-1.3,0.5
	c-0.4,0-0.9-0.2-1.2-0.6c-0.2-0.4-0.4-0.9-0.4-1.2s0.2-0.9,0.5-1.1c0.2-0.2,0.7-0.4,1.1-0.4c0.4,0,0.9,0.1,1.2,0.5
	c0.2,0.2,0.5,0.7,0.6,1.1C188.1,116.2,187.9,116.7,187.5,117z M192.4,111.9c0,0.4-0.2,0.7-0.5,1c-0.2,0.2-0.7,0.2-1.1,0.2
	c-0.4-0.1-0.9-0.2-1.1-0.6c-0.2-0.2-0.5-0.9-0.4-1.2c0-0.4,0.2-0.9,0.6-1.2c0.4-0.2,0.9-0.4,1.3-0.2c0.4,0.1,0.9,0.2,1,0.7
	C192.3,110.9,192.4,111.4,192.4,111.9z M190.7,96.1c-0.5-0.6,1.1-1.6,3.1-2.1c0.9-0.2,2-0.1,2.7,0s1.1,0.4,0.9,0.9
	c-0.2,0.9-2,2.1-2.9,2.3C193.2,97.4,191.3,96.7,190.7,96.1z M197.8,110c-0.2,0.2-0.9,0.6-1.2,0.6c-0.4,0.1-1,0-1.3-0.2
	c-0.4-0.2-0.6-0.6-0.7-1c-0.1-0.5-0.1-0.9,0.1-1.3c0.2-0.4,0.9-0.7,1.3-0.9c0.5-0.1,1.2,0,1.5,0.2c0.2,0.2,0.5,0.7,0.6,1.2
	C198.3,109.2,198.1,109.7,197.8,110z M204,109.9c-0.2,0.4-0.5,0.7-0.9,0.9c-0.4,0.1-0.9,0.2-1.2,0.1c-0.4-0.1-0.7-0.4-0.9-0.9
	c-0.2-0.4-0.2-0.9-0.2-1.3c0.1-0.5,0.2-0.9,0.7-1.1c0.4-0.2,0.9-0.2,1.3-0.1c0.5,0.2,0.9,0.5,1,0.9
	C204.3,109.1,204.3,109.4,204,109.9z M209.7,112.5c-0.2,0.4-0.5,0.9-0.9,1c-0.4,0.2-0.9,0.2-1.3,0c-0.5-0.2-0.9-0.5-0.9-0.9
	c-0.1-0.4-0.1-0.9,0.1-1.3c0.2-0.4,0.6-0.7,1-0.9c0.4-0.1,0.9-0.2,1.2,0c0.4,0.2,0.6,0.5,0.9,0.9C209.9,111.5,210,111.9,209.7,112.5
	z M208.7,98.9c-1.6,0.4-4.5-1.5-3.9-2.7c0.2-0.5,1-0.9,2-1.3c0.5-0.2,1-0.4,1.6-0.6s1.2-0.4,1.8-0.7c2.4-1,3.9-1.5,3.6-0.4
	c-0.1,0.2-0.9,1.5-2,2.8C210.6,97.4,209.4,98.7,208.7,98.9z M215.9,113.6c0,0.5-0.2,0.9-0.6,1.2c-0.4,0.2-0.9,0.4-1.3,0.4
	c-0.5-0.1-0.9-0.2-1.1-0.7c-0.2-0.5-0.2-0.9-0.2-1.3c0.1-0.5,0.4-0.9,0.7-1.1c0.2-0.2,0.7-0.4,1.2-0.2c0.4,0,0.9,0.2,1,0.6
	C215.8,112.6,215.9,113.1,215.9,113.6z M217,102c-2.6,0.2-4.7,0.2-4.3-2.4c0.2-1.3,0.9-2.7,1.8-3.9c0.9-1.2,2-2.3,2.9-2.7
	c1.8-0.9,2.3-0.5,2.2,1c0,0.4-0.1,2.2-0.4,4.2C218.8,99.9,218.1,101.7,217,102z M221.9,114.8c-0.2,0.2-0.7,0.6-1.2,0.6
	s-0.9-0.2-1.2-0.5c-0.2-0.2-0.5-0.7-0.5-1.2s0.2-0.9,0.5-1.2c0.2-0.2,0.7-0.5,1.1-0.5c0.4,0,0.9,0.1,1.2,0.4
	c0.2,0.2,0.5,0.7,0.6,1.1C222.4,114,222.1,114.4,221.9,114.8z M228.5,113.6c-0.2,0.4-0.6,0.7-1.1,0.9c-0.5,0.1-1,0-1.3-0.2
	c-0.4-0.2-0.6-0.6-0.7-1.1c-0.1-0.5,0-0.9,0.2-1.3s0.6-0.6,1-0.7s0.9,0,1.2,0.2c0.4,0.2,0.7,0.6,0.9,1
	C228.8,112.7,228.6,113.1,228.5,113.6z M225.7,100.9c-2.7,1.1-3.9-0.1-4-1.6c-0.1-0.9,0-1.6,0.1-2.4c0.2-0.9,0.4-1.5,0.6-2
	s0.5-0.6,0.9-0.7c0.2-0.2,0.7-0.2,1.1-0.1c0.9,0.2,2.7,1.5,3.4,2.8C228.6,98.2,228.6,99.6,225.7,100.9
	C225.8,100.7,225.8,100.7,225.7,100.9C225.8,100.7,225.7,100.7,225.7,100.9z M234.8,110.8c-0.1,0.4-0.4,0.9-0.9,1.1
	c-0.4,0.2-0.9,0.2-1.5,0.1c-0.4-0.1-0.9-0.4-1-0.9c-0.2-0.4-0.2-0.9-0.1-1.3c0.1-0.4,0.4-0.7,0.9-0.9c0.4-0.2,0.9-0.2,1.2-0.1
	c0.4,0.1,0.9,0.4,1,0.9C234.8,109.9,234.9,110.4,234.8,110.8z M235.6,93.4c-0.2,0.4-0.5,0.9-0.9,1.1c-0.4,0.4-0.9,0.7-1.5,1.1
	c-1.1,0.7-2.8-0.2-4.4-1.5c-1.5-1.1-2.8-2.6-3.2-2.8c-1.1-1.1-1-1.7,0.9-2.2c1-0.2,2.4-0.2,3.9,0.1c1.5,0.2,3.1,0.9,4,1.7
	C235.7,91.9,236,92.7,235.6,93.4z M233.3,87.9c-1.6-0.2-3.1-0.7-3.3-0.9c-0.5-0.2-0.5-0.5,0.1-0.9c0.5-0.2,1.5-0.7,2.7-1.2
	c0.6-0.2,1.2-0.5,1.8-0.7s1.1-0.5,1.5-0.6c0.9-0.2,1.7-0.5,2.3-0.2c1.1,0.4,0.2,3.9-1.1,4.7C236.6,88.2,234.9,88,233.3,87.9z
	 M239.4,108.1c-0.4,0.2-0.9,0.4-1.3,0.4c-0.5-0.1-0.9-0.2-1.1-0.6s-0.4-0.9-0.2-1.2c0-0.4,0.2-0.9,0.6-1.1c0.4-0.2,0.9-0.4,1.2-0.2
	c0.4,0,0.9,0.2,1.2,0.5c0.4,0.2,0.5,0.9,0.4,1.2C240.1,107.3,239.9,107.7,239.4,108.1z M244.2,103.4c-0.2,0.4-0.9,0.6-1.2,0.6
	c-0.4,0-0.9-0.1-1.2-0.4c-0.4-0.2-0.5-0.7-0.6-1.1c0-0.4,0.1-0.9,0.4-1.2c0.2-0.2,0.7-0.5,1.1-0.5c0.4,0,0.9,0.1,1.3,0.2
	c0.4,0.2,0.6,0.7,0.7,1.1C244.7,102.6,244.7,103.1,244.2,103.4z M244.7,74.2c0.9-0.5,1.6-0.9,2.3-1c0.6-0.1,1.1,0,1.2,0.4
	c0,0.4-0.2,1.1-0.5,1.7c-0.2,0.6-0.9,1.2-1.2,1.5c-0.9,0.6-2.9,0.7-3.7,0.2C242.2,76.9,243.2,75.4,244.7,74.2z M248,97.7
	c-0.2,0.5-0.6,0.9-1,0.9c-0.4,0.1-0.9,0.1-1.3-0.1c-0.4-0.2-0.7-0.6-0.9-1c-0.1-0.4-0.1-0.9,0-1.2c0.2-0.4,0.5-0.6,0.9-0.9
	c0.4-0.2,0.9-0.2,1.3,0c0.4,0.2,0.9,0.5,1,0.9C248.2,96.8,248.2,97.3,248,97.7z M250.3,92.3c-0.2,0.2-0.5,0.6-0.9,0.7
	s-0.9,0.1-1.3-0.1c-0.4-0.2-0.7-0.5-0.9-0.9c-0.1-0.4-0.1-0.9,0.1-1.3c0.2-0.4,0.6-0.7,1.1-0.9c0.4-0.1,0.9,0,1.3,0.2
	c0.4,0.2,0.6,0.7,0.7,1C250.6,91.5,250.6,91.9,250.3,92.3z M254.8,87.3c-0.1,0.4-0.5,0.9-0.9,1.1c-0.2,0.2-0.9,0.4-1.3,0.2
	c-0.4-0.1-0.9-0.2-1.1-0.6c-0.2-0.4-0.4-0.9-0.4-1.2c0.1-0.4,0.5-1,0.9-1.3c0.4-0.2,1.1-0.4,1.5-0.2c0.4,0.1,0.9,0.4,1,0.9
	C254.8,86.4,254.8,86.8,254.8,87.3z M260.1,85.9c-0.2,0.2-0.6,0.5-1,0.6c-0.4,0-0.9-0.1-1.1-0.2c-0.2-0.2-0.6-0.6-0.7-1.1
	s0-0.9,0.2-1.3s0.7-0.6,1.2-0.6c0.5-0.1,0.9,0.1,1.3,0.4c0.2,0.2,0.5,0.7,0.5,1.2C260.6,85.1,260.5,85.5,260.1,85.9z M261.8,66.9
	c0,0.2-0.1,0.6-0.1,1c-0.1,0.4-0.1,0.7-0.2,1.1c-0.2,1.5-0.9,3.3-1.5,3.8s-1.8,0.6-2.8,0.5c-1-0.2-1.8-0.6-1.8-1.2s0.5-1.2,1.1-2.1
	c0.7-0.7,1.5-1.6,2.4-2.6c0.4-0.5,0.9-0.9,1.2-1.2c0.2-0.4,0.6-0.6,0.9-0.9c0.5-0.4,0.9-0.2,0.9,0.2
	C261.9,65.8,261.8,66.3,261.8,66.9z M266.3,85.8c-0.2,0.2-0.7,0.6-1.2,0.6s-0.9-0.2-1.2-0.5c-0.2-0.2-0.4-0.7-0.4-1.2
	s0.2-0.9,0.5-1.2c0.2-0.2,0.7-0.5,1.1-0.5s0.9,0.2,1.1,0.4c0.2,0.2,0.5,0.7,0.6,1.2C266.8,84.9,266.7,85.5,266.3,85.8z M268.7,72
	c-1,0.7-2.1,1.3-2.9,1.3c-0.9,0-1.5-0.4-2-1.6c-0.2-1.2-0.2-2.8-0.1-4.4c0.1-0.7,0.2-1.5,0.5-2.1c0.2-0.6,0.5-1.1,0.9-1.6
	c1.2-1.6,1.7-1.5,2.4-0.1c0.1,0.2,1,2.1,1.5,3.9c0.1,0.5,0.2,0.9,0.2,1.5c0.1,0.4,0.1,0.9,0.1,1.3C269.5,71,269.4,71.6,268.7,72z
	 M272.8,84.3c-0.2,0.4-0.6,0.7-1,0.9c-0.5,0.1-0.9,0.1-1.3-0.1s-0.6-0.6-0.7-1c-0.1-0.5,0-0.9,0.2-1.3s0.5-0.7,0.9-0.9
	c0.4-0.1,0.9-0.1,1.2,0.1c0.4,0.2,0.7,0.5,0.9,1C273,83.3,273,83.8,272.8,84.3z M278.8,81.4c-0.1,0.4-0.4,0.9-0.9,1.1
	c-0.4,0.2-0.9,0.2-1.3,0.2c-0.4-0.1-0.9-0.4-1-0.9c-0.2-0.4-0.2-0.9-0.1-1.3s0.4-0.9,0.9-1c0.4-0.2,0.9-0.2,1.2-0.2
	c0.4,0.1,0.9,0.4,1,0.9C278.8,80.4,279.1,80.8,278.8,81.4z M283.7,78.3c-0.4,0.2-0.9,0.5-1.3,0.5c-0.5,0-0.9-0.2-1.1-0.6
	s-0.4-0.9-0.2-1.3c0.1-0.4,0.2-0.9,0.6-1.1s0.9-0.4,1.2-0.4s0.9,0.2,1.2,0.5c0.2,0.2,0.5,0.9,0.4,1.2
	C284.2,77.6,284.1,78.1,283.7,78.3z M276,66.9c-2.1,2.2-3.4,1.6-4.4,0.2c-1-1.3-1.3-3.3-1.3-4.2c0-0.2,0-0.4,0.1-0.6
	s0.2-0.2,0.2-0.5c0.2-0.2,0.5-0.5,0.9-0.6c0.9-0.1,2.9,0.1,4.4,0.9c1.5,0.7,2.1,2.1,0.2,4.4l-0.1,0.2C276.1,66.9,276,66.9,276,66.9z
	 M288.5,72.9c-0.2,0.4-0.7,0.7-1.2,0.9c-0.5,0.1-0.9,0-1.3-0.2s-0.6-0.7-0.7-1.1s0-0.9,0.2-1.2c0.2-0.4,0.6-0.6,1.1-0.7
	c0.4-0.1,0.9-0.1,1.3,0.2c0.4,0.2,0.7,0.6,0.9,1C288.9,72,288.9,72.4,288.5,72.9z M291.9,66.7c-0.2,0.5-0.6,0.9-1,1
	c-0.4,0.2-0.9,0.2-1.3,0c-0.5-0.2-0.7-0.5-0.9-0.9c-0.2-0.4-0.2-0.9,0-1.3c0.2-0.4,0.5-0.7,0.9-0.9c0.4-0.2,0.9-0.2,1.3-0.1
	c0.5,0.1,0.9,0.4,1,0.9C292.1,65.7,292.1,66.2,291.9,66.7z M293.9,60c-0.1,0.5-0.4,0.9-0.9,1.2c-0.4,0.2-0.9,0.4-1.3,0.2
	c-0.5-0.1-0.9-0.4-1.1-0.7c-0.2-0.4-0.2-0.9-0.2-1.2c0.1-0.4,0.2-0.9,0.7-1.1c0.5-0.2,0.9-0.4,1.3-0.4s0.9,0.2,1.1,0.6
	C293.8,59.1,293.9,59.5,293.9,60z M293.7,54.4c-0.2,0.4-0.7,0.6-1.2,0.6s-0.9-0.1-1.2-0.4c-0.2-0.2-0.5-0.6-0.6-1
	c0-0.4,0.1-0.9,0.4-1.2s0.6-0.6,1.1-0.7c0.5-0.1,0.9,0,1.3,0.2s0.6,0.6,0.7,1.1C294.1,53.7,293.9,54.1,293.7,54.4z M294.1,41.8
	c-0.2,0.4-0.6,0.9-0.9,1c-0.4,0.2-0.9,0.2-1.3,0.1c-0.5-0.1-0.9-0.4-1-0.9c-0.2-0.4-0.1-1.1,0.1-1.5s0.6-1,1-1.1s0.9-0.1,1.3,0.1
	c0.4,0.2,0.7,0.6,0.9,0.9C294.3,40.7,294.3,41.3,294.1,41.8z M297.3,37.2c-0.2,0.2-0.7,0.4-1.1,0.2c-0.4,0-0.9-0.2-1.2-0.5
	c-0.2-0.2-0.5-0.7-0.5-1.2c0-0.4,0.2-0.9,0.5-1.2c0.4-0.2,0.9-0.5,1.2-0.4c0.4,0,0.9,0.2,1.1,0.6c0.2,0.4,0.4,0.9,0.4,1.2
	C297.7,36.6,297.7,37.1,297.3,37.2z M295.5,14.4c-1.5-0.4-3.2-1.6-3.8-2.2c-0.2-0.2-0.4-0.7-0.2-1c-0.1-0.4,0-0.7,0.2-1
	c0.6-0.6,2.2-1.8,3.8-2.2c1.6-0.4,2.9,0.1,3.1,3.2c0,0.1,0,0.1,0,0.2c0,0.1,0,0.1,0,0.2C298.4,14.3,297,14.9,295.5,14.4z
	 M302.1,33.5c-0.4,0.2-0.9,0.4-1.3,0.2c-0.4-0.1-0.9-0.2-1-0.7c-0.2-0.4-0.2-0.9-0.2-1.3c0.1-0.5,0.2-0.9,0.6-1.1
	c0.2-0.2,0.7-0.4,1.1-0.2c0.4,0,0.9,0.2,1.1,0.6s0.5,0.9,0.4,1.3C302.7,32.8,302.6,33.3,302.1,33.5z M306.9,28.4
	c-0.2,0.4-0.7,0.7-1.1,0.7c-0.4,0.1-0.9-0.1-1.2-0.4c-0.4-0.2-0.5-0.7-0.6-1.2c-0.1-0.4,0-0.9,0.2-1.3s0.6-0.6,1-0.7s0.9,0,1.3,0.2
	s0.7,0.7,0.7,1.1C307.1,27.4,307,27.9,306.9,28.4z M309.9,22c-0.2,0.5-0.5,0.9-0.9,1c-0.4,0.2-0.9,0.2-1.3-0.1
	c-0.4-0.2-0.7-0.6-0.9-1c-0.2-0.4-0.2-0.9,0-1.3s0.5-0.9,0.9-1s0.9-0.2,1.3-0.1c0.4,0.2,0.9,0.5,1,0.9
	C310.1,20.9,310.1,21.5,309.9,22z M311.7,14.9c-0.1,0.5-0.2,1-0.7,1.2c-0.4,0.2-0.9,0.4-1.3,0.2c-0.5-0.1-0.9-0.4-1.1-0.9
	c-0.2-0.4-0.4-0.9-0.2-1.3c0.1-0.5,0.2-0.9,0.6-1.1c0.2-0.2,0.9-0.4,1.2-0.4c0.5,0,0.9,0.2,1.1,0.7
	C311.7,13.8,311.7,14.3,311.7,14.9z"/>
<path class="st2" d="M138.3,37.4c-0.6-0.4-1.7-1.5-2.6-1.6c-1.1-0.1-1.7,0.9-2.5,1.2c-0.1,0-0.2,0-0.3,0.1v-0.4
	c0.4-0.1,0.9-0.3,1.3-0.5c0.9-0.6,1.6-1.7,0.9-2.9c-0.5-0.8-1.6-1.1-2.4-0.6c-0.5,0.3-0.8,0.9-0.7,1.5c0,0.3,0.3,0.6,0.5,0.8
	c0.4,0.4,0.9,0.4,1.3,0.2c0.5-0.3,0.5-0.7,0.5-1c0-0.1-0.1-0.2-0.2-0.2v0.1c0,0.2-0.1,0.4-0.4,0.6c-0.4,0.2-1,0-1.1-0.4
	c-0.2-0.6,0.3-1.1,0.8-1.1c0.5-0.1,1.1,0.2,1.3,0.6c0.2,0.4,0.3,1,0,1.5c-0.4,0.6-0.9,1.1-1.5,1.3c-0.1,0-0.2,0-0.3,0.1l0,0
	c0-0.1,0-0.3-0.1-0.3h-0.2c0,0-0.1,0.1-0.1,0.3v0.1c-0.1,0-0.2,0-0.3,0v-0.2c0-0.1,0-0.3-0.1-0.3h-0.2c-0.1,0-0.1,0.1-0.1,0.3v0.1
	c-0.2,0-0.5-0.1-0.7-0.3c-0.4-0.2-0.7-0.6-0.6-1c0.1-0.6,0.8-0.7,0.9,0c0,0.1,0,0.5,0.2,0.3c0.1-0.1,0.2-0.2,0.2-0.6
	c0-0.2-0.2-0.5-0.4-0.6s-0.4-0.2-0.8,0c-0.3,0.1-0.4,0.4-0.5,0.6c-0.1,0.4,0,0.7,0.2,1c0.1,0.2,0.3,0.4,0.4,0.4
	c0.2,0.2,0.5,0.3,0.7,0.3c0.1,0,0.3,0,0.4,0v0.4c-0.3,0-0.6-0.2-1-0.4c-0.2-0.2-0.5-0.5-1-0.4c-0.5,0-2.5,1.1-2.5,1.1s2,1.1,2.5,1.1
	c0.4,0,0.8-0.2,1-0.4c0.4-0.2,0.7-0.4,1-0.4v0.4c-0.1,0-0.3,0-0.4,0c-0.3,0-0.5,0.1-0.7,0.3c-0.2,0.1-0.4,0.3-0.4,0.4
	c-0.2,0.3-0.3,0.7-0.2,1c0,0.2,0.2,0.4,0.5,0.6c0.4,0.2,0.7,0.1,0.8,0c0.2-0.1,0.4-0.4,0.4-0.6c0-0.3-0.1-0.5-0.2-0.5
	c-0.3-0.2-0.2,0.1-0.3,0.3c-0.1,0.6-0.8,0.5-0.9,0c0-0.4,0.2-0.8,0.6-1c0.2-0.1,0.5-0.2,0.7-0.3v0.1c0,0.1,0,0.3,0.1,0.3h0.2
	c0.1,0,0.1-0.1,0.1-0.3v-0.1c0.1,0,0.2,0,0.3,0v0.1c0,0.1,0,0.3,0.1,0.3h0.2c0,0,0.1-0.1,0.1-0.3l0,0c0.1,0,0.2,0,0.3,0.1
	c0.7,0.3,1.1,0.7,1.5,1.3c0.2,0.4,0.2,1.1,0,1.5c-0.3,0.4-0.8,0.7-1.3,0.6c-0.5-0.1-1-0.6-0.8-1.1c0.2-0.4,0.7-0.7,1.1-0.4
	c0.3,0.1,0.3,0.4,0.4,0.6v0.1c0,0,0.1-0.1,0.2-0.2c0.1-0.3,0-0.7-0.5-1c-0.4-0.3-0.8-0.2-1.3,0.2c-0.3,0.2-0.4,0.5-0.5,0.8
	c-0.1,0.6,0.2,1.1,0.7,1.5c0.7,0.4,1.9,0.2,2.3-0.5c0.7-1.2,0-2.2-0.9-2.9c-0.4-0.3-0.8-0.4-1.3-0.5V38c0.1,0,0.2,0,0.3,0.1
	c0.8,0.3,1.5,1.3,2.5,1.2s2.1-1.2,2.7-1.6l0,0L138.3,37.4z M132.2,36.7c0.1,0,0.2,0,0.3,0v0.5c-0.1,0-0.2,0-0.3,0V36.7z M130.5,38
	c-0.2,0.1-0.3,0-0.4,0c-0.2,0-0.4-0.2-0.9-0.6l0,0c0.5-0.4,0.7-0.5,0.9-0.6c0.1,0,0.3-0.1,0.4,0c0.4,0.2,1,0.4,1.3,0.5v0.1
	C131.4,37.6,130.8,37.8,130.5,38z M132.4,38.2c-0.1,0-0.2,0-0.3,0v-0.4c0.1,0,0.2,0,0.3,0V38.2z M135.1,38.4H135
	c-0.4,0-0.7-0.2-1.3-0.6c-0.1-0.1-0.4-0.3-0.9-0.4v-0.1c0.4-0.1,0.7-0.3,0.9-0.4c0.6-0.4,0.8-0.6,1.3-0.6h0.1c0.5,0.1,1.2,0.5,1.9,1
	C136.4,37.9,135.7,38.4,135.1,38.4z"/>
<path class="st2" d="M200.7,36.3c-0.4,0-0.8,0.2-1,0.4c-0.4,0.2-0.7,0.4-1,0.4v-0.4c0.1,0,0.3,0,0.4,0c0.3,0,0.5-0.1,0.7-0.3
	c0.2-0.1,0.4-0.3,0.4-0.4c0.2-0.3,0.3-0.7,0.2-1c0-0.2-0.2-0.4-0.5-0.6c-0.4-0.2-0.7-0.1-0.8,0c-0.2,0.1-0.4,0.4-0.4,0.6
	c0,0.3,0.1,0.5,0.2,0.5c0.2,0.2,0.2-0.2,0.2-0.3c0.1-0.6,0.8-0.5,0.9,0c0,0.4-0.2,0.8-0.6,1c-0.2,0.1-0.5,0.2-0.7,0.3v-0.1
	c0-0.1,0-0.3-0.1-0.3h-0.2c-0.1,0-0.1,0.1-0.1,0.3v0.1c-0.1,0-0.2,0-0.3,0v-0.1c0-0.1,0-0.3-0.1-0.3h-0.2c0,0-0.1,0.1-0.1,0.3l0,0
	c-0.1,0-0.2,0-0.3-0.1c-0.7-0.3-1.1-0.7-1.5-1.3c-0.2-0.4-0.2-1.1,0-1.5c0.3-0.4,0.8-0.7,1.3-0.6c0.5,0.1,1,0.6,0.8,1.1
	c-0.2,0.4-0.7,0.7-1.1,0.4c-0.3-0.1-0.3-0.4-0.4-0.6v-0.1c0,0-0.1,0.1-0.2,0.2c-0.1,0.3,0,0.7,0.5,1c0.4,0.3,0.8,0.2,1.3-0.2
	c0.3-0.2,0.4-0.5,0.5-0.8c0.1-0.6-0.2-1.1-0.7-1.5c-0.7-0.4-1.9-0.2-2.3,0.5c-0.7,1.2,0,2.2,0.9,2.9c0.4,0.3,0.8,0.4,1.3,0.5v0.4
	c-0.1,0-0.2,0-0.3-0.1c-0.8-0.3-1.5-1.3-2.5-1.2s-2.1,1.2-2.7,1.6l0,0l0,0c0.6,0.4,1.7,1.5,2.7,1.6c1.1,0.1,1.7-0.9,2.5-1.2
	c0.1,0,0.2,0,0.3-0.1v0.4c-0.4,0.1-0.9,0.3-1.3,0.5c-0.9,0.6-1.6,1.7-0.9,2.9c0.5,0.8,1.6,1,2.3,0.5c0.5-0.3,0.8-0.9,0.7-1.5
	c0-0.3-0.3-0.6-0.5-0.8c-0.4-0.4-0.9-0.4-1.3-0.2c-0.5,0.3-0.6,0.7-0.5,1c0,0.1,0.1,0.2,0.2,0.2v-0.1c0-0.2,0.1-0.4,0.4-0.6
	c0.4-0.2,1,0,1.1,0.4c0.2,0.6-0.3,1.1-0.8,1.1c-0.5,0.1-1.1-0.2-1.3-0.6c-0.2-0.4-0.3-1,0-1.5c0.4-0.6,0.9-1.1,1.5-1.3
	c0.1,0,0.2,0,0.3-0.1l0,0c0,0.1,0,0.3,0.1,0.3h0.2c0,0,0.1-0.1,0.1-0.3v-0.1c0.1,0,0.2,0,0.3,0v0.1c0,0.1,0,0.3,0.1,0.3h0.2
	c0.1,0,0.1-0.1,0.1-0.3V38c0.3,0,0.5,0.1,0.7,0.3c0.4,0.2,0.7,0.6,0.6,1c-0.1,0.6-0.8,0.7-0.9,0c0-0.1,0-0.5-0.2-0.3
	c0,0-0.2,0.2-0.2,0.5s0.2,0.5,0.4,0.6s0.4,0.2,0.8,0c0.3-0.1,0.4-0.4,0.5-0.6c0.1-0.3,0-0.7-0.2-1c-0.1-0.2-0.3-0.4-0.4-0.4
	c-0.2-0.1-0.5-0.2-0.7-0.3c-0.1,0-0.3,0-0.4,0v-0.4c0.3,0,0.6,0.2,1,0.4c0.3,0.2,0.6,0.5,1,0.4s2.5-1.1,2.5-1.1
	S201.1,36.4,200.7,36.3z M198.1,36.7c0.1,0,0.2,0,0.3,0v0.4c-0.1,0-0.2,0-0.3,0V36.7z M196.8,37.8c-0.6,0.4-0.8,0.6-1.3,0.6h-0.1
	c-0.5-0.1-1.2-0.5-1.9-1c0.6-0.4,1.3-0.9,1.9-1h0.1c0.4,0,0.7,0.2,1.3,0.6c0.1,0.1,0.4,0.3,0.9,0.4v0.1
	C197.2,37.6,196.9,37.8,196.8,37.8z M198.3,38.2c-0.1,0-0.2,0-0.3,0v-0.4c0.1,0,0.2,0,0.3,0V38.2z M200.5,38c-0.1,0-0.3,0.1-0.4,0
	c-0.4-0.2-1-0.4-1.3-0.5v-0.1c0.4-0.1,1-0.3,1.3-0.5c0.2-0.1,0.3,0,0.4,0c0.2,0,0.4,0.2,0.9,0.6l0,0C200.9,37.8,200.7,38,200.5,38z"
	/>
<text transform="matrix(1 0 0 1 140.3383 40.5961)" class="st3 st4 st5">第　　　　話</text>
<g id="素材">
</g>
</svg>
