<?xml version="1.0" encoding="utf-8"?>
<!-- Generator: Adobe Illustrator 24.3.0, SVG Export Plug-In . SVG Version: 6.00 Build 0)  -->
<svg version="1.1" id="レイヤー_1" xmlns="http://www.w3.org/2000/svg" xmlns:xlink="http://www.w3.org/1999/xlink" x="0px"
	 y="0px" viewBox="0 0 340.2 28.3" style="enable-background:new 0 0 340.2 28.3;" xml:space="preserve">
<style type="text/css">
	.st0{fill:#4D4D4D;}
	.st1{fill:#404040;}
	.st2{fill:#333333;}
</style>
<g id="_x31_1">
	<polygon class="st0" points="221.6,28.3 259.1,28.3 253.6,16.7 259.1,5.3 221.6,5.3 	"/>
	<polygon class="st1" points="221.6,5.3 247.1,5.3 247.1,24.9 234.8,28.3 221.6,28.3 	"/>
	<polygon class="st2" points="221.6,28.3 245.8,22.7 221.6,5.3 	"/>
	<polygon class="st0" points="118.6,28.3 81.1,28.3 86.6,16.7 81.1,5.3 118.6,5.3 	"/>
	<polygon class="st1" points="118.6,5.3 93.1,5.3 93.1,24.9 105.5,28.3 118.6,28.3 	"/>
	<polygon class="st2" points="118.6,5.3 94.5,22.7 118.6,28.3 	"/>
</g>
<g id="レイヤー_1_1_">
	<polygon class="st0" points="245.8,22.7 89.5,22.7 94.5,22.7 94.5,0 89.5,0 245.8,0 	"/>
</g>
</svg>
