<?xml version="1.0" encoding="utf-8"?>
<!-- Generator: Adobe Illustrator 24.2.3, SVG Export Plug-In . SVG Version: 6.00 Build 0)  -->
<svg version="1.1" id="レイヤー_1" xmlns="http://www.w3.org/2000/svg" xmlns:xlink="http://www.w3.org/1999/xlink" x="0px"
	 y="0px" viewBox="0 0 22.677166 8.503937" style="enable-background:new 0 0 22.677166 8.503937;" xml:space="preserve">
<style type="text/css">
	.st0{clip-path:url(#SVGID_2_);fill:#262626;}
	.st1{clip-path:url(#SVGID_4_);fill:none;stroke:#141414;stroke-width:0.283;}
	.st2{clip-path:url(#SVGID_6_);fill:none;stroke:#141414;stroke-width:0.283;}
	.st3{clip-path:url(#SVGID_8_);fill:none;stroke:#141414;stroke-width:0.283;}
	.st4{clip-path:url(#SVGID_10_);fill:none;stroke:#141414;stroke-width:0.283;}
	.st5{fill:#A1A1A1;}
	.st6{clip-path:url(#SVGID_12_);fill:#CFCFCF;}
	.st7{clip-path:url(#SVGID_14_);fill:#CFCFCF;}
	.st8{clip-path:url(#SVGID_16_);fill:#CFCFCF;}
	.st9{clip-path:url(#SVGID_18_);fill:#CFCFCF;}
	.st10{clip-path:url(#SVGID_20_);fill:#CFCFCF;}
</style>
<g>
	<g>
		<g>
			<defs>
				<rect id="SVGID_1_" y="0.000851" width="22.677166" height="8.162928"/>
			</defs>
			<clipPath id="SVGID_2_">
				<use xlink:href="#SVGID_1_"  style="overflow:visible;"/>
			</clipPath>
			<path class="st0" d="M2.099974,1.809596c0,0-1.702107,0-1.702107,1.702029V6.46209c0,0,0,1.702028,1.702107,1.702028H20.57719
				c0,0,1.702106,0,1.702106-1.702028V3.511625c0,0,0-1.702029-1.702106-1.702029
				C20.57719,1.809596,2.099974,1.809596,2.099974,1.809596z"/>
		</g>
	</g>
	<g>
		<g>
			<defs>
				<path id="SVGID_3_" d="M2.1004,1.810107c0,0-1.702957,0-1.702957,1.701178v2.950465c0,0,0,1.702029,1.702957,1.702029h18.476364
					c0,0,1.702108,0,1.702108-1.702029V3.511285c0,0,0-1.701178-1.702108-1.701178
					C20.576763,1.810107,2.1004,1.810107,2.1004,1.810107z"/>
			</defs>
			<clipPath id="SVGID_4_">
				<use xlink:href="#SVGID_3_"  style="overflow:visible;"/>
			</clipPath>
			<line class="st1" x1="0" y1="4.246136" x2="22.677166" y2="4.246136"/>
		</g>
		<g>
			<defs>
				<path id="SVGID_5_" d="M2.1004,1.810107c0,0-1.702957,0-1.702957,1.701178v2.950465c0,0,0,1.702029,1.702957,1.702029h18.476364
					c0,0,1.702108,0,1.702108-1.702029V3.511285c0,0,0-1.701178-1.702108-1.701178
					C20.576763,1.810107,2.1004,1.810107,2.1004,1.810107z"/>
			</defs>
			<clipPath id="SVGID_6_">
				<use xlink:href="#SVGID_5_"  style="overflow:visible;"/>
			</clipPath>
			<line class="st2" x1="0" y1="6.94317" x2="22.677166" y2="6.94317"/>
		</g>
		<g>
			<defs>
				<path id="SVGID_7_" d="M2.1004,1.810107c0,0-1.702957,0-1.702957,1.701178v2.950465c0,0,0,1.702029,1.702957,1.702029h18.476364
					c0,0,1.702108,0,1.702108-1.702029V3.511285c0,0,0-1.701178-1.702108-1.701178
					C20.576763,1.810107,2.1004,1.810107,2.1004,1.810107z"/>
			</defs>
			<clipPath id="SVGID_8_">
				<use xlink:href="#SVGID_7_"  style="overflow:visible;"/>
			</clipPath>
			<line class="st3" x1="0" y1="5.145147" x2="22.677166" y2="5.145147"/>
		</g>
		<g>
			<defs>
				<path id="SVGID_9_" d="M2.1004,1.810107c0,0-1.702957,0-1.702957,1.701178v2.950465c0,0,0,1.702029,1.702957,1.702029h18.476364
					c0,0,1.702108,0,1.702108-1.702029V3.511285c0,0,0-1.701178-1.702108-1.701178
					C20.576763,1.810107,2.1004,1.810107,2.1004,1.810107z"/>
			</defs>
			<clipPath id="SVGID_10_">
				<use xlink:href="#SVGID_9_"  style="overflow:visible;"/>
			</clipPath>
			<line class="st4" x1="0" y1="6.044159" x2="22.677166" y2="6.044159"/>
		</g>
	</g>
	<rect y="1.085894" class="st5" width="22.676315" height="2.532619"/>
	<rect x="10.228809" width="2.219546" height="3.618513"/>
	<g>
		<g>
			<defs>
				<rect id="SVGID_11_" y="0.000851" width="22.677166" height="8.162928"/>
			</defs>
			<clipPath id="SVGID_12_">
				<use xlink:href="#SVGID_11_"  style="overflow:visible;"/>
			</clipPath>
			<path class="st6" d="M1.338877,2.798732c0.273188,0,0.494462-0.221264,0.494462-0.49444s-0.221274-0.49444-0.494462-0.49444
				s-0.494462,0.221264-0.494462,0.49444S1.065688,2.798732,1.338877,2.798732"/>
		</g>
		<g>
			<defs>
				<rect id="SVGID_13_" y="0.000851" width="22.677166" height="8.162928"/>
			</defs>
			<clipPath id="SVGID_14_">
				<use xlink:href="#SVGID_13_"  style="overflow:visible;"/>
			</clipPath>
			<path class="st7" d="M16.338181,2.798732c0.273186,0,0.494461-0.221264,0.494461-0.49444s-0.221277-0.49444-0.494461-0.49444
				c-0.27319,0-0.494465,0.221264-0.494465,0.49444S16.064991,2.798732,16.338181,2.798732"/>
		</g>
		<g>
			<defs>
				<rect id="SVGID_15_" y="0.000851" width="22.677166" height="8.162928"/>
			</defs>
			<clipPath id="SVGID_16_">
				<use xlink:href="#SVGID_15_"  style="overflow:visible;"/>
			</clipPath>
			<path class="st8" d="M21.337946,2.798732c0.273188,0,0.494461-0.221264,0.494461-0.49444s-0.221275-0.49444-0.494461-0.49444
				c-0.27319,0-0.494461,0.221264-0.494461,0.49444S21.064756,2.798732,21.337946,2.798732"/>
		</g>
		<g>
			<defs>
				<rect id="SVGID_17_" y="0.000851" width="22.677166" height="8.162928"/>
			</defs>
			<clipPath id="SVGID_18_">
				<use xlink:href="#SVGID_17_"  style="overflow:visible;"/>
			</clipPath>
			<path class="st9" d="M11.338411,2.798732c0.273187,0,0.494463-0.221264,0.494463-0.49444s-0.221276-0.49444-0.494463-0.49444
				c-0.273189,0-0.494462,0.221264-0.494462,0.49444S11.065223,2.798732,11.338411,2.798732"/>
		</g>
		<g>
			<defs>
				<rect id="SVGID_19_" y="0.000851" width="22.677166" height="8.162928"/>
			</defs>
			<clipPath id="SVGID_20_">
				<use xlink:href="#SVGID_19_"  style="overflow:visible;"/>
			</clipPath>
			<path class="st10" d="M6.338645,2.798732c0.273186,0,0.49446-0.221264,0.49446-0.49444s-0.221273-0.49444-0.49446-0.49444
				c-0.273189,0-0.494462,0.221264-0.494462,0.49444S6.065457,2.798732,6.338645,2.798732"/>
		</g>
	</g>
</g>
</svg>
