<?xml version="1.0" encoding="utf-8"?>
<!-- Generator: Adobe Illustrator 24.2.3, SVG Export Plug-In . SVG Version: 6.00 Build 0)  -->
<svg version="1.1" id="レイヤー_1" xmlns="http://www.w3.org/2000/svg" xmlns:xlink="http://www.w3.org/1999/xlink" x="0px"
	 y="0px" viewBox="0 0 283.464569 283.464569" style="enable-background:new 0 0 283.464569 283.464569;" xml:space="preserve">
<style type="text/css">
	.st0{fill:#FFFFFF;}
</style>
<g>
	<path d="M234.039368,248.158508c-3.135193,0.488373-27.043961-2.490143-45.535904-32.415222l27.539642-10.633667
		c0,0,3.618378,23.964417,19.318375,41.686768C235.685333,248.178864,234.504944,248.086334,234.039368,248.158508z"/>
	<path class="st0" d="M272.397949,176.42894c-0.895111,7.541061-6.154053,12.802048-10.410675,14.582443
		c-4.321838,1.968048-7.464371,1.561081-7.499664,2.148056c-0.09671,0.276535,2.290314,1.365768,6.298065,0.604889
		c-0.404846,2.781982-1.419006,5.695267-3.309814,8.366989c-3.52948,5.017517-8.989975,7.388702-13.309555,7.942627
		c0.936371-4.087051,0.248901-6.638245-0.130615-6.602951c-0.648331-0.0233-0.90921,2.891388-2.775024,6.853394
		c-1.774475,3.964264-5.770218,8.82196-11.919769,11.088974c-6.14415,2.309784-12.331955,1.205414-16.276031-0.593063
		c-3.997864-1.782654-6.100693-3.818008-6.581024-3.373474c-0.193604,0.138092,0.205887,1.162109,1.397217,2.529449
		l-0.24678-0.092865c-3.280426,3.867401-9.351364,7.697403-16.789978,7.667496
		c-7.434448-0.090622-13.425903-4.033142-16.656906-7.936035c0.754807-2.071182,0.695663-3.426682,0.450439-3.468597
		c-0.531509-0.163483-1.391327,2.185959-3.808289,5.043594c-2.337448,2.883209-6.710953,6.009369-12.28775,6.523117
		c-5.582748,0.551498-10.446381-1.727341-13.305756-4.08287c-0.533752-0.432541-1.011673-0.85759-1.442642-1.262466
		l-1.197586-1.308212c-0.015839,0.021744-0.033401,0.041397-0.049576,0.063126
		c-1.090637-1.144028-1.695312-1.889252-1.997787-1.729431c-0.217392,0.079315-0.0513,1.282639,0.918976,3.009811
		c-3.539383,3.907227-9.730667,7.63237-17.260071,7.600708c-8.205246-0.098785-14.750107-4.652283-18.020966-8.948563
		c-0.205399-0.26088-0.402969-0.519485-0.590622-0.77446c1.695694-2.746841,1.920914-4.744629,1.652039-4.809845
		c-0.610794-0.296707-2.049438,2.657623-5.774406,5.806046c-3.634171,3.173477-10.18544,5.989883-17.390511,4.602371
		c-6.742775-1.351685-11.564636-5.88884-13.908493-10.019363c1.501923-1.752747,1.930801-3.118515,1.735146-3.199387
		c-0.462273-0.386963-2.517776,2.474487-7.217018,4.622375c-4.513531,2.229263-12.357025,2.814148-18.617702-1.788742
		c-6.306068-4.531067-8.171505-12.176819-7.44627-17.160767c0.045738-0.405411,0.112698-0.778809,0.175831-1.156555
		c2.306316-0.69133,3.446518-1.645615,3.321995-1.843521c-0.146091-0.448364-2.059181,0.14035-5.199261,0.170258l-0.001911-0.002258
		c-0.002064,0.002258-0.002064,0.002258-0.002064,0.002258c-1.003876,0.00975-2.130337-0.035995-3.367237-0.194092
		c-5.00395-0.51358-11.960098-3.88913-15.309595-10.855225c-3.430867-6.928345-1.816219-14.488876,0.859499-18.747757
		c0.357922-0.601059,0.719322-1.136383,1.078983-1.646652c1.976246,0.391312,3.183558,0.193909,3.195557-0.057053
		c0.160004-0.663666-3.308254-1.473938-7.493575-4.721329c-4.178018-3.088425-8.723171-9.432053-8.837609-17.346695
		c-0.138264-7.940369,4.065144-14.414261,8.159505-17.667038c4.049317-3.387215,7.466271-4.363411,7.270637-5.064995
		c-0.017935-0.253052-1.519712-0.387314-3.885162,0.314095c-2.567171-3.687569-4.474022-9.550842-2.997986-15.797607
		c1.659866-6.79425,6.699295-11.352974,10.89279-13.242584c0.521751-0.244705,1.023527-0.458275,1.507864-0.649933
		c0.096697,0.126266,0.191483,0.258965,0.290442,0.377403l0.565231-0.699669c2.962334-1.057076,4.972124-1.209251,4.960123-1.727005
		c0.051479-0.258957-1.758652-0.85376-4.802206-0.480354c-1.537256-3.503738-2.033442-8.542824,0.44488-13.106064
		c2.13014-4.021492,5.829708-6.337723,9.246315-7.286095c-0.616535,2.602501-0.316006,4.228973-0.029564,4.234886
		c0.590969,0.088875,1.136398-2.555191,3.258862-5.98571c2.039379-3.442696,6.209023-7.472183,12.07856-8.904915
		c5.50555-1.381252,10.730526-0.004002,14.185047,1.873436c-0.909241,2.885117-0.644371,4.764641-0.375488,4.754726
		c0.610451,0.138439,1.230988-3.316082,4.414711-7.40279c3.007729-4.067059,9.497482-8.351337,17.24408-7.681583
		c5.565178,0.41497,10.076775,3.252777,13.037018,6.48399c-0.4981,1.335857-0.525726,2.189617-0.324181,2.256748
		c0.258965,0.120701,0.66993-0.308006,1.329941-1.074982c0.017914,0.025742,0.039833,0.049393,0.059311,0.073044l0.306442-0.503838
		c0.82402-0.966286,1.964218-2.296406,3.551216-3.707394c3.187561-2.948421,8.770302-5.843624,15.319336-5.51144
		c4.486023,0.195656,8.363358,1.873436,11.299759,3.93853c-1.861435,3.663742-1.863525,6.24485-1.529602,6.286068
		c0.713577,0.241398,1.909088-3.23695,5.628479-7.236526c3.58461-4.053318,10.497482-8.045242,18.694382-7.472183
		c8.172043,0.549404,14.479828,5.588657,17.443909,10.072769c0.089218,0.128178,0.171844,0.254963,0.257065,0.383141
		c-1.424927,2.833984-1.468399,4.812119-1.199356,4.851772c0.606445,0.223309,1.711349-2.721287,4.97995-6.057194
		c3.165817-3.369473,9.159363-6.627815,16.150833-5.958061c6.988342,0.723148,12.209,5.118389,14.659668,9.033092
		c2.543533,3.914879,3.043549,7.017567,3.681656,6.918781c0.335831,0.017914,0.794632-2.95451-1.015854-7.322094l0.725586,1.363686
		c3.491913-1.652042,8.220901-2.67189,13.224319-1.602474c6.246796,1.292381,10.754532,5.416656,13.060501,8.944046
		c2.359879,3.541306,3.027893,6.304153,3.654007,6.189545c0.25322-0.013916,0.472351-1.260902,0.080872-3.30043
		c3.106674,0.150269,7.059479,1.345947,10.193817,4.357674c3.394699,3.221123,4.693008,7.487663,4.860977,10.67157
		c-1.072876-0.098961-1.699509,0.039307-1.717422,0.223137c-0.144012,0.624359,2.648422,1.432899,6.156143,3.999748
		c3.525696,2.476059,7.505585,7.288177,8.552917,13.708687c1.09079,6.420853-1.15448,12.238731-3.650024,15.740387
		c-0.438599,0.624535-0.871307,1.187859-1.288727,1.699516c-2.489777-0.776711-4.086517-0.648186-4.104431-0.387314
		c-0.197235,0.699844,3.215393,1.675873,7.256683,5.055084c4.088806,3.248947,8.283875,9.711189,8.145966,17.635399
		c-0.112549,7.901062-4.647949,14.230957-8.817627,17.315384c-4.177795,3.241287-7.640015,4.047745-7.480194,4.711411
		c0.014099,0.304184,1.790314,0.529755,4.563293-0.284348c0.205353,0.152176,0.410767,0.296173,0.622253,0.464188
		C269.543976,162.512939,273.365814,168.897797,272.397949,176.42894z"/>
	<path d="M267.953186,158.251968c0.589203-0.270615,1.203827-0.584885,1.839661-0.948364
		c5.169708-2.780594,11.209137-10.13208,11.335754-19.673019c0.19339-9.556747-5.466034-17.109978-10.564911-20.093704
		c-0.875183-0.543495-1.70929-0.98629-2.498016-1.353951l0.095123-0.003822c0.302277-0.280701,0.610992-0.578972,0.922852-0.903152
		c3.416931-3.456436,6.677338-10.37104,5.349701-18.111923c-1.249115-7.740715-6.54541-13.266068-10.932465-15.402298
		c-1.422821-0.731323-2.711365-1.205421-3.809845-1.501945c0.464172-3.606529-0.697754-9.155533-4.932648-13.163284
		c-3.970352-3.827919-9.197067-4.883251-12.785706-4.424629c-0.217392-0.644363-0.480362-1.326122-0.812546-2.049442
		c-1.93866-4.351585-7.082779-9.791893-14.617752-11.341324c-5.964294-1.286469-11.564972,0.25705-15.372726,2.569107
		c-2.302139-4.673855-8.181564-10.092422-16.319351-10.914532c-8.400726-0.830105-15.436203,3.608612-18.459763,7.88089
		c-2.964066-5.278389-9.951721-11.190884-19.226562-11.803421c-9.87085-0.717407-17.984955,4.715073-21.358261,9.825462
		c-3.187561-2.598675-7.634277-4.720989-12.865013-4.942558c-7.890976-0.413055-14.457748,3.630352-17.491211,7.493752
		c-0.52784,0.646103-0.978287,1.268726-1.365601,1.86161c-3.21521-3.608437-8.157768-6.717209-14.305748-7.169567
		c-9.351334-0.822109-16.943542,4.879074-19.71022,9.896591c-0.326096,0.549576-0.602798,1.08107-0.853935,1.596733
		c-3.647919-2.535366-9.679195-4.446198-16.072395-2.829807c-7.076523,1.715519-11.811596,7.015476-13.471462,11.226883
		c-0.061394,0.14418-0.110962,0.280357-0.166069,0.418793c-4.343609,0.472191-9.679218,3.070862-12.529005,8.46386
		c-2.855572,5.242912-2.171904,10.989838-0.264725,14.874977c-0.383488,0.096703-0.77878,0.201569-1.187857,0.328011
		c-4.999752,1.440727-11.530892,6.596512-13.511115,14.801582c-1.703693,7.130089,0.68767,13.774078,3.849486,17.716614
		c-0.76054,0.361572-1.564908,0.788536-2.406841,1.312202c-5.106735,2.98999-10.776093,10.554871-10.582522,20.131454
		c0.128525,9.556763,6.179458,16.924072,11.36115,19.710571c1.582822,0.904892,3.035379,1.509781,4.300106,1.904922
		l-1.294466,0.225571c-0.100698,0.122253-0.201571,0.250443-0.302443,0.379303
		c-3.644091,4.382721-6.169371,13.477554-2.017615,21.836365c4.035403,8.417084,12.764489,12.0177,18.455585,11.843781
		c1.047504-0.00209,2.00005-0.077057,2.865635-0.195663c-0.015827,0.066956-0.035652,0.126099-0.053394,0.195663
		c-1.527687,5.501343,0.203659,14.937927,7.829586,20.409897c7.55497,5.56308,17.064617,4.298355,21.823147,1.148376
		c0.810303-0.496201,1.513779-1.00386,2.138313-1.509964c2.307884,4.818207,7.661583,10.181305,15.35881,11.703079
		c8.6912,1.695175,16.463715-2.276749,20.022758-6.417023c0.122635-0.136353,0.231308-0.270615,0.347832-0.404892
		c2.9879,5.324142,10.592461,11.38446,20.467285,11.475769c8.639862,0.060867,15.625778-4.47229,19.285522-9.153961
		c0.055481,0.063644,0.105042,0.124512,0.162109,0.188004c2.76683,3.141983,8.507843,6.363281,15.23671,5.685532
		c6.65181-0.602798,11.675262-4.733337,13.811295-8.341599c3.419037,4.477844,9.959915,8.875351,18.143402,8.951874
		c8.857254,0.061386,15.884567-4.959946,19.080292-9.752411c0.551147,0.446793,1.167862,0.905579,1.867386,1.359848
		c4.076767,2.716934,11.542679,4.618027,18.94339,1.820221c6.679642-2.44841,10.942703-7.790451,12.655792-12.293869
		c5.051254,0.290268,12.503616-2.089096,17.050507-8.566986c2.612427-3.669662,3.689667-7.756714,3.776611-11.466034
		c4.768646-2.013611,10.368774-7.702972,11.337311-15.941772C276.62677,168.289261,272.239685,161.192734,267.953186,158.251968z
		 M272.397949,176.42894c-0.895111,7.541061-6.154053,12.802048-10.410675,14.582443
		c-4.321838,1.968048-7.464371,1.561081-7.499664,2.148056c-0.09671,0.276535,2.290314,1.365768,6.298065,0.604889
		c-0.404846,2.781982-1.419006,5.695267-3.309814,8.366989c-3.52948,5.017517-8.989975,7.388702-13.309555,7.942627
		c0.936371-4.087051,0.248901-6.638245-0.130615-6.602951c-0.648331-0.0233-0.90921,2.891388-2.775024,6.853394
		c-1.774475,3.964264-5.770218,8.82196-11.919769,11.088974c-6.14415,2.309784-12.331955,1.205414-16.276031-0.593063
		c-3.997864-1.782654-6.100693-3.818008-6.581024-3.373474c-0.193604,0.138092,0.205887,1.162109,1.397217,2.529449
		l-0.24678-0.092865c-3.280426,3.867401-9.351364,7.697403-16.789978,7.667496
		c-7.434448-0.090622-13.425903-4.033142-16.656906-7.936035c0.754807-2.071182,0.695663-3.426682,0.450439-3.468597
		c-0.531509-0.163483-1.391327,2.185959-3.808289,5.043594c-2.337448,2.883209-6.710953,6.009369-12.28775,6.523117
		c-5.582748,0.551498-10.446381-1.727341-13.305756-4.08287c-0.533752-0.432541-1.011673-0.85759-1.442642-1.262466
		l-1.197586-1.308212c-0.015839,0.021744-0.033401,0.041397-0.049576,0.063126
		c-1.090637-1.144028-1.695312-1.889252-1.997787-1.729431c-0.217392,0.079315-0.0513,1.282639,0.918976,3.009811
		c-3.539383,3.907227-9.730667,7.63237-17.260071,7.600708c-8.205246-0.098785-14.750107-4.652283-18.020966-8.948563
		c-0.205399-0.26088-0.402969-0.519485-0.590622-0.77446c1.695694-2.746841,1.920914-4.744629,1.652039-4.809845
		c-0.610794-0.296707-2.049438,2.657623-5.774406,5.806046c-3.634171,3.173477-10.18544,5.989883-17.390511,4.602371
		c-6.742775-1.351685-11.564636-5.88884-13.908493-10.019363c1.501923-1.752747,1.930801-3.118515,1.735146-3.199387
		c-0.462273-0.386963-2.517776,2.474487-7.217018,4.622375c-4.513531,2.229263-12.357025,2.814148-18.617702-1.788742
		c-6.306068-4.531067-8.171505-12.176819-7.44627-17.160767c0.045738-0.405411,0.112698-0.778809,0.175831-1.156555
		c2.306316-0.69133,3.446518-1.645615,3.321995-1.843521c-0.146091-0.448364-2.059181,0.14035-5.199261,0.170258l-0.001911-0.002258
		c-0.002064,0.002258-0.002064,0.002258-0.002064,0.002258c-1.003876,0.00975-2.130337-0.035995-3.367237-0.194092
		c-5.00395-0.51358-11.960098-3.88913-15.309595-10.855225c-3.430867-6.928345-1.816219-14.488876,0.859499-18.747757
		c0.357922-0.601059,0.719322-1.136383,1.078983-1.646652c1.976246,0.391312,3.183558,0.193909,3.195557-0.057053
		c0.160004-0.663666-3.308254-1.473938-7.493575-4.721329c-4.178018-3.088425-8.723171-9.432053-8.837609-17.346695
		c-0.138264-7.940369,4.065144-14.414261,8.159505-17.667038c4.049317-3.387215,7.466271-4.363411,7.270637-5.064995
		c-0.017935-0.253052-1.519712-0.387314-3.885162,0.314095c-2.567171-3.687569-4.474022-9.550842-2.997986-15.797607
		c1.659866-6.79425,6.699295-11.352974,10.89279-13.242584c0.521751-0.244705,1.023527-0.458275,1.507864-0.649933
		c0.096697,0.126266,0.191483,0.258965,0.290442,0.377403l0.565231-0.699669c2.962334-1.057076,4.972124-1.209251,4.960123-1.727005
		c0.051479-0.258957-1.758652-0.85376-4.802206-0.480354c-1.537256-3.503738-2.033442-8.542824,0.44488-13.106064
		c2.13014-4.021492,5.829708-6.337723,9.246315-7.286095c-0.616535,2.602501-0.316006,4.228973-0.029564,4.234886
		c0.590969,0.088875,1.136398-2.555191,3.258862-5.98571c2.039379-3.442696,6.209023-7.472183,12.07856-8.904915
		c5.50555-1.381252,10.730526-0.004002,14.185047,1.873436c-0.909241,2.885117-0.644371,4.764641-0.375488,4.754726
		c0.610451,0.138439,1.230988-3.316082,4.414711-7.40279c3.007729-4.067059,9.497482-8.351337,17.24408-7.681583
		c5.565178,0.41497,10.076775,3.252777,13.037018,6.48399c-0.4981,1.335857-0.525726,2.189617-0.324181,2.256748
		c0.258965,0.120701,0.66993-0.308006,1.329941-1.074982c0.017914,0.025742,0.039833,0.049393,0.059311,0.073044l0.306442-0.503838
		c0.82402-0.966286,1.964218-2.296406,3.551216-3.707394c3.187561-2.948421,8.770302-5.843624,15.319336-5.51144
		c4.486023,0.195656,8.363358,1.873436,11.299759,3.93853c-1.861435,3.663742-1.863525,6.24485-1.529602,6.286068
		c0.713577,0.241398,1.909088-3.23695,5.628479-7.236526c3.58461-4.053318,10.497482-8.045242,18.694382-7.472183
		c8.172043,0.549404,14.479828,5.588657,17.443909,10.072769c0.089218,0.128178,0.171844,0.254963,0.257065,0.383141
		c-1.424927,2.833984-1.468399,4.812119-1.199356,4.851772c0.606445,0.223309,1.711349-2.721287,4.97995-6.057194
		c3.165817-3.369473,9.159363-6.627815,16.150833-5.958061c6.988342,0.723148,12.209,5.118389,14.659668,9.033092
		c2.543533,3.914879,3.043549,7.017567,3.681656,6.918781c0.335831,0.017914,0.794632-2.95451-1.015854-7.322094l0.725586,1.363686
		c3.491913-1.652042,8.220901-2.67189,13.224319-1.602474c6.246796,1.292381,10.754532,5.416656,13.060501,8.944046
		c2.359879,3.541306,3.027893,6.304153,3.654007,6.189545c0.25322-0.013916,0.472351-1.260902,0.080872-3.30043
		c3.106674,0.150269,7.059479,1.345947,10.193817,4.357674c3.394699,3.221123,4.693008,7.487663,4.860977,10.67157
		c-1.072876-0.098961-1.699509,0.039307-1.717422,0.223137c-0.144012,0.624359,2.648422,1.432899,6.156143,3.999748
		c3.525696,2.476059,7.505585,7.288177,8.552917,13.708687c1.09079,6.420853-1.15448,12.238731-3.650024,15.740387
		c-0.438599,0.624535-0.871307,1.187859-1.288727,1.699516c-2.489777-0.776711-4.086517-0.648186-4.104431-0.387314
		c-0.197235,0.699844,3.215393,1.675873,7.256683,5.055084c4.088806,3.248947,8.283875,9.711189,8.145966,17.635399
		c-0.112549,7.901062-4.647949,14.230957-8.817627,17.315384c-4.177795,3.241287-7.640015,4.047745-7.480194,4.711411
		c0.014099,0.304184,1.790314,0.529755,4.563293-0.284348c0.205353,0.152176,0.410767,0.296173,0.622253,0.464188
		C269.543976,162.512939,273.365814,168.897797,272.397949,176.42894z"/>
	<path class="st0" d="M191.595551,214.550201c0,0,13.96225,25.800995,39.94986,30.962509
		c-2.578339-4.604294-14.107315-13.748337-18.372467-39.293839L191.595551,214.550201z"/>
</g>
</svg>
