<svg width="1280" height="720" xmlns="http://www.w3.org/2000/svg" xmlns:xlink="http://www.w3.org/1999/xlink" overflow="hidden"><defs><clipPath id="clip0"><rect x="0" y="0" width="1280" height="720"/></clipPath></defs><g clip-path="url(#clip0)"><rect x="0" y="0" width="1280" height="720" fill="#FFFFFF" fill-opacity="0"/><path d="M155.5 13.5002C156.008 8.90335 159.091 7.08931 162.661 6.50005 181.005 0.32416 196.083 7.39469 218.44 6.50005 240.796 5.60542 254.557 7.24514 281.339 6.50005 285.065 5.42863 289.157 10.5599 288.5 13.5002 288.868 26.4715 288.333 30.729 288.5 41.4999 288.757 44.3471 286.073 48.304 281.339 48.5001 254.328 54.4848 244.868 46.5459 220.813 48.5001 196.758 50.4542 186.206 48.4277 162.661 48.5001 159.072 48.6065 155.813 44.5679 155.5 41.4999 153.438 34.6535 157.528 26.4273 155.5 13.5002Z" fill="#F2F2F2" fill-rule="evenodd"/><path d="M155.5 13.5002C155.695 9.93315 159.237 6.24998 162.661 6.50005 184.446 2.009 199.536 9.11899 224.374 6.50005 249.211 3.88111 262.727 6.57981 281.339 6.50005 285.386 6.30425 287.816 9.39692 288.5 13.5002 289.82 19.4481 287.047 31.2409 288.5 41.4999 288.422 45.4277 285.215 48.59 281.339 48.5001 267.217 50.6059 243.894 44.8577 224.374 48.5001 204.854 52.1424 190.36 47.423 162.661 48.5001 158.726 48.6145 156.538 45.7677 155.5 41.4999 153.807 33.8242 156.128 24.2826 155.5 13.5002Z" stroke="#000000" stroke-width="1.33333" stroke-linejoin="round" stroke-miterlimit="10" fill="none" fill-rule="evenodd"/><text font-family="Noto Sans CJK JP,Noto Sans CJK JP_MSFontService,sans-serif" font-weight="500" font-size="24" transform="translate(173.6 35)">もやもや</text><rect x="155.5" y="96.5001" width="126" height="39" stroke="#000000" stroke-width="1.33333" stroke-linejoin="round" stroke-miterlimit="10" fill="#F2F2F2"/><text font-family="Noto Sans CJK JP,Noto Sans CJK JP_MSFontService,sans-serif" font-weight="500" font-size="24" transform="translate(170.14 124)">ピターン</text><path d="M204.5 72.5001 213 72.5001 213 60.5001 230 60.5001 230 72.5001 238.5 72.5001 221.5 84.5001Z" stroke="#000000" stroke-width="1.33333" stroke-miterlimit="8" fill="#7F7F7F" fill-rule="evenodd"/></g></svg>