<svg width="1280" height="720" xmlns="http://www.w3.org/2000/svg" xmlns:xlink="http://www.w3.org/1999/xlink" overflow="hidden"><defs><clipPath id="clip0"><rect x="0" y="0" width="1280" height="720"/></clipPath></defs><g clip-path="url(#clip0)"><rect x="0" y="0" width="1280" height="720" fill="#FFFFFF" fill-opacity="0"/><path d="M40.8276 132.541C41.6786 133.201 42.6406 133.805 43.7136 134.354 44.7866 133.805 45.7486 133.201 46.5996 132.541ZM51.5564 128.216 54.957 129.917C54.2701 131.244 53.4538 132.443 52.5081 133.512 51.5623 134.582 50.5055 135.541 49.3376 136.389 51.5559 136.975 53.9964 137.394 56.6589 137.647 56.0847 138.222 55.5036 138.949 54.9158 139.83 54.328 140.71 53.8489 141.512 53.4785 142.235 49.707 141.723 46.3781 140.823 43.4916 139.534 41.9337 140.142 40.2857 140.665 38.5474 141.102 36.8092 141.539 35.0039 141.904 33.1316 142.198 32.8918 141.512 32.548 140.737 32.1002 139.871 31.6523 139.006 31.2068 138.277 30.7636 137.684 32.0794 137.538 33.3605 137.358 34.6069 137.143 35.8534 136.928 37.0512 136.664 38.2006 136.352 36.7946 135.248 35.5366 133.978 34.4266 132.541L32.5026 132.541 32.5026 128.401 50.6692 128.401ZM78.0079 126.954 78.0079 129.141 80.0476 129.141 80.0476 126.954ZM71.4219 126.954 71.4219 129.141 73.4246 129.141 73.4246 126.954ZM28.3586 126.733 32.3916 130.212C31.4797 132.125 30.5192 134.041 29.5102 135.959 28.5012 137.877 27.476 139.747 26.4346 141.569L21.8096 138.054C22.76 136.664 23.8191 134.967 24.9869 132.962 26.1547 130.957 27.2786 128.881 28.3586 126.733ZM48.6669 122.477 48.6669 124.294 50.3366 124.294 50.3366 122.477ZM43.0799 122.477 43.0799 124.294 44.7126 124.294 44.7126 122.477ZM37.4929 122.477 37.4929 124.294 39.1256 124.294 39.1256 122.477ZM78.0079 120.775 78.0079 122.925 80.0476 122.925 80.0476 120.775ZM71.4219 120.775 71.4219 122.925 73.4246 122.925 73.4246 120.775ZM32.9836 119.336 55.1049 119.336 55.1049 127.435 32.9836 127.435ZM24.1776 117.338C25.34 117.994 26.5764 118.746 27.8868 119.594 29.1972 120.443 30.2671 121.231 31.0966 121.96L27.6926 126.068C26.9556 125.3 25.9505 124.451 24.6771 123.52 23.4036 122.588 22.1765 121.748 20.9956 120.999ZM60.1786 115.857 65.3909 115.857 65.3909 134.987 86.3006 134.987 86.3006 115.857 91.5129 115.857 91.5129 142.161 86.3006 142.161 86.3006 140.052 65.3909 140.052 65.3909 142.161 60.1786 142.161ZM40.0482 114.485 40.0482 115.34 48.1882 115.34 48.1882 114.485ZM40.0482 110.896 40.0482 111.714 48.1882 111.714 48.1882 110.896ZM59.0316 109.124 92.6969 109.124 92.6969 114.115 78.4172 114.115 78.4172 116.45 84.6309 116.45 84.6309 133.466 67.0606 133.466 67.0606 116.45 72.9782 116.45 72.9782 114.115 59.0316 114.115ZM35.0162 107.94 53.4792 107.94 53.4792 118.296 35.0162 118.296ZM26.1016 107.755C27.321 108.392 28.6098 109.135 29.968 109.985 31.3262 110.834 32.4299 111.633 33.2793 112.38L29.8756 116.487C29.1186 115.718 28.0795 114.87 26.7583 113.944 25.4371 113.017 24.1575 112.188 22.9196 111.455Z" stroke="#000000" stroke-linejoin="round" stroke-miterlimit="10" fill="#7F7F7F" fill-rule="evenodd"/><text fill="#000000" fill-opacity="0" font-family="Arial,Arial_MSFontService,sans-serif" font-size="34.4794" x="20.9956" y="137.925">漫画</text><text font-family="Noto Sans CJK JP,Noto Sans CJK JP_MSFontService,sans-serif" font-weight="500" font-size="15" transform="translate(26.0183 98)">まん<tspan x="44" y="0">が</tspan></text><path d="M249.739 133.503 249.739 136.652 252.445 136.652 252.445 133.503ZM265.131 131.692 265.131 135.614 272.166 135.614 272.166 131.692ZM223.471 130.138C223.007 131.05 222.539 131.964 222.065 132.881 221.592 133.797 221.123 134.684 220.659 135.54 222.125 135.485 223.615 135.429 225.132 135.374 226.648 135.318 228.166 135.263 229.687 135.207 229.205 134.669 228.718 134.145 228.226 133.635 227.734 133.124 227.247 132.637 226.764 132.173L230.686 130.138ZM245.267 129.326 256.991 129.326 256.991 140.829 249.739 140.829 249.739 142.161 245.267 142.161ZM208.893 125.143 239.714 125.143 239.714 130.138 232.055 130.138C233.622 131.56 235.104 133.073 236.5 134.675 237.896 136.278 239.017 137.762 239.862 139.129L234.83 142.163C234.662 141.829 234.463 141.479 234.234 141.113 234.005 140.747 233.76 140.369 233.498 139.98 230.643 140.141 227.795 140.292 224.954 140.435 222.114 140.578 219.394 140.71 216.796 140.832 214.198 140.955 211.835 141.065 209.707 141.164L209.004 135.91C210.706 135.867 212.593 135.805 214.665 135.725 215.075 134.847 215.467 133.93 215.84 132.973 216.213 132.017 216.549 131.072 216.848 130.138L208.893 130.138ZM245.412 123.998 256.771 123.998 256.771 127.99 245.412 127.99ZM245.412 118.744 256.771 118.744 256.771 122.736 245.412 122.736ZM243.599 113.305 257.956 113.305 257.956 117.482 243.599 117.482ZM224.211 112.23C223.504 113.178 222.671 114.14 221.714 115.116 220.756 116.092 219.702 117.054 218.55 118.002L230.131 118.002C228.92 117.072 227.809 116.12 226.797 115.144 225.785 114.168 224.923 113.197 224.211 112.23ZM245.634 108.088 256.808 108.088 256.808 112.08 245.634 112.08ZM274.383 107.274 278.12 111.747C277.08 112.044 275.988 112.32 274.846 112.575 273.703 112.83 272.538 113.06 271.349 113.264L271.349 117.706 278.932 117.706 278.932 122.812 271.349 122.812 271.349 126.882 277.526 126.882 277.526 142.052 272.166 142.052 272.166 140.424 265.131 140.424 265.131 142.2 260.067 142.2 260.067 126.882 265.799 126.882 265.799 122.812 258.251 122.812 258.251 117.706 265.799 117.706 265.799 114.045C264.835 114.155 263.878 114.249 262.927 114.326 261.977 114.404 261.047 114.47 260.138 114.525 260.033 113.845 259.837 113.078 259.551 112.226 259.265 111.373 258.967 110.635 258.658 110.01 261.522 109.767 264.342 109.413 267.117 108.948 269.893 108.482 272.315 107.925 274.383 107.274ZM221.14 107.087 226.838 107.087C228.844 109.815 231.169 112.129 233.813 114.029 236.457 115.929 239.263 117.365 242.23 118.335 241.563 119.037 240.937 119.825 240.353 120.698 239.768 121.572 239.235 122.424 238.752 123.256 237.769 122.808 236.776 122.298 235.774 121.725 234.772 121.152 233.779 120.54 232.795 119.889L232.795 122.923 215.627 122.923 215.627 120.185C214.681 120.836 213.697 121.458 212.677 122.049 211.656 122.64 210.617 123.178 209.559 123.663 209.221 122.98 208.751 122.209 208.149 121.351 207.547 120.492 206.956 119.758 206.377 119.149 208.502 118.239 210.518 117.112 212.425 115.767 214.332 114.422 216.035 112.994 217.535 111.48 219.035 109.967 220.237 108.503 221.14 107.087Z" stroke="#000000" stroke-linejoin="round" stroke-miterlimit="10" fill="#7F7F7F" fill-rule="evenodd"/><text fill="#000000" fill-opacity="0" font-family="Arial,Arial_MSFontService,sans-serif" font-size="35.113" x="206.377" y="137.811">会話</text><text font-family="Noto Sans CJK JP,Noto Sans CJK JP_MSFontService,sans-serif" font-weight="500" font-size="15" transform="translate(209.439 98)">かい<tspan x="44" y="0">わ</tspan></text></g></svg>